<svg xmlns="http://www.w3.org/2000/svg" xmlns:xlink="http://www.w3.org/1999/xlink" xmlns:lucid="lucid" width="1306.22" height="1001.5"><g transform="translate(-634.2790506581456 20.5)" lucid:page-tab-id="0_0"><path d="M1260 85a5 5 0 0 1 5-5h150a5 5 0 0 1 5 5v30a5 5 0 0 1-5 5h-150a5 5 0 0 1-5-5z" fill="#fff"/><path d="M1260 120V85a5 5 0 0 1 5-5h150a5 5 0 0 1 5 5v35" fill="#dedeff"/><path d="M1260 120v1h160v-1" fill="#fff"/><path d="M1260 120v1h160v-1" fill="#fff"/><path d="M1260 120v1h160v-1" fill="#fff"/><path d="M1260 120v1h160v-1" fill="#fff"/><path d="M1260 120v1h160v-1" fill="#fff"/><path d="M1260 120v1h160v-1M1260 120h160" fill="#fff"/><path d="M1260 120h160M1260 85a5 5 0 0 1 5-5h150a5 5 0 0 1 5 5v30a5 5 0 0 1-5 5h-150a5 5 0 0 1-5-5zM1389.33 120" stroke="#282c33" fill="none"/><use xlink:href="#a" transform="matrix(1,0,0,1,1270,80) translate(48.184052734375 26.089501953125)"/><path d="M937.4 25a5 5 0 0 1 5-5h210a5 5 0 0 1 5 5v30a5 5 0 0 1-5 5h-210a5 5 0 0 1-5-5z" fill="#fff"/><path d="M937.4 60V25a5 5 0 0 1 5-5h210a5 5 0 0 1 5 5v35" fill="#dedeff"/><path d="M937.4 60v1h220v-1" fill="#fff"/><path d="M937.4 60v1h220v-1M937.4 60h220" fill="#fff"/><path d="M937.4 60h220M937.4 25a5 5 0 0 1 5-5h210a5 5 0 0 1 5 5v30a5 5 0 0 1-5 5h-210a5 5 0 0 1-5-5zM1034.72 60" stroke="#282c33" fill="none"/><use xlink:href="#b" transform="matrix(1,0,0,1,947.3895253290727,20) translate(46.7270751953125 26.089501953125)"/><path d="M1177.9 40h18.8a12 12 0 0 1 12 12v36a12 12 0 0 0 12 12h19.4M1157.9 40h20m0 10V30M1259.28 100h-20m20-10l-20 10m20 10l-20-10" stroke="#3a414a" fill="none"/><path d="M1512.6-15a5 5 0 0 1 5-5H1705a5 5 0 0 1 5 5v30a5 5 0 0 1-5 5h-187.4a5 5 0 0 1-5-5z" fill="#fff"/><path d="M1512.6 20v-35a5 5 0 0 1 5-5H1705a5 5 0 0 1 5 5v35" fill="#dedeff"/><path d="M1512.6 20v1H1710v-1M1512.6 20H1710" fill="#fff"/><path d="M1512.6 20H1710M1512.6-15a5 5 0 0 1 5-5H1705a5 5 0 0 1 5 5v30a5 5 0 0 1-5 5h-187.4a5 5 0 0 1-5-5zM1570.53 20" stroke="#282c33" fill="none"/><use xlink:href="#c" transform="matrix(1,0,0,1,1522.610474670927,-20) translate(50.4971826171875 26.089501953125)"/><path d="M1492.1 0H1352a12 12 0 0 0-12 12v48.1M1512.1 0h-20m0-10v20M1340 79.28v-20m10 20l-10-20m-10 20l10-20" stroke="#3a414a" fill="none"/><path d="M677.4 553.1a5 5 0 0 1 5-5h130a5 5 0 0 1 5 5v30a5 5 0 0 1-5 5h-130a5 5 0 0 1-5-5z" fill="#fff"/><path d="M677.4 588.1v-35a5 5 0 0 1 5-5h130a5 5 0 0 1 5 5v35" fill="#dedeff"/><path d="M677.4 588.1v1h140v-1" fill="#fff"/><path d="M677.4 588.1v1h140v-1" fill="#fff"/><path d="M677.4 588.1v1h140v-1" fill="#fff"/><path d="M677.4 588.1v1h140v-1M677.4 588.1h140" fill="#fff"/><path d="M677.4 588.1h140M677.4 553.1a5 5 0 0 1 5-5h130a5 5 0 0 1 5 5v30a5 5 0 0 1-5 5h-130a5 5 0 0 1-5-5zM706.62 588.1" stroke="#282c33" fill="none"/><use xlink:href="#d" transform="matrix(1,0,0,1,687.3895253290729,548.1007994753862) translate(16.417148437499996 26.089501953125)"/><path d="M940 220.23a5 5 0 0 1 5-5h210a5 5 0 0 1 5 5v30a5 5 0 0 1-5 5H945a5 5 0 0 1-5-5z" fill="#fff"/><path d="M940 255.23v-35a5 5 0 0 1 5-5h210a5 5 0 0 1 5 5v35" fill="#dedeff"/><path d="M940 255.23v1h220v-1" fill="#fff"/><path d="M940 255.23v1h220v-1M940 255.23h220" fill="#fff"/><path d="M940 255.23h220M940 220.23a5 5 0 0 1 5-5h210a5 5 0 0 1 5 5v30a5 5 0 0 1-5 5H945a5 5 0 0 1-5-5zM1035.33 255.23" stroke="#282c33" fill="none"/><use xlink:href="#e" transform="matrix(1,0,0,1,950.0000000000002,215.2258674498579) translate(70.39439453124999 26.089501953125)"/><path d="M1340 140.5v15.1a12 12 0 0 1-12 12h-266a12 12 0 0 0-12 12v15.7M1340 120.5v20m-10 0h20M1050 214.5v-20m10 20l-10-20m-10 20l10-20M1050 275.73V528.2M1050 255.73v20m-10 0h20M1050 547.38v-20m10 20l-10-20m-10 20l10-20M1050 275.73v113.93a12 12 0 0 1-12 12H759.4a12 12 0 0 0-12 12V527.6M1050 255.73v20m-10 0h20M747.4 547.6v-20m10 0h-20" stroke="#3a414a" fill="none"/><path d="M1360 545a5 5 0 0 1 5-5h130a5 5 0 0 1 5 5v30a5 5 0 0 1-5 5h-130a5 5 0 0 1-5-5z" fill="#fff"/><path d="M1360 580v-35a5 5 0 0 1 5-5h130a5 5 0 0 1 5 5v35" fill="#dedeff"/><path d="M1360 580v1h140v-1" fill="#fff"/><path d="M1360 580v1h140v-1" fill="#fff"/><path d="M1360 580v1h140v-1" fill="#fff"/><path d="M1360 580v1h140v-1M1360 580h140" fill="#fff"/><path d="M1360 580h140M1360 545a5 5 0 0 1 5-5h130a5 5 0 0 1 5 5v30a5 5 0 0 1-5 5h-130a5 5 0 0 1-5-5zM1389.23 580" stroke="#282c33" fill="none"/><use xlink:href="#f" transform="matrix(1,0,0,1,1370,540) translate(31.518295898437493 26.089501953125)"/><path d="M1339.5 560h-8a12 12 0 0 0-12 12v245.25a12 12 0 0 0 12 12h161.2M1359.5 560h-20m0-10v20M1511.9 829.25h-20m20-10l-20 10m20 10l-20-10" stroke="#3a414a" fill="none"/><path d="M1800 545a5 5 0 0 1 5-5h130a5 5 0 0 1 5 5v30a5 5 0 0 1-5 5h-130a5 5 0 0 1-5-5z" fill="#fff"/><path d="M1800 580v-35a5 5 0 0 1 5-5h130a5 5 0 0 1 5 5v35" fill="#dedeff"/><path d="M1800 580v1h140v-1" fill="#fff"/><path d="M1800 580v1h140v-1" fill="#fff"/><path d="M1800 580v1h140v-1" fill="#fff"/><path d="M1800 580v1h140v-1M1800 580h140" fill="#fff"/><path d="M1800 580h140M1800 545a5 5 0 0 1 5-5h130a5 5 0 0 1 5 5v30a5 5 0 0 1-5 5h-130a5 5 0 0 1-5-5zM1829.23 580" stroke="#282c33" fill="none"/><use xlink:href="#g" transform="matrix(1,0,0,1,1810,540) translate(24.108720703125 26.089501953125)"/><path d="M1617.4 225a5 5 0 0 1 5-5h130a5 5 0 0 1 5 5v30a5 5 0 0 1-5 5h-130a5 5 0 0 1-5-5z" fill="#fff"/><path d="M1617.4 260v-35a5 5 0 0 1 5-5h130a5 5 0 0 1 5 5v35" fill="#dedeff"/><path d="M1617.4 260v1h140v-1" fill="#fff"/><path d="M1617.4 260v1h140v-1" fill="#fff"/><path d="M1617.4 260v1h140v-1" fill="#fff"/><path d="M1617.4 260v1h140v-1M1617.4 260h140" fill="#fff"/><path d="M1617.4 260h140M1617.4 225a5 5 0 0 1 5-5h130a5 5 0 0 1 5 5v30a5 5 0 0 1-5 5h-130a5 5 0 0 1-5-5zM1646.62 260" stroke="#282c33" fill="none"/><use xlink:href="#h" transform="matrix(1,0,0,1,1627.3895253290727,220) translate(32.732109375 26.089501953125)"/><path d="M1555.22 945a5 5 0 0 1 5-5h130a5 5 0 0 1 5 5v30a5 5 0 0 1-5 5h-130a5 5 0 0 1-5-5z" fill="#fff"/><path d="M1555.22 980v-35a5 5 0 0 1 5-5h130a5 5 0 0 1 5 5v35" fill="#dedeff"/><path d="M1555.22 980v1h140v-1" fill="#fff"/><path d="M1555.22 980v1h140v-1" fill="#fff"/><path d="M1555.22 980v1h140v-1" fill="#fff"/><path d="M1555.22 980v1h140v-1M1555.22 980h140" fill="#fff"/><path d="M1555.22 980h140M1555.22 945a5 5 0 0 1 5-5h130a5 5 0 0 1 5 5v30a5 5 0 0 1-5 5h-130a5 5 0 0 1-5-5zM1584.45 980" stroke="#282c33" fill="none"/><use xlink:href="#i" transform="matrix(1,0,0,1,1565.2209493418543,940) translate(28.0444189453125 26.089501953125)"/><path d="M1800 705a5 5 0 0 1 5-5h130a5 5 0 0 1 5 5v30a5 5 0 0 1-5 5h-130a5 5 0 0 1-5-5z" fill="#fff"/><path d="M1800 740v-35a5 5 0 0 1 5-5h130a5 5 0 0 1 5 5v35" fill="#dedeff"/><path d="M1800 740v1h140v-1" fill="#fff"/><path d="M1800 740v1h140v-1" fill="#fff"/><path d="M1800 740v1h140v-1" fill="#fff"/><path d="M1800 740v1h140v-1M1800 740h140" fill="#fff"/><path d="M1800 740h140M1800 705a5 5 0 0 1 5-5h130a5 5 0 0 1 5 5v30a5 5 0 0 1-5 5h-130a5 5 0 0 1-5-5zM1829.23 740" stroke="#282c33" fill="none"/><use xlink:href="#j" transform="matrix(1,0,0,1,1810,700) translate(40.644375 26.089501953125)"/><path d="M1512.6 814.25a5 5 0 0 1 5-5h215.23a5 5 0 0 1 5 5v30a5 5 0 0 1-5 5H1517.6a5 5 0 0 1-5-5z" fill="#fff"/><path d="M1512.6 849.25v-35a5 5 0 0 1 5-5h215.23a5 5 0 0 1 5 5v35" fill="#e3fae3"/><path d="M1512.6 849.25v1h225.23v-1" fill="#fff"/><path d="M1512.6 849.25v1h225.23v-1" fill="#fff"/><path d="M1512.6 849.25v1h225.23v-1" fill="#fff"/><path d="M1512.6 849.25v1h225.23v-1M1512.6 849.25h225.23" fill="#fff"/><path d="M1512.6 849.25h225.23M1512.6 814.25a5 5 0 0 1 5-5h215.23a5 5 0 0 1 5 5v30a5 5 0 0 1-5 5H1517.6a5 5 0 0 1-5-5zM1572.6 849.25" stroke="#282c33" fill="none"/><use xlink:href="#k" transform="matrix(1,0,0,1,1522.610474670927,809.2513018084583) translate(15.008740234374997 26.089501953125)"/><path d="M1625.22 919.5v-50.34M1625.22 939.5v-20m10 0h-20M1625.22 849.98v20m-10-20l10 20m10-20l-10 20M1779.5 720a10.58 10.58 0 0 0-10.58 10.58v87.5a11.17 11.17 0 0 1-11.18 11.17M1799.5 720h-20m0-10v20M1738.56 829.25h20m-20 10l20-10m-20-10l20 10M1339.5 560h-8a12 12 0 0 0-12 12v245.25a12 12 0 0 1-12 12H879.9M1359.28 560h-20m20-10l-20 10m20 10l-20-10m0-10v20M860.72 829.25h20m-20 10l20-10m-20-10l20 10" stroke="#3a414a" fill="none"/><path d="M634.78 814.25a5 5 0 0 1 5-5H855a5 5 0 0 1 5 5v30a5 5 0 0 1-5 5H639.78a5 5 0 0 1-5-5z" fill="#fff"/><path d="M634.78 849.25v-35a5 5 0 0 1 5-5H855a5 5 0 0 1 5 5v35" fill="#e3fae3"/><path d="M634.78 849.25v1H860v-1" fill="#fff"/><path d="M634.78 849.25v1H860v-1" fill="#fff"/><path d="M634.78 849.25v1H860v-1" fill="#fff"/><path d="M634.78 849.25v1H860v-1M634.78 849.25H860" fill="#fff"/><path d="M634.78 849.25H860M634.78 814.25a5 5 0 0 1 5-5H855a5 5 0 0 1 5 5v30a5 5 0 0 1-5 5H639.78a5 5 0 0 1-5-5zM694.78 849.25" stroke="#282c33" fill="none"/><use xlink:href="#l" transform="matrix(1,0,0,1,644.7790506581456,809.2513018084583) translate(26.836269531249997 26.089501953125)"/><path d="M747.4 608.6v180.74M747.4 588.6v20m-10 0h20M747.4 808.53v-20m10 20l-10-20m-10 20l10-20" stroke="#3a414a" fill="none"/><path d="M980 553.1a5 5 0 0 1 5-5h130a5 5 0 0 1 5 5v30a5 5 0 0 1-5 5H985a5 5 0 0 1-5-5z" fill="#fff"/><path d="M980 588.1v-35a5 5 0 0 1 5-5h130a5 5 0 0 1 5 5v35" fill="#dedeff"/><path d="M980 588.1v1h140v-1" fill="#fff"/><path d="M980 588.1v1h140v-1" fill="#fff"/><path d="M980 588.1v1h140v-1" fill="#fff"/><path d="M980 588.1v1h140v-1M980 588.1h140" fill="#fff"/><path d="M980 588.1h140M980 553.1a5 5 0 0 1 5-5h130a5 5 0 0 1 5 5v30a5 5 0 0 1-5 5H985a5 5 0 0 1-5-5zM1009.23 588.1" stroke="#282c33" fill="none"/><use xlink:href="#m" transform="matrix(1,0,0,1,990,548.1007994753862) translate(29.544316406249997 26.089501953125)"/><path d="M1430 520.1V392a12 12 0 0 1 12-12h112.87M1430 539.28v-20m10 20l-10-20m-10 20l10-20M1574.06 380h-20m20-10l-20 10m20 10l-20-10M1687.4 279.9v60.2M1687.4 260.72v20m-10-20l10 20m10-20l-10 20M1687.4 359.28v-20m10 20l-10-20m-10 20l10-20M1430 520.1V392a12 12 0 0 0-12-12h-202.9a12 12 0 0 0-12 12v316a12 12 0 0 1-12 12h-8.58M1430 539.28v-20m10 20l-10-20m-10 20l10-20M1163.33 720h20m-20 10l20-10m-20-10l20 10" stroke="#3a414a" fill="none"/><path d="M937.4 705a5 5 0 0 1 5-5h215.2a5 5 0 0 1 5 5v30a5 5 0 0 1-5 5H942.4a5 5 0 0 1-5-5z" fill="#fff"/><path d="M937.4 740v-35a5 5 0 0 1 5-5h215.2a5 5 0 0 1 5 5v35" fill="#e3fae3"/><path d="M937.4 740v1h225.2v-1" fill="#fff"/><path d="M937.4 740v1h225.2v-1" fill="#fff"/><path d="M937.4 740v1h225.2v-1" fill="#fff"/><path d="M937.4 740v1h225.2v-1M937.4 740h225.2" fill="#fff"/><path d="M937.4 740h225.2M937.4 705a5 5 0 0 1 5-5h215.2a5 5 0 0 1 5 5v30a5 5 0 0 1-5 5H942.4a5 5 0 0 1-5-5zM997.4 740" stroke="#282c33" fill="none"/><use xlink:href="#n" transform="matrix(1,0,0,1,947.3895253290727,700) translate(39.9634375 26.089501953125)"/><path d="M1574.78 365a5 5 0 0 1 5-5H1795a5 5 0 0 1 5 5v30a5 5 0 0 1-5 5h-215.22a5 5 0 0 1-5-5z" fill="#fff"/><path d="M1574.78 400v-35a5 5 0 0 1 5-5H1795a5 5 0 0 1 5 5v35" fill="#e3fae3"/><path d="M1574.78 400v1H1800v-1" fill="#fff"/><path d="M1574.78 400v1H1800v-1" fill="#fff"/><path d="M1574.78 400v1H1800v-1" fill="#fff"/><path d="M1574.78 400v1H1800v-1M1574.78 400H1800" fill="#fff"/><path d="M1574.78 400H1800M1574.78 365a5 5 0 0 1 5-5H1795a5 5 0 0 1 5 5v30a5 5 0 0 1-5 5h-215.22a5 5 0 0 1-5-5zM1634.78 400" stroke="#282c33" fill="none"/><use xlink:href="#o" transform="matrix(1,0,0,1,1584.7790506581455,360) translate(43.43322753906249 26.089501953125)"/><path d="M1050 608v72.1M1050 588.82v20m-10-20l10 20m10-20l-10 20M1050 699.28v-20m10 20l-10-20m-10 20l10-20M1520.5 560h239M1500.5 560h20m0 10v-20" stroke="#3a414a" fill="none"/><path d="M1799.28 560h-20m20-10l-20 10m20 10l-20-10m0 0c0 5.52-4.48 10-10 10-5.53 0-10-4.48-10-10s4.47-10 10-10c5.52 0 10 4.48 10 10z" stroke="#3a414a" fill="#fff"/><defs><path d="M537 14c-226 0-379-139-379-422v-710h180v695c0 172 97 275 253 275 160 0 281-109 281-300v-670h181V0H879v-209C806-46 684 14 537 14" id="p"/><path d="M538 24C308 24 148-78 108-271l171-41c32 123 123 178 257 178 156 0 256-77 256-169 0-77-54-128-164-154l-186-44c-203-48-300-148-300-305 0-192 176-326 414-326 230 0 351 112 402 269l-163 42c-31-80-94-158-238-158-133 0-233 69-233 162 0 83 57 129 188 160l169 40c203 48 298 149 298 302 0 196-179 339-441 339" id="q"/><path d="M628 24c-324 0-524-230-524-574 0-343 198-582 503-582 237 0 487 146 487 559v75H286c9 234 145 362 343 362 132 0 231-58 273-172l174 48C1024-91 857 24 628 24zM287-650h624c-17-190-120-322-304-322-192 0-309 151-320 322" id="r"/><path d="M158 0v-1118h174v172h12c41-113 157-188 290-188 26 0 70 2 91 3v181c-11-2-60-10-108-10-161 0-279 109-279 260V0H158" id="s"/><g id="a"><use transform="matrix(0.008173828125000001,0,0,0.008173828125000001,0,0)" xlink:href="#p"/><use transform="matrix(0.008173828125000001,0,0,0.008173828125000001,9.898505859375001,0)" xlink:href="#q"/><use transform="matrix(0.008173828125000001,0,0,0.008173828125000001,18.7344140625,0)" xlink:href="#r"/><use transform="matrix(0.008173828125000001,0,0,0.008173828125000001,28.49396484375,0)" xlink:href="#s"/><use transform="matrix(0.008173828125000001,0,0,0.008173828125000001,34.795986328125,0)" xlink:href="#q"/></g><path d="M677 24c-213 0-288-135-325-197h-20V0H158v-1490h180v551h14c37-59 106-193 324-193 279 0 474 222 474 576 0 356-194 580-473 580zm-27-161c209 0 317-186 317-421 0-232-105-413-317-413-206 0-314 166-314 413 0 249 111 421 314 421" id="t"/><path d="M613 24c-304 0-509-231-509-576 0-350 205-580 509-580 216 0 392 114 453 309l-173 49c-33-115-133-197-280-197-223 0-326 196-326 419 0 220 103 415 326 415 150 0 252-85 285-206l172 49C1010-95 832 24 613 24" id="u"/><path d="M158 0v-1118h180V0H158zm91-1301c-68 0-125-53-125-119s57-119 125-119c69 0 126 53 126 119s-57 119-126 119" id="v"/><path d="M158 418v-1536h174v179h20c37-59 106-193 324-193 279 0 474 222 474 576 0 356-194 580-473 580-213 0-288-135-325-197h-14v591H158zm492-555c209 0 317-186 317-421 0-232-105-413-317-413-206 0-314 166-314 413 0 249 111 421 314 421" id="w"/><path d="M598-1118v154H368v674c0 100 37 144 132 144 23 0 62-6 92-12L629-6c-37 13-88 20-134 20-193 0-307-107-307-290v-688H20v-154h168v-266h180v266h230" id="x"/><path d="M613 24c-304 0-509-231-509-576 0-350 205-580 509-580 305 0 511 230 511 580 0 345-206 576-511 576zm0-161c226 0 329-195 329-415 0-222-103-419-329-419-223 0-326 196-326 419 0 220 103 415 326 415" id="y"/><path d="M338-670V0H158v-1118h173l1 207c72-158 192-221 342-221 226 0 378 139 378 422V0H872v-695c0-172-96-275-252-275-161 0-282 109-282 300" id="z"/><g id="b"><use transform="matrix(0.008173828125000001,0,0,0.008173828125000001,0,0)" xlink:href="#q"/><use transform="matrix(0.008173828125000001,0,0,0.008173828125000001,8.835908203125001,0)" xlink:href="#p"/><use transform="matrix(0.008173828125000001,0,0,0.008173828125000001,18.7344140625,0)" xlink:href="#t"/><use transform="matrix(0.008173828125000001,0,0,0.008173828125000001,28.984394531250004,0)" xlink:href="#q"/><use transform="matrix(0.008173828125000001,0,0,0.008173828125000001,37.820302734375005,0)" xlink:href="#u"/><use transform="matrix(0.008173828125000001,0,0,0.008173828125000001,47.38368164062501,0)" xlink:href="#s"/><use transform="matrix(0.008173828125000001,0,0,0.008173828125000001,53.947265625,0)" xlink:href="#v"/><use transform="matrix(0.008173828125000001,0,0,0.008173828125000001,58.001484375000004,0)" xlink:href="#w"/><use transform="matrix(0.008173828125000001,0,0,0.008173828125000001,68.25146484375,0)" xlink:href="#x"/><use transform="matrix(0.008173828125000001,0,0,0.008173828125000001,73.7279296875,0)" xlink:href="#v"/><use transform="matrix(0.008173828125000001,0,0,0.008173828125000001,77.7821484375,0)" xlink:href="#y"/><use transform="matrix(0.008173828125000001,0,0,0.008173828125000001,87.819609375,0)" xlink:href="#z"/><use transform="matrix(0.008173828125000001,0,0,0.008173828125000001,97.70994140625,0)" xlink:href="#q"/></g><path d="M481 0L54-1118h197c107 314 236 620 325 951 87-331 217-637 324-951h197L670 0H481" id="A"/><path d="M338-1490V0H158v-1490h180" id="B"/><path d="M611 442c-248 0-391-105-460-228l146-94c47 65 117 165 314 165 178 0 307-82 307-266v-224h-17C863-141 792-18 576-18c-268 0-472-195-472-546 0-346 197-568 476-568 216 0 288 133 326 193h17v-179h175V29c0 289-215 413-487 413zm-5-620c203 0 314-146 314-390 0-237-108-403-314-403-213 0-319 180-319 403 0 230 109 390 319 390" id="C"/><g id="c"><use transform="matrix(0.008173828125000001,0,0,0.008173828125000001,0,0)" xlink:href="#w"/><use transform="matrix(0.008173828125000001,0,0,0.008173828125000001,10.249980468750001,0)" xlink:href="#s"/><use transform="matrix(0.008173828125000001,0,0,0.008173828125000001,16.813564453125004,0)" xlink:href="#v"/><use transform="matrix(0.008173828125000001,0,0,0.008173828125000001,20.867783203125004,0)" xlink:href="#A"/><use transform="matrix(0.008173828125000001,0,0,0.008173828125000001,30.275859375000003,0)" xlink:href="#v"/><use transform="matrix(0.008173828125000001,0,0,0.008173828125000001,34.330078125,0)" xlink:href="#B"/><use transform="matrix(0.008173828125000001,0,0,0.008173828125000001,38.384296875000004,0)" xlink:href="#r"/><use transform="matrix(0.008173828125000001,0,0,0.008173828125000001,48.14384765625,0)" xlink:href="#C"/><use transform="matrix(0.008173828125000001,0,0,0.008173828125000001,58.410175781250004,0)" xlink:href="#r"/><use transform="matrix(0.008173828125000001,0,0,0.008173828125000001,68.1697265625,0)" xlink:href="#q"/></g><path d="M409 0L70-1118h191c89 329 165 560 243 925 75-353 154-601 240-925h192c85 325 161 564 235 922 77-354 157-598 244-922h191L1267 0h-179c-86-307-176-590-250-913C763-588 675-308 588 0H409" id="D"/><path d="M471 26C259 26 90-98 90-318c0-256 228-303 435-329 202-27 287-16 287-108 0-139-79-219-234-219-161 0-248 86-283 164l-173-57c86-203 278-265 451-265 150 0 419 46 419 395V0H815v-152h-12C765-73 660 26 471 26zm31-159c199 0 310-134 310-271v-155c-30 35-226 55-295 64-131 17-246 59-246 186 0 116 97 176 231 176" id="E"/><path d="M338-670V0H158v-1490h180v566c73-149 190-208 336-208 226 0 379 139 379 422V0H872v-695c0-172-96-275-252-275-161 0-282 109-282 300" id="F"/><path d="M934 0v166H0V0h934" id="G"/><g id="d"><use transform="matrix(0.008173828125000001,0,0,0.008173828125000001,0,0)" xlink:href="#D"/><use transform="matrix(0.008173828125000001,0,0,0.008173828125000001,13.6993359375,0)" xlink:href="#E"/><use transform="matrix(0.008173828125000001,0,0,0.008173828125000001,23.099238281250003,0)" xlink:href="#x"/><use transform="matrix(0.008173828125000001,0,0,0.008173828125000001,28.412226562500003,0)" xlink:href="#u"/><use transform="matrix(0.008173828125000001,0,0,0.008173828125000001,37.975605468750004,0)" xlink:href="#F"/><use transform="matrix(0.008173828125000001,0,0,0.008173828125000001,47.874111328125004,0)" xlink:href="#G"/><use transform="matrix(0.008173828125000001,0,0,0.008173828125000001,56.072460937500004,0)" xlink:href="#B"/><use transform="matrix(0.008173828125000001,0,0,0.008173828125000001,60.1266796875,0)" xlink:href="#v"/><use transform="matrix(0.008173828125000001,0,0,0.008173828125000001,64.1808984375,0)" xlink:href="#q"/><use transform="matrix(0.008173828125000001,0,0,0.008173828125000001,73.016806640625,0)" xlink:href="#x"/><use transform="matrix(0.008173828125000001,0,0,0.008173828125000001,78.329794921875,0)" xlink:href="#q"/></g><path d="M678-1118v154H420V0H240v-964H20v-154h220v-149c0-194 155-293 318-293 85 0 141 18 168 30l-50 154c-19-6-47-17-97-17-111 0-159 58-159 166v109h258" id="H"/><g id="e"><use transform="matrix(0.008173828125000001,0,0,0.008173828125000001,0,0)" xlink:href="#w"/><use transform="matrix(0.008173828125000001,0,0,0.008173828125000001,10.249980468750001,0)" xlink:href="#s"/><use transform="matrix(0.008173828125000001,0,0,0.008173828125000001,16.274091796875002,0)" xlink:href="#y"/><use transform="matrix(0.008173828125000001,0,0,0.008173828125000001,26.311552734375002,0)" xlink:href="#H"/><use transform="matrix(0.008173828125000001,0,0,0.008173828125000001,32.507314453125005,0)" xlink:href="#v"/><use transform="matrix(0.008173828125000001,0,0,0.008173828125000001,36.56153320312501,0)" xlink:href="#B"/><use transform="matrix(0.008173828125000001,0,0,0.008173828125000001,40.61575195312501,0)" xlink:href="#r"/><use transform="matrix(0.008173828125000001,0,0,0.008173828125000001,50.37530273437501,0)" xlink:href="#q"/></g><path d="M158 0v-1118h175l1 205c55-151 181-225 313-225 147 0 245 90 285 228 53-141 190-228 352-228 194 0 352 125 352 384V0h-181v-749c0-161-105-225-225-225-151 0-243 103-243 244V0H807v-767c0-124-93-207-219-207-131 0-250 92-250 270V0H158" id="I"/><path d="M577 24c-279 0-473-224-473-580 0-354 195-576 474-576 218 0 287 134 324 193h14v-551h180V0H922v-173h-20C865-111 790 24 577 24zm27-161c203 0 314-172 314-421 0-247-108-413-314-413-212 0-317 181-317 413 0 235 108 421 317 421" id="J"/><g id="f"><use transform="matrix(0.008173828125000001,0,0,0.008173828125000001,0,0)" xlink:href="#I"/><use transform="matrix(0.008173828125000001,0,0,0.008173828125000001,14.663847656250002,0)" xlink:href="#r"/><use transform="matrix(0.008173828125000001,0,0,0.008173828125000001,24.42339843750001,0)" xlink:href="#J"/><use transform="matrix(0.008173828125000001,0,0,0.008173828125000001,34.673378906250015,0)" xlink:href="#v"/><use transform="matrix(0.008173828125000001,0,0,0.008173828125000001,38.72759765625001,0)" xlink:href="#E"/><use transform="matrix(0.008173828125000001,0,0,0.008173828125000001,48.12750000000001,0)" xlink:href="#q"/></g><g id="g"><use transform="matrix(0.008173828125000001,0,0,0.008173828125000001,0,0)" xlink:href="#r"/><use transform="matrix(0.008173828125000001,0,0,0.008173828125000001,9.75955078125,0)" xlink:href="#w"/><use transform="matrix(0.008173828125000001,0,0,0.008173828125000001,20.009531250000002,0)" xlink:href="#v"/><use transform="matrix(0.008173828125000001,0,0,0.008173828125000001,24.063750000000002,0)" xlink:href="#q"/><use transform="matrix(0.008173828125000001,0,0,0.008173828125000001,32.899658203125,0)" xlink:href="#y"/><use transform="matrix(0.008173828125000001,0,0,0.008173828125000001,42.937119140625,0)" xlink:href="#J"/><use transform="matrix(0.008173828125000001,0,0,0.008173828125000001,53.187099609375004,0)" xlink:href="#r"/><use transform="matrix(0.008173828125000001,0,0,0.008173828125000001,62.946650390625,0)" xlink:href="#q"/></g><g id="h"><use transform="matrix(0.008173828125000001,0,0,0.008173828125000001,0,0)" xlink:href="#C"/><use transform="matrix(0.008173828125000001,0,0,0.008173828125000001,10.266328125000001,0)" xlink:href="#r"/><use transform="matrix(0.008173828125000001,0,0,0.008173828125000001,20.02587890625,0)" xlink:href="#z"/><use transform="matrix(0.008173828125000001,0,0,0.008173828125000001,29.9162109375,0)" xlink:href="#s"/><use transform="matrix(0.008173828125000001,0,0,0.008173828125000001,35.940322265625,0)" xlink:href="#r"/><use transform="matrix(0.008173828125000001,0,0,0.008173828125000001,45.699873046875,0)" xlink:href="#q"/></g><g id="i"><use transform="matrix(0.008173828125000001,0,0,0.008173828125000001,0,0)" xlink:href="#w"/><use transform="matrix(0.008173828125000001,0,0,0.008173828125000001,10.249980468750001,0)" xlink:href="#r"/><use transform="matrix(0.008173828125000001,0,0,0.008173828125000001,20.009531250000002,0)" xlink:href="#s"/><use transform="matrix(0.008173828125000001,0,0,0.008173828125000001,26.311552734375002,0)" xlink:href="#q"/><use transform="matrix(0.008173828125000001,0,0,0.008173828125000001,35.1474609375,0)" xlink:href="#y"/><use transform="matrix(0.008173828125000001,0,0,0.008173828125000001,45.184921875,0)" xlink:href="#z"/><use transform="matrix(0.008173828125000001,0,0,0.008173828125000001,55.07525390625,0)" xlink:href="#q"/></g><g id="j"><use transform="matrix(0.008173828125000001,0,0,0.008173828125000001,0,0)" xlink:href="#s"/><use transform="matrix(0.008173828125000001,0,0,0.008173828125000001,6.0241113281250005,0)" xlink:href="#y"/><use transform="matrix(0.008173828125000001,0,0,0.008173828125000001,16.061572265625003,0)" xlink:href="#B"/><use transform="matrix(0.008173828125000001,0,0,0.008173828125000001,20.115791015625003,0)" xlink:href="#r"/><use transform="matrix(0.008173828125000001,0,0,0.008173828125000001,29.875341796875006,0)" xlink:href="#q"/></g><g id="k"><use transform="matrix(0.008173828125000001,0,0,0.008173828125000001,0,0)" xlink:href="#I"/><use transform="matrix(0.008173828125000001,0,0,0.008173828125000001,14.663847656250002,0)" xlink:href="#r"/><use transform="matrix(0.008173828125000001,0,0,0.008173828125000001,24.42339843750001,0)" xlink:href="#J"/><use transform="matrix(0.008173828125000001,0,0,0.008173828125000001,34.673378906250015,0)" xlink:href="#v"/><use transform="matrix(0.008173828125000001,0,0,0.008173828125000001,38.72759765625001,0)" xlink:href="#E"/><use transform="matrix(0.008173828125000001,0,0,0.008173828125000001,48.12750000000001,0)" xlink:href="#q"/><use transform="matrix(0.008173828125000001,0,0,0.008173828125000001,56.96340820312501,0)" xlink:href="#G"/><use transform="matrix(0.008173828125000001,0,0,0.008173828125000001,65.16175781250001,0)" xlink:href="#w"/><use transform="matrix(0.008173828125000001,0,0,0.008173828125000001,75.41173828125001,0)" xlink:href="#r"/><use transform="matrix(0.008173828125000001,0,0,0.008173828125000001,85.17128906250001,0)" xlink:href="#s"/><use transform="matrix(0.008173828125000001,0,0,0.008173828125000001,91.47331054687501,0)" xlink:href="#q"/><use transform="matrix(0.008173828125000001,0,0,0.008173828125000001,100.30921875000001,0)" xlink:href="#y"/><use transform="matrix(0.008173828125000001,0,0,0.008173828125000001,110.34667968750001,0)" xlink:href="#z"/><use transform="matrix(0.008173828125000001,0,0,0.008173828125000001,120.23701171875001,0)" xlink:href="#q"/><use transform="matrix(0.008173828125000001,0,0,0.008173828125000001,129.072919921875,0)" xlink:href="#G"/><use transform="matrix(0.008173828125000001,0,0,0.008173828125000001,137.27126953125,0)" xlink:href="#s"/><use transform="matrix(0.008173828125000001,0,0,0.008173828125000001,143.295380859375,0)" xlink:href="#y"/><use transform="matrix(0.008173828125000001,0,0,0.008173828125000001,153.33284179687502,0)" xlink:href="#B"/><use transform="matrix(0.008173828125000001,0,0,0.008173828125000001,157.387060546875,0)" xlink:href="#r"/><use transform="matrix(0.008173828125000001,0,0,0.008173828125000001,167.14661132812498,0)" xlink:href="#q"/></g><g id="l"><use transform="matrix(0.008173828125000001,0,0,0.008173828125000001,0,0)" xlink:href="#D"/><use transform="matrix(0.008173828125000001,0,0,0.008173828125000001,13.6993359375,0)" xlink:href="#E"/><use transform="matrix(0.008173828125000001,0,0,0.008173828125000001,23.099238281250003,0)" xlink:href="#x"/><use transform="matrix(0.008173828125000001,0,0,0.008173828125000001,28.412226562500003,0)" xlink:href="#u"/><use transform="matrix(0.008173828125000001,0,0,0.008173828125000001,37.975605468750004,0)" xlink:href="#F"/><use transform="matrix(0.008173828125000001,0,0,0.008173828125000001,47.874111328125004,0)" xlink:href="#G"/><use transform="matrix(0.008173828125000001,0,0,0.008173828125000001,56.072460937500004,0)" xlink:href="#B"/><use transform="matrix(0.008173828125000001,0,0,0.008173828125000001,60.1266796875,0)" xlink:href="#v"/><use transform="matrix(0.008173828125000001,0,0,0.008173828125000001,64.1808984375,0)" xlink:href="#q"/><use transform="matrix(0.008173828125000001,0,0,0.008173828125000001,73.016806640625,0)" xlink:href="#x"/><use transform="matrix(0.008173828125000001,0,0,0.008173828125000001,78.329794921875,0)" xlink:href="#q"/><use transform="matrix(0.008173828125000001,0,0,0.008173828125000001,87.16570312500001,0)" xlink:href="#G"/><use transform="matrix(0.008173828125000001,0,0,0.008173828125000001,95.36405273437501,0)" xlink:href="#I"/><use transform="matrix(0.008173828125000001,0,0,0.008173828125000001,110.027900390625,0)" xlink:href="#r"/><use transform="matrix(0.008173828125000001,0,0,0.008173828125000001,119.787451171875,0)" xlink:href="#J"/><use transform="matrix(0.008173828125000001,0,0,0.008173828125000001,130.03743164062502,0)" xlink:href="#v"/><use transform="matrix(0.008173828125000001,0,0,0.008173828125000001,134.091650390625,0)" xlink:href="#E"/><use transform="matrix(0.008173828125000001,0,0,0.008173828125000001,143.491552734375,0)" xlink:href="#q"/></g><g id="m"><use transform="matrix(0.008173828125000001,0,0,0.008173828125000001,0,0)" xlink:href="#s"/><use transform="matrix(0.008173828125000001,0,0,0.008173828125000001,6.0241113281250005,0)" xlink:href="#r"/><use transform="matrix(0.008173828125000001,0,0,0.008173828125000001,15.456708984375002,0)" xlink:href="#A"/><use transform="matrix(0.008173828125000001,0,0,0.008173828125000001,24.86478515625,0)" xlink:href="#v"/><use transform="matrix(0.008173828125000001,0,0,0.008173828125000001,28.91900390625,0)" xlink:href="#r"/><use transform="matrix(0.008173828125000001,0,0,0.008173828125000001,38.376123046875,0)" xlink:href="#D"/><use transform="matrix(0.008173828125000001,0,0,0.008173828125000001,52.075458984375004,0)" xlink:href="#q"/></g><g id="n"><use transform="matrix(0.008173828125000001,0,0,0.008173828125000001,0,0)" xlink:href="#I"/><use transform="matrix(0.008173828125000001,0,0,0.008173828125000001,14.663847656250002,0)" xlink:href="#r"/><use transform="matrix(0.008173828125000001,0,0,0.008173828125000001,24.42339843750001,0)" xlink:href="#J"/><use transform="matrix(0.008173828125000001,0,0,0.008173828125000001,34.673378906250015,0)" xlink:href="#v"/><use transform="matrix(0.008173828125000001,0,0,0.008173828125000001,38.72759765625001,0)" xlink:href="#E"/><use transform="matrix(0.008173828125000001,0,0,0.008173828125000001,48.12750000000001,0)" xlink:href="#q"/><use transform="matrix(0.008173828125000001,0,0,0.008173828125000001,56.96340820312501,0)" xlink:href="#G"/><use transform="matrix(0.008173828125000001,0,0,0.008173828125000001,65.16175781250001,0)" xlink:href="#s"/><use transform="matrix(0.008173828125000001,0,0,0.008173828125000001,71.18586914062503,0)" xlink:href="#r"/><use transform="matrix(0.008173828125000001,0,0,0.008173828125000001,80.61846679687501,0)" xlink:href="#A"/><use transform="matrix(0.008173828125000001,0,0,0.008173828125000001,90.02654296875001,0)" xlink:href="#v"/><use transform="matrix(0.008173828125000001,0,0,0.008173828125000001,94.08076171875001,0)" xlink:href="#r"/><use transform="matrix(0.008173828125000001,0,0,0.008173828125000001,103.53788085937501,0)" xlink:href="#D"/><use transform="matrix(0.008173828125000001,0,0,0.008173828125000001,117.237216796875,0)" xlink:href="#q"/></g><g id="o"><use transform="matrix(0.008173828125000001,0,0,0.008173828125000001,0,0)" xlink:href="#I"/><use transform="matrix(0.008173828125000001,0,0,0.008173828125000001,14.663847656250002,0)" xlink:href="#r"/><use transform="matrix(0.008173828125000001,0,0,0.008173828125000001,24.42339843750001,0)" xlink:href="#J"/><use transform="matrix(0.008173828125000001,0,0,0.008173828125000001,34.673378906250015,0)" xlink:href="#v"/><use transform="matrix(0.008173828125000001,0,0,0.008173828125000001,38.72759765625001,0)" xlink:href="#E"/><use transform="matrix(0.008173828125000001,0,0,0.008173828125000001,48.12750000000001,0)" xlink:href="#q"/><use transform="matrix(0.008173828125000001,0,0,0.008173828125000001,56.96340820312501,0)" xlink:href="#G"/><use transform="matrix(0.008173828125000001,0,0,0.008173828125000001,64.59776367187501,0)" xlink:href="#C"/><use transform="matrix(0.008173828125000001,0,0,0.008173828125000001,74.86409179687502,0)" xlink:href="#r"/><use transform="matrix(0.008173828125000001,0,0,0.008173828125000001,84.62364257812501,0)" xlink:href="#z"/><use transform="matrix(0.008173828125000001,0,0,0.008173828125000001,94.51397460937501,0)" xlink:href="#s"/><use transform="matrix(0.008173828125000001,0,0,0.008173828125000001,100.53808593750001,0)" xlink:href="#r"/><use transform="matrix(0.008173828125000001,0,0,0.008173828125000001,110.29763671875001,0)" xlink:href="#q"/></g></defs></g></svg>