<svg xmlns="http://www.w3.org/2000/svg" width="1397" height="975" viewBox="0 0 1397 975"><defs><style type="text/css"/></defs><g transform="translate(202.85579224644664 356.1) scale(1)"><g class="relationship"><g transform="translate(-77 22) rotate(-37.51631120290279)" stroke-width="5" stroke="#000000"><path d="M 59 0 L 350.4654906854504 0"/><polygon points="-24.8621506177483,0 -27.62461179749811,9.20820393249937 0,0 -27.62461179749811,-9.20820393249937" fill="#000000" transform="translate(375.3276413031987 0) rotate(0)" stroke="none"/></g><g transform="translate(85.38991964440143 -102.67963351507741) rotate(-37.51631120290279) translate(0 -13)"><g transform="translate(0 0)"><g transform="translate(-29.88671875 0)" fill="#ffffff" stroke="#000000" stroke-width="0"><rect x="0" y="0" width="59.7734375" height="26" rx="5" ry="5" stroke="none"/><text xml:space="preserve" x="5" y="17.5" stroke="none" text-anchor="left" font-family="sans-serif" font-size="16" font-weight="normal" fill="#000000">OWNS</text></g></g></g></g><g class="relationship"><g transform="translate(267.5 -242.5) rotate(0)" stroke-width="5" stroke="#000000"><path d="M 59 0 L 350.4654906854504 0"/><polygon points="-24.8621506177483,0 -27.62461179749811,9.20820393249937 0,0 -27.62461179749811,-9.20820393249937" fill="#000000" transform="translate(375.3276413031987 0) rotate(0)" stroke="none"/></g><g transform="translate(472.2327453427252 -242.5) rotate(0) translate(0 -13)"><g transform="translate(0 0)"><g transform="translate(-71.23046875 0)" fill="#ffffff" stroke="#000000" stroke-width="0"><rect x="0" y="0" width="142.4609375" height="26" rx="5" ry="5" stroke="none"/><text xml:space="preserve" x="5" y="17.5" stroke="none" text-anchor="left" font-family="sans-serif" font-size="16" font-weight="normal" fill="#000000">HAS_WATCHLIST</text></g></g></g></g><g class="relationship"><g transform="translate(701.8276413031987 -242.5) rotate(90)" stroke-width="5" stroke="#000000"><path d="M 59 0 L 440.1378493822517 0"/><polygon points="-24.8621506177483,0 -27.62461179749811,9.20820393249937 0,0 -27.62461179749811,-9.20820393249937" fill="#000000" transform="translate(465 0) rotate(0)" stroke="none"/></g><g transform="translate(701.8276413031987 7.068924691125858) rotate(270) translate(0 -22.6)"><g transform="translate(0 0)"><g transform="translate(-45.7421875 0)" fill="#ffffff" stroke="#000000" stroke-width="0"><rect x="0" y="0" width="91.484375" height="26" rx="5" ry="5" stroke="none"/><text xml:space="preserve" x="5" y="17.5" stroke="none" text-anchor="left" font-family="sans-serif" font-size="16" font-weight="normal" fill="#000000">CONTAINS</text></g></g><g transform="translate(0 26)"><g transform="translate(-38.6953125 0)" fill="white"><rect x="0" y="0" width="77.390625" height="19.2" rx="0" ry="0" stroke="none"/><g font-family="sans-serif" font-size="16" font-weight="normal" fill="#000000" text-anchor="end"><text xml:space="preserve" x="68.5" y="14.1" stroke="none">addedAt:</text><text xml:space="preserve" x="72.9453125" y="14.1" stroke="none" text-anchor="start"></text></g></g></g></g></g><g class="relationship"><g transform="translate(267.5 -242.5) rotate(50.3456987627291)" stroke-width="5" stroke="#000000"><path d="M 59 0 L 596.7379522326701 0"/><polygon points="-24.8621506177483,0 -27.62461179749811,9.20820393249937 0,0 -27.62461179749811,-9.20820393249937" fill="#000000" transform="translate(621.6001028504184 0) rotate(0)" stroke="none"/></g><g transform="translate(476.7308808898309 9.929205880855335) rotate(50.3456987627291) translate(0 -41.8)"><g transform="translate(0 0)"><g transform="translate(-47.671875 0)" fill="#ffffff" stroke="#000000" stroke-width="0"><rect x="0" y="0" width="95.34375" height="26" rx="5" ry="5" stroke="none"/><text xml:space="preserve" x="5" y="17.5" stroke="none" text-anchor="left" font-family="sans-serif" font-size="16" font-weight="normal" fill="#000000">REVIEWED</text></g></g><g transform="translate(0 26)"><g transform="translate(-47.578125 0)" fill="white"><rect x="0" y="0" width="95.15625" height="57.599999999999994" rx="0" ry="0" stroke="none"/><g font-family="sans-serif" font-size="16" font-weight="normal" fill="#000000" text-anchor="end"><text xml:space="preserve" x="86.265625" y="14.1" stroke="none">rating:</text><text xml:space="preserve" x="90.7109375" y="14.1" stroke="none" text-anchor="start"></text><text xml:space="preserve" x="86.265625" y="33.3" stroke="none" text-anchor="end">description:</text><text xml:space="preserve" x="90.7109375" y="33.3" stroke="none" text-anchor="start"></text><text xml:space="preserve" x="86.265625" y="52.5" stroke="none" text-anchor="end">createdAt:</text><text xml:space="preserve" x="90.7109375" y="52.5" stroke="none" text-anchor="start"></text></g></g></g></g></g><g class="relationship"><g transform="translate(701.8276413031987 281.5) rotate(0)" stroke-width="5" stroke="#000000"><path d="M 59 0 L 235.810208079053 0"/><polygon points="-24.8621506177483,0 -27.62461179749811,9.20820393249937 0,0 -27.62461179749811,-9.20820393249937" fill="#000000" transform="translate(260.6723586968013 0) rotate(0)" stroke="none"/></g><g transform="translate(849.2327453427251 281.5) rotate(0) translate(0 -13)"><g transform="translate(0 0)"><g transform="translate(-61.46484375 0)" fill="#ffffff" stroke="#000000" stroke-width="0"><rect x="0" y="0" width="122.9296875" height="26" rx="5" ry="5" stroke="none"/><text xml:space="preserve" x="5" y="17.5" stroke="none" text-anchor="left" font-family="sans-serif" font-size="16" font-weight="normal" fill="#000000">HAS_EPISODE</text></g></g></g></g><g class="relationship"><g transform="translate(701.8276413031987 281.5) rotate(-177.8762290778372)" stroke-width="5" stroke="#000000"><path d="M 59 0 L 350.76403323778237 0"/><polygon points="-24.8621506177483,0 -27.62461179749811,9.20820393249937 0,0 -27.62461179749811,-9.20820393249937" fill="#000000" transform="translate(375.62618385553066 0) rotate(0)" stroke="none"/></g><g transform="translate(497.0863571170057 273.90741917315523) rotate(2.123770922162815) translate(0 -13)"><g transform="translate(0 0)"><g transform="translate(-91.9921875 0)" fill="#ffffff" stroke="#000000" stroke-width="0"><rect x="0" y="0" width="183.984375" height="26" rx="5" ry="5" stroke="none"/><text xml:space="preserve" x="5" y="17.5" stroke="none" text-anchor="left" font-family="sans-serif" font-size="16" font-weight="normal" fill="#000000">BELONGS_TO_GENRE</text></g></g></g></g><g class="relationship"><g transform="translate(-77 22) rotate(90)" stroke-width="5" stroke="#000000"><path d="M 59 0 L 281.6378493822517 0"/><polygon points="-24.8621506177483,0 -27.62461179749811,9.20820393249937 0,0 -27.62461179749811,-9.20820393249937" fill="#000000" transform="translate(306.5 0) rotate(0)" stroke="none"/></g><g transform="translate(-76.99999999999999 192.31892469112586) rotate(270) translate(0 -13)"><g transform="translate(0 0)"><g transform="translate(-71.984375 0)" fill="#ffffff" stroke="#000000" stroke-width="0"><rect x="0" y="0" width="143.96875" height="26" rx="5" ry="5" stroke="none"/><text xml:space="preserve" x="5" y="17.5" stroke="none" text-anchor="left" font-family="sans-serif" font-size="16" font-weight="normal" fill="#000000">SUBSCRIBES_TO</text></g></g></g></g><g class="relationship"><g transform="translate(-77 387.5) rotate(-19.516647988074723)" stroke-width="5" stroke="#000000"><path d="M 59 0 L 281.6378493822517 0"/><polygon points="-24.8621506177483,0 -27.62461179749811,9.20820393249937 0,0 -27.62461179749811,-9.20820393249937" fill="#000000" transform="translate(306.5 0) rotate(0)" stroke="none"/></g><g transform="translate(83.53315884019935 330.59972741076956) rotate(-19.516647988074723) translate(0 -13)"><g transform="translate(0 0)"><g transform="translate(-82.21484375 0)" fill="#ffffff" stroke="#000000" stroke-width="0"><rect x="0" y="0" width="164.4296875" height="26" rx="5" ry="5" stroke="none"/><text xml:space="preserve" x="5" y="17.5" stroke="none" text-anchor="left" font-family="sans-serif" font-size="16" font-weight="normal" fill="#000000">GIVES_ACCESS_TO</text></g></g></g></g><g class="relationship"><g transform="translate(367 564.5) rotate(-40.204861852182184)" stroke-width="5" stroke="#000000"><path d="M 59 0 L 354.5423992909673 0"/><polygon points="-24.8621506177483,0 -27.62461179749811,9.20820393249937 0,0 -27.62461179749811,-9.20820393249937" fill="#000000" transform="translate(379.4045499087156 0) rotate(0)" stroke="none"/></g><g transform="translate(524.9196955897144 431.02453878077654) rotate(-40.204861852182184) translate(0 -22.6)"><g transform="translate(0 0)"><g transform="translate(-57.44921875 0)" fill="#ffffff" stroke="#000000" stroke-width="0"><rect x="0" y="0" width="114.8984375" height="26" rx="5" ry="5" stroke="none"/><text xml:space="preserve" x="5" y="17.5" stroke="none" text-anchor="left" font-family="sans-serif" font-size="16" font-weight="normal" fill="#000000">WORKED_ON</text></g></g><g transform="translate(0 26)"><g transform="translate(-22.23046875 0)" fill="white"><rect x="0" y="0" width="44.4609375" height="19.2" rx="0" ry="0" stroke="none"/><g font-family="sans-serif" font-size="16" font-weight="normal" fill="#000000" text-anchor="end"><text xml:space="preserve" x="35.5703125" y="14.1" stroke="none">role:</text><text xml:space="preserve" x="40.015625" y="14.1" stroke="none" text-anchor="start"></text></g></g></g></g></g><g class="node"><g fill="#ffffff" stroke="#000000" stroke-width="4"><circle cx="-77" cy="22" r="52"/></g><g transform="translate(-77 22)"><g transform="scale(0.6056074015478576) translate(0 -27)"><g transform="translate(0 0)"><g transform="translate(-69.2265625 0)"><g fill="#ffffff" stroke="#000000" stroke-width="4"><rect x="0" y="0" width="138.453125" height="54" rx="27" ry="27"/><text xml:space="preserve" x="27" y="37.5" stroke="none" font-family="sans-serif" font-size="40" font-weight="normal" fill="#000000">User</text></g></g></g></g><g transform="translate(-39.597979746446654 -135.59797974644667)"><g transform="translate(0 0)"><g transform="translate(-86.2578125 0)" fill="white"><rect x="0" y="0" width="86.2578125" height="96" rx="0" ry="0" stroke="none"/><g font-family="sans-serif" font-size="16" font-weight="normal" fill="#000000" text-anchor="end"><text xml:space="preserve" x="77.3671875" y="14.1" stroke="none">id:</text><text xml:space="preserve" x="81.8125" y="14.1" stroke="none" text-anchor="start"></text><text xml:space="preserve" x="77.3671875" y="33.3" stroke="none" text-anchor="end">firstName:</text><text xml:space="preserve" x="81.8125" y="33.3" stroke="none" text-anchor="start"></text><text xml:space="preserve" x="77.3671875" y="52.5" stroke="none" text-anchor="end">lastName:</text><text xml:space="preserve" x="81.8125" y="52.5" stroke="none" text-anchor="start"></text><text xml:space="preserve" x="77.3671875" y="71.7" stroke="none" text-anchor="end">email:</text><text xml:space="preserve" x="81.8125" y="71.7" stroke="none" text-anchor="start"></text><text xml:space="preserve" x="77.3671875" y="90.89999999999999" stroke="none" text-anchor="end">password:</text><text xml:space="preserve" x="81.8125" y="90.89999999999999" stroke="none" text-anchor="start"></text></g></g></g></g></g></g><g class="node"><g fill="#ffffff" stroke="#000000" stroke-width="4"><circle cx="267.5" cy="-242.5" r="52"/></g><g transform="translate(267.5 -242.5)"><g transform="scale(0.5117297041133403) translate(0 -27)"><g transform="translate(0 0)"><g transform="translate(-83.689453125 0)"><g fill="#ffffff" stroke="#000000" stroke-width="4"><rect x="0" y="0" width="167.37890625" height="54" rx="27" ry="27"/><text xml:space="preserve" x="27" y="37.5" stroke="none" font-family="sans-serif" font-size="40" font-weight="normal" fill="#000000">Profile</text></g></g></g></g><g transform="translate(3.429011037612589e-15 -113.6)"><g transform="translate(0 0)"><g transform="translate(-32.8984375 0)" fill="white"><rect x="0" y="0" width="65.796875" height="57.599999999999994" rx="0" ry="0" stroke="none"/><g font-family="sans-serif" font-size="16" font-weight="normal" fill="#000000" text-anchor="end"><text xml:space="preserve" x="56.90625" y="14.1" stroke="none">id:</text><text xml:space="preserve" x="61.3515625" y="14.1" stroke="none" text-anchor="start"></text><text xml:space="preserve" x="56.90625" y="33.3" stroke="none" text-anchor="end">name:</text><text xml:space="preserve" x="61.3515625" y="33.3" stroke="none" text-anchor="start"></text><text xml:space="preserve" x="56.90625" y="52.5" stroke="none" text-anchor="end">isChild:</text><text xml:space="preserve" x="61.3515625" y="52.5" stroke="none" text-anchor="start"></text></g></g></g></g></g></g><g class="node"><g fill="#ffffff" stroke="#000000" stroke-width="4"><circle cx="701.8276413031987" cy="-242.5" r="52"/></g><g transform="translate(701.8276413031987 -242.5)"><g transform="scale(0.3839175637800888) translate(0 -27)"><g transform="translate(0 0)"><g transform="translate(-114.060546875 0)"><g fill="#ffffff" stroke="#000000" stroke-width="4"><rect x="0" y="0" width="228.12109375" height="54" rx="27" ry="27"/><text xml:space="preserve" x="27" y="37.5" stroke="none" font-family="sans-serif" font-size="40" font-weight="normal" fill="#000000">WatchList</text></g></g></g></g><g transform="translate(39.59797974644666 -77.99797974644665)"><g transform="translate(0 0)"><g transform="translate(0 0)" fill="white"><rect x="0" y="0" width="80.9296875" height="38.4" rx="0" ry="0" stroke="none"/><g font-family="sans-serif" font-size="16" font-weight="normal" fill="#000000" text-anchor="end"><text xml:space="preserve" x="72.0390625" y="14.1" stroke="none">id:</text><text xml:space="preserve" x="76.484375" y="14.1" stroke="none" text-anchor="start"></text><text xml:space="preserve" x="72.0390625" y="33.3" stroke="none" text-anchor="end">isLocked:</text><text xml:space="preserve" x="76.484375" y="33.3" stroke="none" text-anchor="start"></text></g></g></g></g></g></g><g class="node"><g fill="#ffffff" stroke="#000000" stroke-width="4"><circle cx="701.8276413031987" cy="281.5" r="52"/></g><g transform="translate(701.8276413031987 281.5)"><g transform="scale(0.5242920341306497) translate(0 -27)"><g transform="translate(0 0)"><g transform="translate(-81.47265625 0)"><g fill="#ffffff" stroke="#000000" stroke-width="4"><rect x="0" y="0" width="162.9453125" height="54" rx="27" ry="27"/><text xml:space="preserve" x="27" y="37.5" stroke="none" font-family="sans-serif" font-size="40" font-weight="normal" fill="#000000">Media</text></g></g></g></g><g transform="translate(3.429011037612589e-15 56)"><g transform="translate(0 0)"><g transform="translate(-47.578125 0)" fill="white"><rect x="0" y="0" width="95.15625" height="153.6" rx="0" ry="0" stroke="none"/><g font-family="sans-serif" font-size="16" font-weight="normal" fill="#000000" text-anchor="end"><text xml:space="preserve" x="86.265625" y="14.1" stroke="none">id:</text><text xml:space="preserve" x="90.7109375" y="14.1" stroke="none" text-anchor="start"></text><text xml:space="preserve" x="86.265625" y="33.3" stroke="none" text-anchor="end">name:</text><text xml:space="preserve" x="90.7109375" y="33.3" stroke="none" text-anchor="start"></text><text xml:space="preserve" x="86.265625" y="52.5" stroke="none" text-anchor="end">type:</text><text xml:space="preserve" x="90.7109375" y="52.5" stroke="none" text-anchor="start"></text><text xml:space="preserve" x="86.265625" y="71.7" stroke="none" text-anchor="end">runtime:</text><text xml:space="preserve" x="90.7109375" y="71.7" stroke="none" text-anchor="start"></text><text xml:space="preserve" x="86.265625" y="90.89999999999999" stroke="none" text-anchor="end">description:</text><text xml:space="preserve" x="90.7109375" y="90.89999999999999" stroke="none" text-anchor="start"></text><text xml:space="preserve" x="86.265625" y="110.1" stroke="none" text-anchor="end">cover:</text><text xml:space="preserve" x="90.7109375" y="110.1" stroke="none" text-anchor="start"></text><text xml:space="preserve" x="86.265625" y="129.3" stroke="none" text-anchor="end">ageLimit:</text><text xml:space="preserve" x="90.7109375" y="129.3" stroke="none" text-anchor="start"></text><text xml:space="preserve" x="86.265625" y="148.5" stroke="none" text-anchor="end">release:</text><text xml:space="preserve" x="90.7109375" y="148.5" stroke="none" text-anchor="start"></text></g></g></g></g></g></g><g class="node"><g fill="#ffffff" stroke="#000000" stroke-width="4"><circle cx="1021.5" cy="281.5" r="52"/></g><g transform="translate(1021.5 281.5)"><g transform="scale(0.4373964191736814) translate(0 -27)"><g transform="translate(0 0)"><g transform="translate(-99.275390625 0)"><g fill="#ffffff" stroke="#000000" stroke-width="4"><rect x="0" y="0" width="198.55078125" height="54" rx="27" ry="27"/><text xml:space="preserve" x="27" y="37.5" stroke="none" font-family="sans-serif" font-size="40" font-weight="normal" fill="#000000">Episode</text></g></g></g></g><g transform="translate(56 -67.2)"><g transform="translate(0 0)"><g transform="translate(0 0)" fill="white"><rect x="0" y="0" width="116.5234375" height="134.4" rx="0" ry="0" stroke="none"/><g font-family="sans-serif" font-size="16" font-weight="normal" fill="#000000" text-anchor="end"><text xml:space="preserve" x="107.6328125" y="14.1" stroke="none">id:</text><text xml:space="preserve" x="112.078125" y="14.1" stroke="none" text-anchor="start"></text><text xml:space="preserve" x="107.6328125" y="33.3" stroke="none" text-anchor="end">name:</text><text xml:space="preserve" x="112.078125" y="33.3" stroke="none" text-anchor="start"></text><text xml:space="preserve" x="107.6328125" y="52.5" stroke="none" text-anchor="end">seasonCount:</text><text xml:space="preserve" x="112.078125" y="52.5" stroke="none" text-anchor="start"></text><text xml:space="preserve" x="107.6328125" y="71.7" stroke="none" text-anchor="end">episodeCount:</text><text xml:space="preserve" x="112.078125" y="71.7" stroke="none" text-anchor="start"></text><text xml:space="preserve" x="107.6328125" y="90.89999999999999" stroke="none" text-anchor="end">runtime:</text><text xml:space="preserve" x="112.078125" y="90.89999999999999" stroke="none" text-anchor="start"></text><text xml:space="preserve" x="107.6328125" y="110.1" stroke="none" text-anchor="end">description:</text><text xml:space="preserve" x="112.078125" y="110.1" stroke="none" text-anchor="start"></text><text xml:space="preserve" x="107.6328125" y="129.3" stroke="none" text-anchor="end">release:</text><text xml:space="preserve" x="112.078125" y="129.3" stroke="none" text-anchor="start"></text></g></g></g></g></g></g><g class="node"><g fill="#ffffff" stroke="#000000" stroke-width="4"><circle cx="267.5" cy="265.3934891170827" r="52"/></g><g transform="translate(267.5 265.3934891170827)"><g transform="scale(0.5179111119438962) translate(0 -27)"><g transform="translate(0 0)"><g transform="translate(-82.5859375 0)"><g fill="#ffffff" stroke="#000000" stroke-width="4"><rect x="0" y="0" width="165.171875" height="54" rx="27" ry="27"/><text xml:space="preserve" x="27" y="37.5" stroke="none" font-family="sans-serif" font-size="40" font-weight="normal" fill="#000000">Genre</text></g></g></g></g><g transform="translate(3.429011037612589e-15 -94.4)"><g transform="translate(0 0)"><g transform="translate(-28.90234375 0)" fill="white"><rect x="0" y="0" width="57.8046875" height="38.4" rx="0" ry="0" stroke="none"/><g font-family="sans-serif" font-size="16" font-weight="normal" fill="#000000" text-anchor="end"><text xml:space="preserve" x="48.9140625" y="14.1" stroke="none">id:</text><text xml:space="preserve" x="53.359375" y="14.1" stroke="none" text-anchor="start"></text><text xml:space="preserve" x="48.9140625" y="33.3" stroke="none" text-anchor="end">name:</text><text xml:space="preserve" x="53.359375" y="33.3" stroke="none" text-anchor="start"></text></g></g></g></g></g></g><g class="node"><g fill="#ffffff" stroke="#000000" stroke-width="4"><circle cx="-77" cy="387.5" r="52"/></g><g transform="translate(-77 387.5)"><g transform="scale(0.32213559574887607) translate(0 -27)"><g transform="translate(0 0)"><g transform="translate(-137.05859375 0)"><g fill="#ffffff" stroke="#000000" stroke-width="4"><rect x="0" y="0" width="274.1171875" height="54" rx="27" ry="27"/><text xml:space="preserve" x="27" y="37.5" stroke="none" font-family="sans-serif" font-size="40" font-weight="normal" fill="#000000">Subscription</text></g></g></g></g><g transform="translate(-39.597979746446654 39.59797974644666)"><g transform="translate(0 0)"><g transform="translate(-57.8046875 0)" fill="white"><rect x="0" y="0" width="57.8046875" height="57.599999999999994" rx="0" ry="0" stroke="none"/><g font-family="sans-serif" font-size="16" font-weight="normal" fill="#000000" text-anchor="end"><text xml:space="preserve" x="48.9140625" y="14.1" stroke="none">id:</text><text xml:space="preserve" x="53.359375" y="14.1" stroke="none" text-anchor="start"></text><text xml:space="preserve" x="48.9140625" y="33.3" stroke="none" text-anchor="end">name:</text><text xml:space="preserve" x="53.359375" y="33.3" stroke="none" text-anchor="start"></text><text xml:space="preserve" x="48.9140625" y="52.5" stroke="none" text-anchor="end">price:</text><text xml:space="preserve" x="53.359375" y="52.5" stroke="none" text-anchor="start"></text></g></g></g></g></g></g><g class="node"><g fill="#ffffff" stroke="#000000" stroke-width="4"><circle cx="367" cy="564.5" r="52"/></g><g transform="translate(367 564.5)"><g transform="scale(0.47711749366985773) translate(0 -27)"><g transform="translate(0 0)"><g transform="translate(-90.369140625 0)"><g fill="#ffffff" stroke="#000000" stroke-width="4"><rect x="0" y="0" width="180.73828125" height="54" rx="27" ry="27"/><text xml:space="preserve" x="27" y="37.5" stroke="none" font-family="sans-serif" font-size="40" font-weight="normal" fill="#000000">Person</text></g></g></g></g></g></g></g></svg>