<svg xmlns="http://www.w3.org/2000/svg" xmlns:xlink="http://www.w3.org/1999/xlink" xmlns:lucid="lucid" width="1354.26" height="1591"><g transform="translate(-2806.166327356075 657.0888194721877)" lucid:page-tab-id="0_0"><path d="M3382.54-531.6a5 5 0 0 1 5-5h260a5 5 0 0 1 5 5v240a5 5 0 0 1-5 5h-260a5 5 0 0 1-5-5z" fill="#fff"/><path d="M3382.54-496.6v-35a5 5 0 0 1 5-5h260a5 5 0 0 1 5 5v35" fill="#dedeff"/><path d="M3382.54-496.6v31h270v-31" fill="#fff"/><path d="M3382.54-466.6v31h270v-31" fill="#e6e6e6"/><path d="M3382.54-436.6v31h270v-31" fill="#fff"/><path d="M3382.54-406.6v31h270v-31" fill="#e6e6e6"/><path d="M3382.54-376.6v31h270v-31" fill="#fff"/><path d="M3382.54-346.6v31h270v-31" fill="#e6e6e6"/><path d="M3382.54-316.6v25a5 5 0 0 0 5 5h260a5 5 0 0 0 5-5v-25" fill="#fff"/><path d="M3382.54-496.6h270M3382.54-531.6a5 5 0 0 1 5-5h260a5 5 0 0 1 5 5v240a5 5 0 0 1-5 5h-260a5 5 0 0 1-5-5z" stroke="#282c33" fill="none"/><use xlink:href="#a" transform="matrix(1,0,0,1,3392.539895365661,-536.5888194721877) translate(64.8937548828125 26.089501953125)"/><use xlink:href="#b" transform="matrix(1,0,0,1,3387.539895365661,-494.08881947218765) translate(0 18.589501953125)"/><use xlink:href="#c" transform="matrix(1,0,0,1,3387.539895365661,-464.08881947218765) translate(0 18.589501953125)"/><use xlink:href="#a" transform="matrix(1,0,0,1,3387.539895365661,-434.08881947218765) translate(0 18.589501953125)"/><use xlink:href="#d" transform="matrix(1,0,0,1,3387.539895365661,-404.08881947218765) translate(0 18.589501953125)"/><use xlink:href="#e" transform="matrix(1,0,0,1,3387.539895365661,-374.08881947218765) translate(0 18.589501953125)"/><use xlink:href="#f" transform="matrix(1,0,0,1,3387.539895365661,-344.08881947218765) translate(0 18.589501953125)"/><use xlink:href="#g" transform="matrix(1,0,0,1,3387.539895365661,-314.08881947218765) translate(0 18.589501953125)"/><path d="M3031.9-611.6a5 5 0 0 1 5-5h210a5 5 0 0 1 5 5v120a5 5 0 0 1-5 5h-210a5 5 0 0 1-5-5z" fill="#fff"/><path d="M3031.9-576.6v-35a5 5 0 0 1 5-5h210a5 5 0 0 1 5 5v35" fill="#dedeff"/><path d="M3031.9-576.6v31h220v-31" fill="#fff"/><path d="M3031.9-546.6v31h220v-31" fill="#e6e6e6"/><path d="M3031.9-516.6v25a5 5 0 0 0 5 5h210a5 5 0 0 0 5-5v-25" fill="#fff"/><path d="M3031.9-576.6h220M3031.9-611.6a5 5 0 0 1 5-5h210a5 5 0 0 1 5 5v120a5 5 0 0 1-5 5h-210a5 5 0 0 1-5-5z" stroke="#282c33" fill="none"/><use xlink:href="#b" transform="matrix(1,0,0,1,3041.8872766979293,-616.5888194721877) translate(93.347900390625 26.089501953125)"/><use xlink:href="#b" transform="matrix(1,0,0,1,3036.8872766979293,-574.0888194721877) translate(0 18.589501953125)"/><use xlink:href="#h" transform="matrix(1,0,0,1,3036.8872766979293,-544.0888194721877) translate(0 18.589501953125)"/><use xlink:href="#i" transform="matrix(1,0,0,1,3036.8872766979293,-514.0888194721877) translate(0 18.589501953125)"/><path d="M3272.4-596.6h32.8a12 12 0 0 1 12 12v56.04a12 12 0 0 0 12 12h33.43M3252.4-596.6h20m0 10v-20M3381.82-516.56h-20m20-10l-20 10m20 10l-20-10" stroke="#3a414a" fill="none"/><path d="M3697.32-651.6a5 5 0 0 1 5-5h187.4a5 5 0 0 1 5 5v90a5 5 0 0 1-5 5h-187.4a5 5 0 0 1-5-5z" fill="#fff"/><path d="M3697.32-616.6v-35a5 5 0 0 1 5-5h187.4a5 5 0 0 1 5 5v35" fill="#dedeff"/><path d="M3697.32-616.6v31h197.4v-31" fill="#fff"/><path d="M3697.32-586.6v25a5 5 0 0 0 5 5h187.4a5 5 0 0 0 5-5v-25" fill="#e6e6e6"/><path d="M3697.32-616.6h197.4M3697.32-651.6a5 5 0 0 1 5-5h187.4a5 5 0 0 1 5 5v90a5 5 0 0 1-5 5h-187.4a5 5 0 0 1-5-5z" stroke="#282c33" fill="none"/><use xlink:href="#b" transform="matrix(1,0,0,1,3707.318946023807,-656.5888194721877) translate(81.847900390625 26.089501953125)"/><use xlink:href="#b" transform="matrix(1,0,0,1,3702.318946023807,-614.0888194721877) translate(0 18.589501953125)"/><use xlink:href="#h" transform="matrix(1,0,0,1,3702.318946023807,-584.0888194721877) translate(0 18.589501953125)"/><path d="M3676.82-636.6h-147.28a12 12 0 0 0-12 12v68.1M3696.82-636.6h-20m0-10v20M3517.54-537.3v-20m10 20l-10-20m-10 20l10-20" stroke="#3a414a" fill="none"/><path d="M2817.32 176.5a5 5 0 0 1 5-5h193.9a5 5 0 0 1 5.02 5v120a5 5 0 0 1-5 5H2822.3a5 5 0 0 1-5-5z" fill="#fff"/><path d="M2817.32 211.5v-35a5 5 0 0 1 5-5h193.9a5 5 0 0 1 5.02 5v35" fill="#dedeff"/><path d="M2817.32 211.5v31h203.9l.02-31" fill="#fff"/><path d="M2817.32 241.5v31h203.9l.02-31" fill="#e6e6e6"/><path d="M2817.32 271.5v25a5 5 0 0 0 5 5h193.9a5 5 0 0 0 5.02-5v-25" fill="#fff"/><path d="M2817.32 211.5h203.9M2817.32 176.5a5 5 0 0 1 5-5h193.9a5 5 0 0 1 5.02 5v120a5 5 0 0 1-5 5H2822.3a5 5 0 0 1-5-5z" stroke="#282c33" fill="none"/><use xlink:href="#j" transform="matrix(1,0,0,1,2827.318946023807,171.51198000319857) translate(51.14312011718749 26.089501953125)"/><use xlink:href="#b" transform="matrix(1,0,0,1,2822.318946023807,214.01198000319857) translate(0 18.589501953125)"/><use xlink:href="#j" transform="matrix(1,0,0,1,2822.318946023807,244.01198000319857) translate(0 18.589501953125)"/><use xlink:href="#k" transform="matrix(1,0,0,1,2822.318946023807,274.0119800031986) translate(0 18.589501953125)"/><path d="M3079.93-156.36a5 5 0 0 1 5-5h210a5 5 0 0 1 5 5v120a5 5 0 0 1-5 5h-210a5 5 0 0 1-5-5z" fill="#fff"/><path d="M3079.93-121.36v-35a5 5 0 0 1 5-5h210a5 5 0 0 1 5 5v35" fill="#dedeff"/><path d="M3079.93-121.36v31h220v-31" fill="#fff"/><path d="M3079.93-91.36v31h220v-31" fill="#e6e6e6"/><path d="M3079.93-61.36v25a5 5 0 0 0 5 5h210a5 5 0 0 0 5-5v-25" fill="#fff"/><path d="M3079.93-121.36h220M3079.93-156.36a5 5 0 0 1 5-5h210a5 5 0 0 1 5 5v120a5 5 0 0 1-5 5h-210a5 5 0 0 1-5-5z" stroke="#282c33" fill="none"/><use xlink:href="#l" transform="matrix(1,0,0,1,3089.929420694734,-161.36295202232975) translate(70.89439453124999 26.089501953125)"/><use xlink:href="#b" transform="matrix(1,0,0,1,3084.929420694734,-118.86295202232975) translate(0 18.589501953125)"/><use xlink:href="#h" transform="matrix(1,0,0,1,3084.929420694734,-88.86295202232975) translate(0 18.589501953125)"/><use xlink:href="#m" transform="matrix(1,0,0,1,3084.929420694734,-58.86295202232975) translate(0 18.589501953125)"/><path d="M3517.54-266.1v30.12a12 12 0 0 1-12 12h-303.6a12 12 0 0 0-12 12v30.7M3517.54-286.1v20m-10 0h20M3189.93-162.1v-20m10 20l-10-20m-10 20l10-20M3189.93-10.86V151.6M3189.93-30.86v20m-10 0h20M3189.93 170.8v-20m10 20l-10-20m-10 20l10-20M3189.93-10.86v68.94a12 12 0 0 1-12 12h-246.65a12 12 0 0 0-12 12V151M3189.93-30.86v20m-10 0h20M2919.28 171v-20m10 0h-20" stroke="#3a414a" fill="none"/><path d="M3499.93 168.4a5 5 0 0 1 5-5h230a5 5 0 0 1 5 5v210a5 5 0 0 1-5 5h-230a5 5 0 0 1-5-5z" fill="#fff"/><path d="M3499.93 203.4v-35a5 5 0 0 1 5-5h230a5 5 0 0 1 5 5v35" fill="#dedeff"/><path d="M3499.93 203.4v31h240v-31" fill="#fff"/><path d="M3499.93 233.4v31h240v-31" fill="#e6e6e6"/><path d="M3499.93 263.4v31h240v-31" fill="#fff"/><path d="M3499.93 293.4v31h240v-31" fill="#e6e6e6"/><path d="M3499.93 323.4v31h240v-31" fill="#fff"/><path d="M3499.93 353.4v25a5 5 0 0 0 5 5h230a5 5 0 0 0 5-5v-25" fill="#e6e6e6"/><path d="M3499.93 203.4h240M3499.93 168.4a5 5 0 0 1 5-5h230a5 5 0 0 1 5 5v210a5 5 0 0 1-5 5h-230a5 5 0 0 1-5-5z" stroke="#282c33" fill="none"/><use xlink:href="#n" transform="matrix(1,0,0,1,3509.929420694734,163.41118052781235) translate(81.51829589843749 26.089501953125)"/><use xlink:href="#b" transform="matrix(1,0,0,1,3504.929420694734,205.91118052781235) translate(0 18.589501953125)"/><use xlink:href="#h" transform="matrix(1,0,0,1,3504.929420694734,235.91118052781235) translate(0 18.589501953125)"/><use xlink:href="#o" transform="matrix(1,0,0,1,3504.929420694734,265.91118052781235) translate(0 18.589501953125)"/><use xlink:href="#p" transform="matrix(1,0,0,1,3504.929420694734,295.91118052781235) translate(0 18.589501953125)"/><use xlink:href="#q" transform="matrix(1,0,0,1,3504.929420694734,325.91118052781235) translate(0 18.589501953125)"/><use xlink:href="#r" transform="matrix(1,0,0,1,3504.929420694734,355.91118052781235) translate(0 18.589501953125)"/><path d="M3479.43 183.4h-57.5a12 12 0 0 0-12 12v425.26a12 12 0 0 0 12 12h210.7M3499.43 183.4h-20m0-10v20M3651.82 632.66h-20m20-10l-20 10m20 10l-20-10" stroke="#3a414a" fill="none"/><path d="M3859.93 168.23a5 5 0 0 1 5-5h290a5 5 0 0 1 5 5v210a5 5 0 0 1-5 5h-290a5 5 0 0 1-5-5z" fill="#fff"/><path d="M3859.93 203.23v-35a5 5 0 0 1 5-5h290a5 5 0 0 1 5 5v35" fill="#dedeff"/><path d="M3859.93 203.23v31h300v-31" fill="#fff"/><path d="M3859.93 233.23v31h300v-31" fill="#e6e6e6"/><path d="M3859.93 263.23v31h300v-31" fill="#fff"/><path d="M3859.93 293.23v31h300v-31" fill="#e6e6e6"/><path d="M3859.93 323.23v31h300v-31" fill="#fff"/><path d="M3859.93 353.23v25a5 5 0 0 0 5 5h290a5 5 0 0 0 5-5v-25" fill="#e6e6e6"/><path d="M3859.93 203.23h300M3859.93 168.23a5 5 0 0 1 5-5h290a5 5 0 0 1 5 5v210a5 5 0 0 1-5 5h-290a5 5 0 0 1-5-5z" stroke="#282c33" fill="none"/><use xlink:href="#s" transform="matrix(1,0,0,1,3869.929420694734,163.2293197313594) translate(104.608720703125 26.089501953125)"/><use xlink:href="#b" transform="matrix(1,0,0,1,3864.929420694734,205.7293197313594) translate(0 18.589501953125)"/><use xlink:href="#t" transform="matrix(1,0,0,1,3864.929420694734,235.7293197313594) translate(0 18.589501953125)"/><use xlink:href="#h" transform="matrix(1,0,0,1,3864.929420694734,265.7293197313594) translate(0 18.589501953125)"/><use xlink:href="#u" transform="matrix(1,0,0,1,3864.929420694734,295.7293197313594) translate(0 18.589501953125)"/><use xlink:href="#p" transform="matrix(1,0,0,1,3864.929420694734,325.7293197313594) translate(0 18.589501953125)"/><use xlink:href="#q" transform="matrix(1,0,0,1,3864.929420694734,355.7293197313594) translate(0 18.589501953125)"/><path d="M3736-211.6a5 5 0 0 1 5-5h172.62a5 5 0 0 1 5 5v90a5 5 0 0 1-5 5h-172.6a5 5 0 0 1-5-5z" fill="#fff"/><path d="M3736-176.6v-35a5 5 0 0 1 5-5h172.62a5 5 0 0 1 5 5v35" fill="#dedeff"/><path d="M3736-176.6v31h182.62v-31" fill="#fff"/><path d="M3736-146.6v25a5 5 0 0 0 5 5h172.62a5 5 0 0 0 5-5v-25" fill="#e6e6e6"/><path d="M3736-176.6h182.62M3736-211.6a5 5 0 0 1 5-5h172.62a5 5 0 0 1 5 5v90a5 5 0 0 1-5 5h-172.6a5 5 0 0 1-5-5z" stroke="#282c33" fill="none"/><use xlink:href="#v" transform="matrix(1,0,0,1,3746.013708688343,-216.58881947218765) translate(54.232109375 26.089501953125)"/><use xlink:href="#b" transform="matrix(1,0,0,1,3741.013708688343,-174.08881947218765) translate(0 18.589501953125)"/><use xlink:href="#h" transform="matrix(1,0,0,1,3741.013708688343,-144.08881947218765) translate(0 18.589501953125)"/><path d="M3665.37 748.4a5 5 0 0 1 5-5h189.56a5 5 0 0 1 5 5v180a5 5 0 0 1-5 5h-189.56a5 5 0 0 1-5-5z" fill="#fff"/><path d="M3665.37 783.4v-35a5 5 0 0 1 5-5h189.56a5 5 0 0 1 5 5v35" fill="#dedeff"/><path d="M3665.37 783.4v31h199.56v-31" fill="#fff"/><path d="M3665.37 813.4v31h199.56v-31" fill="#e6e6e6"/><path d="M3665.37 843.4v31h199.56v-31" fill="#fff"/><path d="M3665.37 873.4v31h199.56v-31" fill="#e6e6e6"/><path d="M3665.37 903.4v25a5 5 0 0 0 5 5h189.56a5 5 0 0 0 5-5v-25" fill="#fff"/><path d="M3665.37 783.4h199.56M3665.37 748.4a5 5 0 0 1 5-5h189.56a5 5 0 0 1 5 5v180a5 5 0 0 1-5 5h-189.56a5 5 0 0 1-5-5z" stroke="#282c33" fill="none"/><use xlink:href="#w" transform="matrix(1,0,0,1,3675.371319378443,743.4111805278123) translate(58.0444189453125 26.089501953125)"/><use xlink:href="#b" transform="matrix(1,0,0,1,3670.371319378443,785.9111805278123) translate(0 18.589501953125)"/><use xlink:href="#d" transform="matrix(1,0,0,1,3670.371319378443,815.9111805278123) translate(0 18.589501953125)"/><use xlink:href="#e" transform="matrix(1,0,0,1,3670.371319378443,845.9111805278123) translate(0 18.589501953125)"/><use xlink:href="#x" transform="matrix(1,0,0,1,3670.371319378443,875.9111805278123) translate(0 18.589501953125)"/><use xlink:href="#y" transform="matrix(1,0,0,1,3670.371319378443,905.9111805278123) translate(0 18.589501953125)"/><path d="M3959.93 528.4a5 5 0 0 1 5-5h190a5 5 0 0 1 5 5v90a5 5 0 0 1-5 5h-190a5 5 0 0 1-5-5z" fill="#fff"/><path d="M3959.93 563.4v-35a5 5 0 0 1 5-5h190a5 5 0 0 1 5 5v35" fill="#dedeff"/><path d="M3959.93 563.4v31h200v-31" fill="#fff"/><path d="M3959.93 593.4v25a5 5 0 0 0 5 5h190a5 5 0 0 0 5-5v-25" fill="#e6e6e6"/><path d="M3959.93 563.4h200M3959.93 528.4a5 5 0 0 1 5-5h190a5 5 0 0 1 5 5v90a5 5 0 0 1-5 5h-190a5 5 0 0 1-5-5z" stroke="#282c33" fill="none"/><use xlink:href="#z" transform="matrix(1,0,0,1,3969.929420694734,523.4111805278123) translate(70.644375 26.089501953125)"/><use xlink:href="#b" transform="matrix(1,0,0,1,3964.929420694734,565.9111805278123) translate(0 18.589501953125)"/><use xlink:href="#h" transform="matrix(1,0,0,1,3964.929420694734,595.9111805278123) translate(0 18.589501953125)"/><path d="M3652.54 617.66a5 5 0 0 1 5-5h215.22a5 5 0 0 1 5 5v30a5 5 0 0 1-5 5h-215.22a5 5 0 0 1-5-5z" fill="#fff"/><path d="M3652.54 652.66v-35a5 5 0 0 1 5-5h215.22a5 5 0 0 1 5 5v35" fill="#e3fae3"/><path d="M3652.54 652.66v1h225.22v-1" fill="#fff"/><path d="M3652.54 652.66v1h225.22v-1" fill="#fff"/><path d="M3652.54 652.66v1h225.22v-1" fill="#fff"/><path d="M3652.54 652.66v1h225.22v-1M3652.54 652.66h225.22" fill="#fff"/><path d="M3652.54 652.66h225.22M3652.54 617.66a5 5 0 0 1 5-5h215.22a5 5 0 0 1 5 5v30a5 5 0 0 1-5 5h-215.22a5 5 0 0 1-5-5zM3712.54 652.66" stroke="#282c33" fill="none"/><use xlink:href="#A" transform="matrix(1,0,0,1,3662.539895365661,612.6624823362706) translate(15.008740234374997 26.089501953125)"/><path d="M3765.15 722.9v-50.33M3765.15 742.9v-20m10 0h-20M3765.15 653.4v20m-10-20l10 20m10-20l-10 20M3939.43 543.4h-8.6a12 12 0 0 0-12 12v65.26a12 12 0 0 1-12 12h-9.16M3959.43 543.4h-20m0-10v20M3878.48 632.66h20m-20 10l20-10m-20-10l20 10M3479.43 183.4h-57.5a12 12 0 0 0-12 12v425.26a12 12 0 0 1-12 12H3051.8M3499.2 183.4h-20m20-10l-20 10m20 10l-20-10m0-10v20M3032.6 632.66h20m-20 10l20-10m-20-10l20 10" stroke="#3a414a" fill="none"/><path d="M2806.67 617.66a5 5 0 0 1 5-5h215.22a5 5 0 0 1 5 5v30a5 5 0 0 1-5 5h-215.23a5 5 0 0 1-5-5z" fill="#fff"/><path d="M2806.67 652.66v-35a5 5 0 0 1 5-5h215.22a5 5 0 0 1 5 5v35" fill="#e3fae3"/><path d="M2806.67 652.66v1h225.22v-1" fill="#fff"/><path d="M2806.67 652.66v1h225.22v-1" fill="#fff"/><path d="M2806.67 652.66v1h225.22v-1" fill="#fff"/><path d="M2806.67 652.66v1h225.22v-1M2806.67 652.66h225.22" fill="#fff"/><path d="M2806.67 652.66h225.22M2806.67 617.66a5 5 0 0 1 5-5h215.22a5 5 0 0 1 5 5v30a5 5 0 0 1-5 5h-215.23a5 5 0 0 1-5-5zM2866.67 652.66" stroke="#282c33" fill="none"/><use xlink:href="#B" transform="matrix(1,0,0,1,2816.666327356075,612.6624823362706) translate(26.836269531249997 26.089501953125)"/><path d="M2919.28 322v270.75M2919.28 302v20m-10 0h20M2919.28 611.94v-20m10 20l-10-20m-10 20l10-20" stroke="#3a414a" fill="none"/><path d="M3099.93 176.5a5 5 0 0 1 5-5h170a5 5 0 0 1 5 5v150a5 5 0 0 1-5 5h-170a5 5 0 0 1-5-5z" fill="#fff"/><path d="M3099.93 211.5v-35a5 5 0 0 1 5-5h170a5 5 0 0 1 5 5v35" fill="#dedeff"/><path d="M3099.93 211.5v31h180v-31" fill="#fff"/><path d="M3099.93 241.5v31h180v-31" fill="#e6e6e6"/><path d="M3099.93 271.5v31h180v-31" fill="#fff"/><path d="M3099.93 301.5v25a5 5 0 0 0 5 5h170a5 5 0 0 0 5-5v-25" fill="#e6e6e6"/><path d="M3099.93 211.5h180M3099.93 176.5a5 5 0 0 1 5-5h170a5 5 0 0 1 5 5v150a5 5 0 0 1-5 5h-170a5 5 0 0 1-5-5z" stroke="#282c33" fill="none"/><use xlink:href="#C" transform="matrix(1,0,0,1,3109.929420694734,171.51198000319857) translate(49.54431640625 26.089501953125)"/><use xlink:href="#b" transform="matrix(1,0,0,1,3104.929420694734,214.01198000319857) translate(0 18.589501953125)"/><use xlink:href="#j" transform="matrix(1,0,0,1,3104.929420694734,244.01198000319857) translate(0 18.589501953125)"/><use xlink:href="#D" transform="matrix(1,0,0,1,3104.929420694734,274.0119800031986) translate(0 18.589501953125)"/><use xlink:href="#E" transform="matrix(1,0,0,1,3104.929420694734,304.0119800031986) translate(0 18.589501953125)"/><path d="M3619.93 143.5V15.4a12 12 0 0 1 12-12h62.87M3619.93 162.7v-20m10 20l-10-20m-10 20l10-20M3714 3.4h-20m20-10l-20 10m20 10l-20-10M3827.32-96.68v60.18M3827.32-115.86v20m-10-20l10 20m10-20l-10 20M3827.32-17.3v-20m10 20l-10-20m-10 20l10-20M3619.93 143.5V15.4a12 12 0 0 0-12-12h-252.9a12 12 0 0 0-12 12v456a12 12 0 0 1-12 12h-8.58M3619.93 162.7v-20m10 20l-10-20m-10 20l10-20M3303.26 483.4h20m-20 10l20-10m-20-10l20 10" stroke="#3a414a" fill="none"/><path d="M3077.32 468.4a5 5 0 0 1 5-5h215.22a5 5 0 0 1 5 5v30a5 5 0 0 1-5 5h-215.22a5 5 0 0 1-5-5z" fill="#fff"/><path d="M3077.32 503.4v-35a5 5 0 0 1 5-5h215.22a5 5 0 0 1 5 5v35" fill="#e3fae3"/><path d="M3077.32 503.4v1h225.22v-1" fill="#fff"/><path d="M3077.32 503.4v1h225.22v-1" fill="#fff"/><path d="M3077.32 503.4v1h225.22v-1" fill="#fff"/><path d="M3077.32 503.4v1h225.22v-1M3077.32 503.4h225.22" fill="#fff"/><path d="M3077.32 503.4h225.22M3077.32 468.4a5 5 0 0 1 5-5h215.22a5 5 0 0 1 5 5v30a5 5 0 0 1-5 5h-215.22a5 5 0 0 1-5-5zM3137.32 503.4" stroke="#282c33" fill="none"/><use xlink:href="#F" transform="matrix(1,0,0,1,3087.318946023807,463.41118052781235) translate(39.9634375 26.089501953125)"/><path d="M3714.7-11.6a5 5 0 0 1 5-5h215.23a5 5 0 0 1 5 5v30a5 5 0 0 1-5 5H3719.7a5 5 0 0 1-5-5z" fill="#fff"/><path d="M3714.7 23.4v-35a5 5 0 0 1 5-5h215.23a5 5 0 0 1 5 5v35" fill="#e3fae3"/><path d="M3714.7 23.4v1h225.23v-1" fill="#fff"/><path d="M3714.7 23.4v1h225.23v-1" fill="#fff"/><path d="M3714.7 23.4v1h225.23v-1" fill="#fff"/><path d="M3714.7 23.4v1h225.23v-1M3714.7 23.4h225.23" fill="#fff"/><path d="M3714.7 23.4h225.23M3714.7-11.6a5 5 0 0 1 5-5h215.23a5 5 0 0 1 5 5v30a5 5 0 0 1-5 5H3719.7a5 5 0 0 1-5-5zM3774.7 23.4" stroke="#282c33" fill="none"/><use xlink:href="#G" transform="matrix(1,0,0,1,3724.7084713528793,-16.58881947218765) translate(43.43322753906249 26.089501953125)"/><path d="M3189.93 351.42v92.08M3189.93 332.24v20m-10-20l10 20m10-20l-10 20M3189.93 462.7v-20m10 20l-10-20m-10 20l10-20M3760.43 183.4h39.4a.1.1 0 0 0 .1-.08.1.1 0 0 1 .1-.1h19.4M3740.43 183.4h20m0 10v-20" stroke="#3a414a" fill="none"/><path d="M3859.2 183.23h-20m20-10l-20 10m20 10l-20-10m0 0c0 5.52-4.47 10-10 10-5.52 0-10-4.48-10-10s4.48-10 10-10c5.53 0 10 4.48 10 10z" stroke="#3a414a" fill="#fff"/><defs><path d="M538 24C308 24 148-78 108-271l171-41c32 123 123 178 257 178 156 0 256-77 256-169 0-77-54-128-164-154l-186-44c-203-48-300-148-300-305 0-192 176-326 414-326 230 0 351 112 402 269l-163 42c-31-80-94-158-238-158-133 0-233 69-233 162 0 83 57 129 188 160l169 40c203 48 298 149 298 302 0 196-179 339-441 339" id="H"/><path d="M537 14c-226 0-379-139-379-422v-710h180v695c0 172 97 275 253 275 160 0 281-109 281-300v-670h181V0H879v-209C806-46 684 14 537 14" id="I"/><path d="M677 24c-213 0-288-135-325-197h-20V0H158v-1490h180v551h14c37-59 106-193 324-193 279 0 474 222 474 576 0 356-194 580-473 580zm-27-161c209 0 317-186 317-421 0-232-105-413-317-413-206 0-314 166-314 413 0 249 111 421 314 421" id="J"/><path d="M613 24c-304 0-509-231-509-576 0-350 205-580 509-580 216 0 392 114 453 309l-173 49c-33-115-133-197-280-197-223 0-326 196-326 419 0 220 103 415 326 415 150 0 252-85 285-206l172 49C1010-95 832 24 613 24" id="K"/><path d="M158 0v-1118h174v172h12c41-113 157-188 290-188 26 0 70 2 91 3v181c-11-2-60-10-108-10-161 0-279 109-279 260V0H158" id="L"/><path d="M158 0v-1118h180V0H158zm91-1301c-68 0-125-53-125-119s57-119 125-119c69 0 126 53 126 119s-57 119-126 119" id="M"/><path d="M158 418v-1536h174v179h20c37-59 106-193 324-193 279 0 474 222 474 576 0 356-194 580-473 580-213 0-288-135-325-197h-14v591H158zm492-555c209 0 317-186 317-421 0-232-105-413-317-413-206 0-314 166-314 413 0 249 111 421 314 421" id="N"/><path d="M598-1118v154H368v674c0 100 37 144 132 144 23 0 62-6 92-12L629-6c-37 13-88 20-134 20-193 0-307-107-307-290v-688H20v-154h168v-266h180v266h230" id="O"/><path d="M613 24c-304 0-509-231-509-576 0-350 205-580 509-580 305 0 511 230 511 580 0 345-206 576-511 576zm0-161c226 0 329-195 329-415 0-222-103-419-329-419-223 0-326 196-326 419 0 220 103 415 326 415" id="P"/><path d="M338-670V0H158v-1118h173l1 207c72-158 192-221 342-221 226 0 378 139 378 422V0H872v-695c0-172-96-275-252-275-161 0-282 109-282 300" id="Q"/><path d="M934 0v166H0V0h934" id="R"/><path d="M577 24c-279 0-473-224-473-580 0-354 195-576 474-576 218 0 287 134 324 193h14v-551h180V0H922v-173h-20C865-111 790 24 577 24zm27-161c203 0 314-172 314-421 0-247-108-413-314-413-212 0-317 181-317 413 0 235 108 421 317 421" id="S"/><g id="a"><use transform="matrix(0.008173828125000001,0,0,0.008173828125000001,0,0)" xlink:href="#H"/><use transform="matrix(0.008173828125000001,0,0,0.008173828125000001,8.835908203125001,0)" xlink:href="#I"/><use transform="matrix(0.008173828125000001,0,0,0.008173828125000001,18.7344140625,0)" xlink:href="#J"/><use transform="matrix(0.008173828125000001,0,0,0.008173828125000001,28.984394531250004,0)" xlink:href="#H"/><use transform="matrix(0.008173828125000001,0,0,0.008173828125000001,37.820302734375005,0)" xlink:href="#K"/><use transform="matrix(0.008173828125000001,0,0,0.008173828125000001,47.38368164062501,0)" xlink:href="#L"/><use transform="matrix(0.008173828125000001,0,0,0.008173828125000001,53.947265625,0)" xlink:href="#M"/><use transform="matrix(0.008173828125000001,0,0,0.008173828125000001,58.001484375000004,0)" xlink:href="#N"/><use transform="matrix(0.008173828125000001,0,0,0.008173828125000001,68.25146484375,0)" xlink:href="#O"/><use transform="matrix(0.008173828125000001,0,0,0.008173828125000001,73.7279296875,0)" xlink:href="#M"/><use transform="matrix(0.008173828125000001,0,0,0.008173828125000001,77.7821484375,0)" xlink:href="#P"/><use transform="matrix(0.008173828125000001,0,0,0.008173828125000001,87.819609375,0)" xlink:href="#Q"/><use transform="matrix(0.008173828125000001,0,0,0.008173828125000001,97.70994140625,0)" xlink:href="#R"/><use transform="matrix(0.008173828125000001,0,0,0.008173828125000001,105.908291015625,0)" xlink:href="#M"/><use transform="matrix(0.008173828125000001,0,0,0.008173828125000001,109.962509765625,0)" xlink:href="#S"/></g><g id="b"><use transform="matrix(0.008173828125000001,0,0,0.008173828125000001,0,0)" xlink:href="#M"/><use transform="matrix(0.008173828125000001,0,0,0.008173828125000001,4.05421875,0)" xlink:href="#S"/></g><path d="M481 0L54-1118h197c107 314 236 620 325 951 87-331 217-637 324-951h197L670 0H481" id="T"/><path d="M338-1490V0H158v-1490h180" id="U"/><path d="M628 24c-324 0-524-230-524-574 0-343 198-582 503-582 237 0 487 146 487 559v75H286c9 234 145 362 343 362 132 0 231-58 273-172l174 48C1024-91 857 24 628 24zM287-650h624c-17-190-120-322-304-322-192 0-309 151-320 322" id="V"/><path d="M611 442c-248 0-391-105-460-228l146-94c47 65 117 165 314 165 178 0 307-82 307-266v-224h-17C863-141 792-18 576-18c-268 0-472-195-472-546 0-346 197-568 476-568 216 0 288 133 326 193h17v-179h175V29c0 289-215 413-487 413zm-5-620c203 0 314-146 314-390 0-237-108-403-314-403-213 0-319 180-319 403 0 230 109 390 319 390" id="W"/><g id="c"><use transform="matrix(0.008173828125000001,0,0,0.008173828125000001,0,0)" xlink:href="#N"/><use transform="matrix(0.008173828125000001,0,0,0.008173828125000001,10.249980468750001,0)" xlink:href="#L"/><use transform="matrix(0.008173828125000001,0,0,0.008173828125000001,16.813564453125004,0)" xlink:href="#M"/><use transform="matrix(0.008173828125000001,0,0,0.008173828125000001,20.867783203125004,0)" xlink:href="#T"/><use transform="matrix(0.008173828125000001,0,0,0.008173828125000001,30.275859375000003,0)" xlink:href="#M"/><use transform="matrix(0.008173828125000001,0,0,0.008173828125000001,34.330078125,0)" xlink:href="#U"/><use transform="matrix(0.008173828125000001,0,0,0.008173828125000001,38.384296875000004,0)" xlink:href="#V"/><use transform="matrix(0.008173828125000001,0,0,0.008173828125000001,48.14384765625,0)" xlink:href="#W"/><use transform="matrix(0.008173828125000001,0,0,0.008173828125000001,58.410175781250004,0)" xlink:href="#V"/><use transform="matrix(0.008173828125000001,0,0,0.008173828125000001,68.1697265625,0)" xlink:href="#H"/><use transform="matrix(0.008173828125000001,0,0,0.008173828125000001,77.005634765625,0)" xlink:href="#R"/><use transform="matrix(0.008173828125000001,0,0,0.008173828125000001,85.203984375,0)" xlink:href="#M"/><use transform="matrix(0.008173828125000001,0,0,0.008173828125000001,89.25820312500001,0)" xlink:href="#S"/></g><path d="M678-1118v154H420V0H240v-964H20v-154h220v-149c0-194 155-293 318-293 85 0 141 18 168 30l-50 154c-19-6-47-17-97-17-111 0-159 58-159 166v109h258" id="X"/><path d="M471 26C259 26 90-98 90-318c0-256 228-303 435-329 202-27 287-16 287-108 0-139-79-219-234-219-161 0-248 86-283 164l-173-57c86-203 278-265 451-265 150 0 419 46 419 395V0H815v-152h-12C765-73 660 26 471 26zm31-159c199 0 310-134 310-271v-155c-30 35-226 55-295 64-131 17-246 59-246 186 0 116 97 176 231 176" id="Y"/><path d="M158 0v-1118h175l1 205c55-151 181-225 313-225 147 0 245 90 285 228 53-141 190-228 352-228 194 0 352 125 352 384V0h-181v-749c0-161-105-225-225-225-151 0-243 103-243 244V0H807v-767c0-124-93-207-219-207-131 0-250 92-250 270V0H158" id="Z"/><g id="d"><use transform="matrix(0.008173828125000001,0,0,0.008173828125000001,0,0)" xlink:href="#X"/><use transform="matrix(0.008173828125000001,0,0,0.008173828125000001,6.195761718750001,0)" xlink:href="#M"/><use transform="matrix(0.008173828125000001,0,0,0.008173828125000001,10.249980468750001,0)" xlink:href="#L"/><use transform="matrix(0.008173828125000001,0,0,0.008173828125000001,16.552001953125,0)" xlink:href="#H"/><use transform="matrix(0.008173828125000001,0,0,0.008173828125000001,25.387910156249998,0)" xlink:href="#O"/><use transform="matrix(0.008173828125000001,0,0,0.008173828125000001,30.864375000000003,0)" xlink:href="#R"/><use transform="matrix(0.008173828125000001,0,0,0.008173828125000001,39.062724609375,0)" xlink:href="#Q"/><use transform="matrix(0.008173828125000001,0,0,0.008173828125000001,48.95305664062501,0)" xlink:href="#Y"/><use transform="matrix(0.008173828125000001,0,0,0.008173828125000001,58.35295898437501,0)" xlink:href="#Z"/><use transform="matrix(0.008173828125000001,0,0,0.008173828125000001,73.016806640625,0)" xlink:href="#V"/></g><g id="e"><use transform="matrix(0.008173828125000001,0,0,0.008173828125000001,0,0)" xlink:href="#U"/><use transform="matrix(0.008173828125000001,0,0,0.008173828125000001,4.05421875,0)" xlink:href="#Y"/><use transform="matrix(0.008173828125000001,0,0,0.008173828125000001,13.454121093750002,0)" xlink:href="#H"/><use transform="matrix(0.008173828125000001,0,0,0.008173828125000001,22.290029296875005,0)" xlink:href="#O"/><use transform="matrix(0.008173828125000001,0,0,0.008173828125000001,27.766494140625007,0)" xlink:href="#R"/><use transform="matrix(0.008173828125000001,0,0,0.008173828125000001,35.96484375000001,0)" xlink:href="#Q"/><use transform="matrix(0.008173828125000001,0,0,0.008173828125000001,45.85517578125001,0)" xlink:href="#Y"/><use transform="matrix(0.008173828125000001,0,0,0.008173828125000001,55.25507812500001,0)" xlink:href="#Z"/><use transform="matrix(0.008173828125000001,0,0,0.008173828125000001,69.91892578125001,0)" xlink:href="#V"/></g><g id="f"><use transform="matrix(0.008173828125000001,0,0,0.008173828125000001,0,0)" xlink:href="#V"/><use transform="matrix(0.008173828125000001,0,0,0.008173828125000001,9.75955078125,0)" xlink:href="#Z"/><use transform="matrix(0.008173828125000001,0,0,0.008173828125000001,24.42339843750001,0)" xlink:href="#Y"/><use transform="matrix(0.008173828125000001,0,0,0.008173828125000001,33.823300781250005,0)" xlink:href="#M"/><use transform="matrix(0.008173828125000001,0,0,0.008173828125000001,37.87751953125,0)" xlink:href="#U"/></g><path d="M409 0L70-1118h191c89 329 165 560 243 925 75-353 154-601 240-925h192c85 325 161 564 235 922 77-354 157-598 244-922h191L1267 0h-179c-86-307-176-590-250-913C763-588 675-308 588 0H409" id="aa"/><path d="M338-670V0H158v-1490h180v566c73-149 190-208 336-208 226 0 379 139 379 422V0H872v-695c0-172-96-275-252-275-161 0-282 109-282 300" id="ab"/><g id="g"><use transform="matrix(0.008173828125000001,0,0,0.008173828125000001,0,0)" xlink:href="#N"/><use transform="matrix(0.008173828125000001,0,0,0.008173828125000001,10.413457031250001,0)" xlink:href="#Y"/><use transform="matrix(0.008173828125000001,0,0,0.008173828125000001,19.813359375000005,0)" xlink:href="#H"/><use transform="matrix(0.008173828125000001,0,0,0.008173828125000001,28.649267578125006,0)" xlink:href="#H"/><use transform="matrix(0.008173828125000001,0,0,0.008173828125000001,37.48517578125001,0)" xlink:href="#aa"/><use transform="matrix(0.008173828125000001,0,0,0.008173828125000001,50.88208007812501,0)" xlink:href="#P"/><use transform="matrix(0.008173828125000001,0,0,0.008173828125000001,60.91954101562501,0)" xlink:href="#L"/><use transform="matrix(0.008173828125000001,0,0,0.008173828125000001,66.94365234375,0)" xlink:href="#S"/><use transform="matrix(0.008173828125000001,0,0,0.008173828125000001,77.1936328125,0)" xlink:href="#R"/><use transform="matrix(0.008173828125000001,0,0,0.008173828125000001,85.391982421875,0)" xlink:href="#ab"/><use transform="matrix(0.008173828125000001,0,0,0.008173828125000001,95.29048828125,0)" xlink:href="#Y"/><use transform="matrix(0.008173828125000001,0,0,0.008173828125000001,104.690390625,0)" xlink:href="#H"/><use transform="matrix(0.008173828125000001,0,0,0.008173828125000001,113.52629882812501,0)" xlink:href="#ab"/></g><g id="h"><use transform="matrix(0.008173828125000001,0,0,0.008173828125000001,0,0)" xlink:href="#Q"/><use transform="matrix(0.008173828125000001,0,0,0.008173828125000001,9.89033203125,0)" xlink:href="#Y"/><use transform="matrix(0.008173828125000001,0,0,0.008173828125000001,19.290234375000004,0)" xlink:href="#Z"/><use transform="matrix(0.008173828125000001,0,0,0.008173828125000001,33.95408203125001,0)" xlink:href="#V"/></g><g id="i"><use transform="matrix(0.008173828125000001,0,0,0.008173828125000001,0,0)" xlink:href="#N"/><use transform="matrix(0.008173828125000001,0,0,0.008173828125000001,10.249980468750001,0)" xlink:href="#L"/><use transform="matrix(0.008173828125000001,0,0,0.008173828125000001,16.813564453125004,0)" xlink:href="#M"/><use transform="matrix(0.008173828125000001,0,0,0.008173828125000001,20.867783203125004,0)" xlink:href="#K"/><use transform="matrix(0.008173828125000001,0,0,0.008173828125000001,30.43116210937501,0)" xlink:href="#V"/></g><g id="j"><use transform="matrix(0.008173828125000001,0,0,0.008173828125000001,0,0)" xlink:href="#N"/><use transform="matrix(0.008173828125000001,0,0,0.008173828125000001,10.249980468750001,0)" xlink:href="#L"/><use transform="matrix(0.008173828125000001,0,0,0.008173828125000001,16.274091796875002,0)" xlink:href="#P"/><use transform="matrix(0.008173828125000001,0,0,0.008173828125000001,26.311552734375002,0)" xlink:href="#X"/><use transform="matrix(0.008173828125000001,0,0,0.008173828125000001,32.507314453125005,0)" xlink:href="#M"/><use transform="matrix(0.008173828125000001,0,0,0.008173828125000001,36.56153320312501,0)" xlink:href="#U"/><use transform="matrix(0.008173828125000001,0,0,0.008173828125000001,40.61575195312501,0)" xlink:href="#V"/><use transform="matrix(0.008173828125000001,0,0,0.008173828125000001,50.37530273437501,0)" xlink:href="#H"/><use transform="matrix(0.008173828125000001,0,0,0.008173828125000001,59.21121093750001,0)" xlink:href="#R"/><use transform="matrix(0.008173828125000001,0,0,0.008173828125000001,67.40956054687501,0)" xlink:href="#M"/><use transform="matrix(0.008173828125000001,0,0,0.008173828125000001,71.46377929687502,0)" xlink:href="#S"/></g><path d="M158 0v-1490h180v865h22l478-493h223L593-638 1096 0H865L456-523 338-412V0H158" id="ac"/><g id="k"><use transform="matrix(0.008173828125000001,0,0,0.008173828125000001,0,0)" xlink:href="#M"/><use transform="matrix(0.008173828125000001,0,0,0.008173828125000001,4.05421875,0)" xlink:href="#H"/><use transform="matrix(0.008173828125000001,0,0,0.008173828125000001,12.890126953125002,0)" xlink:href="#R"/><use transform="matrix(0.008173828125000001,0,0,0.008173828125000001,21.088476562500002,0)" xlink:href="#U"/><use transform="matrix(0.008173828125000001,0,0,0.008173828125000001,25.142695312500003,0)" xlink:href="#P"/><use transform="matrix(0.008173828125000001,0,0,0.008173828125000001,35.18015625,0)" xlink:href="#K"/><use transform="matrix(0.008173828125000001,0,0,0.008173828125000001,44.743535156250005,0)" xlink:href="#ac"/><use transform="matrix(0.008173828125000001,0,0,0.008173828125000001,53.554921875000005,0)" xlink:href="#V"/><use transform="matrix(0.008173828125000001,0,0,0.008173828125000001,63.314472656250004,0)" xlink:href="#S"/></g><g id="l"><use transform="matrix(0.008173828125000001,0,0,0.008173828125000001,0,0)" xlink:href="#N"/><use transform="matrix(0.008173828125000001,0,0,0.008173828125000001,10.249980468750001,0)" xlink:href="#L"/><use transform="matrix(0.008173828125000001,0,0,0.008173828125000001,16.274091796875002,0)" xlink:href="#P"/><use transform="matrix(0.008173828125000001,0,0,0.008173828125000001,26.311552734375002,0)" xlink:href="#X"/><use transform="matrix(0.008173828125000001,0,0,0.008173828125000001,32.507314453125005,0)" xlink:href="#M"/><use transform="matrix(0.008173828125000001,0,0,0.008173828125000001,36.56153320312501,0)" xlink:href="#U"/><use transform="matrix(0.008173828125000001,0,0,0.008173828125000001,40.61575195312501,0)" xlink:href="#V"/><use transform="matrix(0.008173828125000001,0,0,0.008173828125000001,50.37530273437501,0)" xlink:href="#H"/></g><g id="m"><use transform="matrix(0.008173828125000001,0,0,0.008173828125000001,0,0)" xlink:href="#M"/><use transform="matrix(0.008173828125000001,0,0,0.008173828125000001,4.05421875,0)" xlink:href="#H"/><use transform="matrix(0.008173828125000001,0,0,0.008173828125000001,12.890126953125002,0)" xlink:href="#R"/><use transform="matrix(0.008173828125000001,0,0,0.008173828125000001,20.524482421875003,0)" xlink:href="#K"/><use transform="matrix(0.008173828125000001,0,0,0.008173828125000001,30.087861328125005,0)" xlink:href="#ab"/><use transform="matrix(0.008173828125000001,0,0,0.008173828125000001,39.98636718750001,0)" xlink:href="#M"/><use transform="matrix(0.008173828125000001,0,0,0.008173828125000001,44.04058593750001,0)" xlink:href="#U"/><use transform="matrix(0.008173828125000001,0,0,0.008173828125000001,48.094804687500016,0)" xlink:href="#S"/></g><g id="n"><use transform="matrix(0.008173828125000001,0,0,0.008173828125000001,0,0)" xlink:href="#Z"/><use transform="matrix(0.008173828125000001,0,0,0.008173828125000001,14.663847656250002,0)" xlink:href="#V"/><use transform="matrix(0.008173828125000001,0,0,0.008173828125000001,24.42339843750001,0)" xlink:href="#S"/><use transform="matrix(0.008173828125000001,0,0,0.008173828125000001,34.673378906250015,0)" xlink:href="#M"/><use transform="matrix(0.008173828125000001,0,0,0.008173828125000001,38.72759765625001,0)" xlink:href="#Y"/><use transform="matrix(0.008173828125000001,0,0,0.008173828125000001,48.12750000000001,0)" xlink:href="#H"/></g><path d="M140 405l46-156c120 36 205 19 263-150l32-93L54-1118h197c107 313 237 620 324 950 87-331 219-637 326-950h196L606 167c-68 178-176 259-334 259-64 0-113-12-132-21" id="ad"/><g id="o"><use transform="matrix(0.008173828125000001,0,0,0.008173828125000001,0,0)" xlink:href="#O"/><use transform="matrix(0.008173828125000001,0,0,0.008173828125000001,5.803417968750001,0)" xlink:href="#ad"/><use transform="matrix(0.008173828125000001,0,0,0.008173828125000001,15.211494140625001,0)" xlink:href="#N"/><use transform="matrix(0.008173828125000001,0,0,0.008173828125000001,25.461474609375003,0)" xlink:href="#V"/></g><g id="p"><use transform="matrix(0.008173828125000001,0,0,0.008173828125000001,0,0)" xlink:href="#L"/><use transform="matrix(0.008173828125000001,0,0,0.008173828125000001,6.302021484375,0)" xlink:href="#I"/><use transform="matrix(0.008173828125000001,0,0,0.008173828125000001,16.200527343750004,0)" xlink:href="#Q"/><use transform="matrix(0.008173828125000001,0,0,0.008173828125000001,26.090859375000004,0)" xlink:href="#O"/><use transform="matrix(0.008173828125000001,0,0,0.008173828125000001,31.567324218750006,0)" xlink:href="#M"/><use transform="matrix(0.008173828125000001,0,0,0.008173828125000001,35.621542968750006,0)" xlink:href="#Z"/><use transform="matrix(0.008173828125000001,0,0,0.008173828125000001,50.285390625000005,0)" xlink:href="#V"/></g><g id="q"><use transform="matrix(0.008173828125000001,0,0,0.008173828125000001,0,0)" xlink:href="#S"/><use transform="matrix(0.008173828125000001,0,0,0.008173828125000001,10.249980468750001,0)" xlink:href="#V"/><use transform="matrix(0.008173828125000001,0,0,0.008173828125000001,20.009531250000002,0)" xlink:href="#H"/><use transform="matrix(0.008173828125000001,0,0,0.008173828125000001,28.845439453125003,0)" xlink:href="#K"/><use transform="matrix(0.008173828125000001,0,0,0.008173828125000001,38.408818359375005,0)" xlink:href="#L"/><use transform="matrix(0.008173828125000001,0,0,0.008173828125000001,44.972402343750005,0)" xlink:href="#M"/><use transform="matrix(0.008173828125000001,0,0,0.008173828125000001,49.02662109375001,0)" xlink:href="#N"/><use transform="matrix(0.008173828125000001,0,0,0.008173828125000001,59.27660156250001,0)" xlink:href="#O"/><use transform="matrix(0.008173828125000001,0,0,0.008173828125000001,64.75306640625001,0)" xlink:href="#M"/><use transform="matrix(0.008173828125000001,0,0,0.008173828125000001,68.80728515625002,0)" xlink:href="#P"/><use transform="matrix(0.008173828125000001,0,0,0.008173828125000001,78.84474609375002,0)" xlink:href="#Q"/></g><g id="r"><use transform="matrix(0.008173828125000001,0,0,0.008173828125000001,0,0)" xlink:href="#K"/><use transform="matrix(0.008173828125000001,0,0,0.008173828125000001,9.563378906250001,0)" xlink:href="#P"/><use transform="matrix(0.008173828125000001,0,0,0.008173828125000001,19.273886718750003,0)" xlink:href="#T"/><use transform="matrix(0.008173828125000001,0,0,0.008173828125000001,28.355009765625006,0)" xlink:href="#V"/><use transform="matrix(0.008173828125000001,0,0,0.008173828125000001,38.114560546875005,0)" xlink:href="#L"/></g><g id="s"><use transform="matrix(0.008173828125000001,0,0,0.008173828125000001,0,0)" xlink:href="#V"/><use transform="matrix(0.008173828125000001,0,0,0.008173828125000001,9.75955078125,0)" xlink:href="#N"/><use transform="matrix(0.008173828125000001,0,0,0.008173828125000001,20.009531250000002,0)" xlink:href="#M"/><use transform="matrix(0.008173828125000001,0,0,0.008173828125000001,24.063750000000002,0)" xlink:href="#H"/><use transform="matrix(0.008173828125000001,0,0,0.008173828125000001,32.899658203125,0)" xlink:href="#P"/><use transform="matrix(0.008173828125000001,0,0,0.008173828125000001,42.937119140625,0)" xlink:href="#S"/><use transform="matrix(0.008173828125000001,0,0,0.008173828125000001,53.187099609375004,0)" xlink:href="#V"/><use transform="matrix(0.008173828125000001,0,0,0.008173828125000001,62.946650390625,0)" xlink:href="#H"/></g><g id="t"><use transform="matrix(0.008173828125000001,0,0,0.008173828125000001,0,0)" xlink:href="#Z"/><use transform="matrix(0.008173828125000001,0,0,0.008173828125000001,14.663847656250002,0)" xlink:href="#V"/><use transform="matrix(0.008173828125000001,0,0,0.008173828125000001,24.42339843750001,0)" xlink:href="#S"/><use transform="matrix(0.008173828125000001,0,0,0.008173828125000001,34.673378906250015,0)" xlink:href="#M"/><use transform="matrix(0.008173828125000001,0,0,0.008173828125000001,38.72759765625001,0)" xlink:href="#Y"/><use transform="matrix(0.008173828125000001,0,0,0.008173828125000001,48.12750000000001,0)" xlink:href="#H"/><use transform="matrix(0.008173828125000001,0,0,0.008173828125000001,56.96340820312501,0)" xlink:href="#R"/><use transform="matrix(0.008173828125000001,0,0,0.008173828125000001,65.16175781250001,0)" xlink:href="#M"/><use transform="matrix(0.008173828125000001,0,0,0.008173828125000001,69.21597656250002,0)" xlink:href="#S"/></g><g id="u"><use transform="matrix(0.008173828125000001,0,0,0.008173828125000001,0,0)" xlink:href="#H"/><use transform="matrix(0.008173828125000001,0,0,0.008173828125000001,8.835908203125001,0)" xlink:href="#V"/><use transform="matrix(0.008173828125000001,0,0,0.008173828125000001,18.758935546875,0)" xlink:href="#Y"/><use transform="matrix(0.008173828125000001,0,0,0.008173828125000001,28.158837890624998,0)" xlink:href="#H"/><use transform="matrix(0.008173828125000001,0,0,0.008173828125000001,36.99474609375,0)" xlink:href="#P"/><use transform="matrix(0.008173828125000001,0,0,0.008173828125000001,47.03220703125,0)" xlink:href="#Q"/><use transform="matrix(0.008173828125000001,0,0,0.008173828125000001,56.92253906250001,0)" xlink:href="#R"/><use transform="matrix(0.008173828125000001,0,0,0.008173828125000001,65.12088867187501,0)" xlink:href="#Q"/><use transform="matrix(0.008173828125000001,0,0,0.008173828125000001,75.011220703125,0)" xlink:href="#I"/><use transform="matrix(0.008173828125000001,0,0,0.008173828125000001,84.90972656250001,0)" xlink:href="#Z"/><use transform="matrix(0.008173828125000001,0,0,0.008173828125000001,99.57357421875001,0)" xlink:href="#J"/><use transform="matrix(0.008173828125000001,0,0,0.008173828125000001,109.8235546875,0)" xlink:href="#V"/><use transform="matrix(0.008173828125000001,0,0,0.008173828125000001,119.58310546875,0)" xlink:href="#L"/></g><g id="v"><use transform="matrix(0.008173828125000001,0,0,0.008173828125000001,0,0)" xlink:href="#W"/><use transform="matrix(0.008173828125000001,0,0,0.008173828125000001,10.266328125000001,0)" xlink:href="#V"/><use transform="matrix(0.008173828125000001,0,0,0.008173828125000001,20.02587890625,0)" xlink:href="#Q"/><use transform="matrix(0.008173828125000001,0,0,0.008173828125000001,29.9162109375,0)" xlink:href="#L"/><use transform="matrix(0.008173828125000001,0,0,0.008173828125000001,35.940322265625,0)" xlink:href="#V"/><use transform="matrix(0.008173828125000001,0,0,0.008173828125000001,45.699873046875,0)" xlink:href="#H"/></g><g id="w"><use transform="matrix(0.008173828125000001,0,0,0.008173828125000001,0,0)" xlink:href="#N"/><use transform="matrix(0.008173828125000001,0,0,0.008173828125000001,10.249980468750001,0)" xlink:href="#V"/><use transform="matrix(0.008173828125000001,0,0,0.008173828125000001,20.009531250000002,0)" xlink:href="#L"/><use transform="matrix(0.008173828125000001,0,0,0.008173828125000001,26.311552734375002,0)" xlink:href="#H"/><use transform="matrix(0.008173828125000001,0,0,0.008173828125000001,35.1474609375,0)" xlink:href="#P"/><use transform="matrix(0.008173828125000001,0,0,0.008173828125000001,45.184921875,0)" xlink:href="#Q"/><use transform="matrix(0.008173828125000001,0,0,0.008173828125000001,55.07525390625,0)" xlink:href="#H"/></g><g id="x"><use transform="matrix(0.008173828125000001,0,0,0.008173828125000001,0,0)" xlink:href="#J"/><use transform="matrix(0.008173828125000001,0,0,0.008173828125000001,10.249980468750001,0)" xlink:href="#M"/><use transform="matrix(0.008173828125000001,0,0,0.008173828125000001,14.304199218750002,0)" xlink:href="#L"/><use transform="matrix(0.008173828125000001,0,0,0.008173828125000001,20.867783203124997,0)" xlink:href="#O"/><use transform="matrix(0.008173828125000001,0,0,0.008173828125000001,26.344248046875002,0)" xlink:href="#ab"/><use transform="matrix(0.008173828125000001,0,0,0.008173828125000001,36.24275390625,0)" xlink:href="#R"/><use transform="matrix(0.008173828125000001,0,0,0.008173828125000001,43.877109375,0)" xlink:href="#S"/><use transform="matrix(0.008173828125000001,0,0,0.008173828125000001,54.12708984375001,0)" xlink:href="#Y"/><use transform="matrix(0.008173828125000001,0,0,0.008173828125000001,63.52699218750001,0)" xlink:href="#O"/><use transform="matrix(0.008173828125000001,0,0,0.008173828125000001,68.83998046875,0)" xlink:href="#V"/></g><g id="y"><use transform="matrix(0.008173828125000001,0,0,0.008173828125000001,0,0)" xlink:href="#W"/><use transform="matrix(0.008173828125000001,0,0,0.008173828125000001,10.266328125000001,0)" xlink:href="#V"/><use transform="matrix(0.008173828125000001,0,0,0.008173828125000001,20.02587890625,0)" xlink:href="#Q"/><use transform="matrix(0.008173828125000001,0,0,0.008173828125000001,29.9162109375,0)" xlink:href="#S"/><use transform="matrix(0.008173828125000001,0,0,0.008173828125000001,40.16619140625,0)" xlink:href="#V"/><use transform="matrix(0.008173828125000001,0,0,0.008173828125000001,49.9257421875,0)" xlink:href="#L"/></g><g id="z"><use transform="matrix(0.008173828125000001,0,0,0.008173828125000001,0,0)" xlink:href="#L"/><use transform="matrix(0.008173828125000001,0,0,0.008173828125000001,6.0241113281250005,0)" xlink:href="#P"/><use transform="matrix(0.008173828125000001,0,0,0.008173828125000001,16.061572265625003,0)" xlink:href="#U"/><use transform="matrix(0.008173828125000001,0,0,0.008173828125000001,20.115791015625003,0)" xlink:href="#V"/><use transform="matrix(0.008173828125000001,0,0,0.008173828125000001,29.875341796875006,0)" xlink:href="#H"/></g><g id="A"><use transform="matrix(0.008173828125000001,0,0,0.008173828125000001,0,0)" xlink:href="#Z"/><use transform="matrix(0.008173828125000001,0,0,0.008173828125000001,14.663847656250002,0)" xlink:href="#V"/><use transform="matrix(0.008173828125000001,0,0,0.008173828125000001,24.42339843750001,0)" xlink:href="#S"/><use transform="matrix(0.008173828125000001,0,0,0.008173828125000001,34.673378906250015,0)" xlink:href="#M"/><use transform="matrix(0.008173828125000001,0,0,0.008173828125000001,38.72759765625001,0)" xlink:href="#Y"/><use transform="matrix(0.008173828125000001,0,0,0.008173828125000001,48.12750000000001,0)" xlink:href="#H"/><use transform="matrix(0.008173828125000001,0,0,0.008173828125000001,56.96340820312501,0)" xlink:href="#R"/><use transform="matrix(0.008173828125000001,0,0,0.008173828125000001,65.16175781250001,0)" xlink:href="#N"/><use transform="matrix(0.008173828125000001,0,0,0.008173828125000001,75.41173828125001,0)" xlink:href="#V"/><use transform="matrix(0.008173828125000001,0,0,0.008173828125000001,85.17128906250001,0)" xlink:href="#L"/><use transform="matrix(0.008173828125000001,0,0,0.008173828125000001,91.47331054687501,0)" xlink:href="#H"/><use transform="matrix(0.008173828125000001,0,0,0.008173828125000001,100.30921875000001,0)" xlink:href="#P"/><use transform="matrix(0.008173828125000001,0,0,0.008173828125000001,110.34667968750001,0)" xlink:href="#Q"/><use transform="matrix(0.008173828125000001,0,0,0.008173828125000001,120.23701171875001,0)" xlink:href="#H"/><use transform="matrix(0.008173828125000001,0,0,0.008173828125000001,129.072919921875,0)" xlink:href="#R"/><use transform="matrix(0.008173828125000001,0,0,0.008173828125000001,137.27126953125,0)" xlink:href="#L"/><use transform="matrix(0.008173828125000001,0,0,0.008173828125000001,143.295380859375,0)" xlink:href="#P"/><use transform="matrix(0.008173828125000001,0,0,0.008173828125000001,153.33284179687502,0)" xlink:href="#U"/><use transform="matrix(0.008173828125000001,0,0,0.008173828125000001,157.387060546875,0)" xlink:href="#V"/><use transform="matrix(0.008173828125000001,0,0,0.008173828125000001,167.14661132812498,0)" xlink:href="#H"/></g><g id="B"><use transform="matrix(0.008173828125000001,0,0,0.008173828125000001,0,0)" xlink:href="#aa"/><use transform="matrix(0.008173828125000001,0,0,0.008173828125000001,13.6993359375,0)" xlink:href="#Y"/><use transform="matrix(0.008173828125000001,0,0,0.008173828125000001,23.099238281250003,0)" xlink:href="#O"/><use transform="matrix(0.008173828125000001,0,0,0.008173828125000001,28.412226562500003,0)" xlink:href="#K"/><use transform="matrix(0.008173828125000001,0,0,0.008173828125000001,37.975605468750004,0)" xlink:href="#ab"/><use transform="matrix(0.008173828125000001,0,0,0.008173828125000001,47.874111328125004,0)" xlink:href="#R"/><use transform="matrix(0.008173828125000001,0,0,0.008173828125000001,56.072460937500004,0)" xlink:href="#U"/><use transform="matrix(0.008173828125000001,0,0,0.008173828125000001,60.1266796875,0)" xlink:href="#M"/><use transform="matrix(0.008173828125000001,0,0,0.008173828125000001,64.1808984375,0)" xlink:href="#H"/><use transform="matrix(0.008173828125000001,0,0,0.008173828125000001,73.016806640625,0)" xlink:href="#O"/><use transform="matrix(0.008173828125000001,0,0,0.008173828125000001,78.329794921875,0)" xlink:href="#H"/><use transform="matrix(0.008173828125000001,0,0,0.008173828125000001,87.16570312500001,0)" xlink:href="#R"/><use transform="matrix(0.008173828125000001,0,0,0.008173828125000001,95.36405273437501,0)" xlink:href="#Z"/><use transform="matrix(0.008173828125000001,0,0,0.008173828125000001,110.027900390625,0)" xlink:href="#V"/><use transform="matrix(0.008173828125000001,0,0,0.008173828125000001,119.787451171875,0)" xlink:href="#S"/><use transform="matrix(0.008173828125000001,0,0,0.008173828125000001,130.03743164062502,0)" xlink:href="#M"/><use transform="matrix(0.008173828125000001,0,0,0.008173828125000001,134.091650390625,0)" xlink:href="#Y"/><use transform="matrix(0.008173828125000001,0,0,0.008173828125000001,143.491552734375,0)" xlink:href="#H"/></g><g id="C"><use transform="matrix(0.008173828125000001,0,0,0.008173828125000001,0,0)" xlink:href="#L"/><use transform="matrix(0.008173828125000001,0,0,0.008173828125000001,6.0241113281250005,0)" xlink:href="#V"/><use transform="matrix(0.008173828125000001,0,0,0.008173828125000001,15.456708984375002,0)" xlink:href="#T"/><use transform="matrix(0.008173828125000001,0,0,0.008173828125000001,24.86478515625,0)" xlink:href="#M"/><use transform="matrix(0.008173828125000001,0,0,0.008173828125000001,28.91900390625,0)" xlink:href="#V"/><use transform="matrix(0.008173828125000001,0,0,0.008173828125000001,38.376123046875,0)" xlink:href="#aa"/><use transform="matrix(0.008173828125000001,0,0,0.008173828125000001,52.075458984375004,0)" xlink:href="#H"/></g><g id="D"><use transform="matrix(0.008173828125000001,0,0,0.008173828125000001,0,0)" xlink:href="#Z"/><use transform="matrix(0.008173828125000001,0,0,0.008173828125000001,14.663847656250002,0)" xlink:href="#V"/><use transform="matrix(0.008173828125000001,0,0,0.008173828125000001,24.42339843750001,0)" xlink:href="#H"/><use transform="matrix(0.008173828125000001,0,0,0.008173828125000001,33.259306640625006,0)" xlink:href="#H"/><use transform="matrix(0.008173828125000001,0,0,0.008173828125000001,42.09521484375001,0)" xlink:href="#Y"/><use transform="matrix(0.008173828125000001,0,0,0.008173828125000001,51.49511718750001,0)" xlink:href="#W"/><use transform="matrix(0.008173828125000001,0,0,0.008173828125000001,61.76144531250001,0)" xlink:href="#V"/></g><g id="E"><use transform="matrix(0.008173828125000001,0,0,0.008173828125000001,0,0)" xlink:href="#L"/><use transform="matrix(0.008173828125000001,0,0,0.008173828125000001,6.302021484375,0)" xlink:href="#Y"/><use transform="matrix(0.008173828125000001,0,0,0.008173828125000001,15.701923828125002,0)" xlink:href="#O"/><use transform="matrix(0.008173828125000001,0,0,0.008173828125000001,21.178388671875002,0)" xlink:href="#M"/><use transform="matrix(0.008173828125000001,0,0,0.008173828125000001,25.232607421875002,0)" xlink:href="#Q"/><use transform="matrix(0.008173828125000001,0,0,0.008173828125000001,35.122939453125,0)" xlink:href="#W"/></g><g id="F"><use transform="matrix(0.008173828125000001,0,0,0.008173828125000001,0,0)" xlink:href="#Z"/><use transform="matrix(0.008173828125000001,0,0,0.008173828125000001,14.663847656250002,0)" xlink:href="#V"/><use transform="matrix(0.008173828125000001,0,0,0.008173828125000001,24.42339843750001,0)" xlink:href="#S"/><use transform="matrix(0.008173828125000001,0,0,0.008173828125000001,34.673378906250015,0)" xlink:href="#M"/><use transform="matrix(0.008173828125000001,0,0,0.008173828125000001,38.72759765625001,0)" xlink:href="#Y"/><use transform="matrix(0.008173828125000001,0,0,0.008173828125000001,48.12750000000001,0)" xlink:href="#H"/><use transform="matrix(0.008173828125000001,0,0,0.008173828125000001,56.96340820312501,0)" xlink:href="#R"/><use transform="matrix(0.008173828125000001,0,0,0.008173828125000001,65.16175781250001,0)" xlink:href="#L"/><use transform="matrix(0.008173828125000001,0,0,0.008173828125000001,71.18586914062503,0)" xlink:href="#V"/><use transform="matrix(0.008173828125000001,0,0,0.008173828125000001,80.61846679687501,0)" xlink:href="#T"/><use transform="matrix(0.008173828125000001,0,0,0.008173828125000001,90.02654296875001,0)" xlink:href="#M"/><use transform="matrix(0.008173828125000001,0,0,0.008173828125000001,94.08076171875001,0)" xlink:href="#V"/><use transform="matrix(0.008173828125000001,0,0,0.008173828125000001,103.53788085937501,0)" xlink:href="#aa"/><use transform="matrix(0.008173828125000001,0,0,0.008173828125000001,117.237216796875,0)" xlink:href="#H"/></g><g id="G"><use transform="matrix(0.008173828125000001,0,0,0.008173828125000001,0,0)" xlink:href="#Z"/><use transform="matrix(0.008173828125000001,0,0,0.008173828125000001,14.663847656250002,0)" xlink:href="#V"/><use transform="matrix(0.008173828125000001,0,0,0.008173828125000001,24.42339843750001,0)" xlink:href="#S"/><use transform="matrix(0.008173828125000001,0,0,0.008173828125000001,34.673378906250015,0)" xlink:href="#M"/><use transform="matrix(0.008173828125000001,0,0,0.008173828125000001,38.72759765625001,0)" xlink:href="#Y"/><use transform="matrix(0.008173828125000001,0,0,0.008173828125000001,48.12750000000001,0)" xlink:href="#H"/><use transform="matrix(0.008173828125000001,0,0,0.008173828125000001,56.96340820312501,0)" xlink:href="#R"/><use transform="matrix(0.008173828125000001,0,0,0.008173828125000001,64.59776367187501,0)" xlink:href="#W"/><use transform="matrix(0.008173828125000001,0,0,0.008173828125000001,74.86409179687502,0)" xlink:href="#V"/><use transform="matrix(0.008173828125000001,0,0,0.008173828125000001,84.62364257812501,0)" xlink:href="#Q"/><use transform="matrix(0.008173828125000001,0,0,0.008173828125000001,94.51397460937501,0)" xlink:href="#L"/><use transform="matrix(0.008173828125000001,0,0,0.008173828125000001,100.53808593750001,0)" xlink:href="#V"/><use transform="matrix(0.008173828125000001,0,0,0.008173828125000001,110.29763671875001,0)" xlink:href="#H"/></g></defs></g></svg>