<svg xmlns="http://www.w3.org/2000/svg" xmlns:xlink="http://www.w3.org/1999/xlink" xmlns:lucid="lucid" width="1354.26" height="1591"><g transform="translate(-666.236906661341 280.5)" lucid:page-tab-id="0_0"><path d="M1242.6-155a5 5 0 0 1 5-5h260a5 5 0 0 1 5 5V85a5 5 0 0 1-5 5h-260a5 5 0 0 1-5-5z" fill="#fff"/><path d="M1242.6-120v-35a5 5 0 0 1 5-5h260a5 5 0 0 1 5 5v35" fill="#dedeff"/><path d="M1242.6-120v31h270v-31" fill="#fff"/><path d="M1242.6-90v31h270v-31" fill="#e6e6e6"/><path d="M1242.6-60v31h270v-31" fill="#fff"/><path d="M1242.6-30V1h270v-31" fill="#e6e6e6"/><path d="M1242.6 0v31h270V0" fill="#fff"/><path d="M1242.6 30v31h270V30" fill="#e6e6e6"/><path d="M1242.6 60v25a5 5 0 0 0 5 5h260a5 5 0 0 0 5-5V60" fill="#fff"/><path d="M1242.6-120h270M1242.6-155a5 5 0 0 1 5-5h260a5 5 0 0 1 5 5V85a5 5 0 0 1-5 5h-260a5 5 0 0 1-5-5zM1385.13-120V90" stroke="#282c33" fill="none"/><use xlink:href="#a" transform="matrix(1,0,0,1,1252.6104746709273,-160) translate(103.184052734375 26.089501953125)"/><use xlink:href="#b" transform="matrix(1,0,0,1,1247.6104746709273,-117.5) translate(0 18.589501953125)"/><use xlink:href="#c" transform="matrix(1,0,0,1,1390.1295480738577,-117.5) translate(0 18.589501953125)"/><use xlink:href="#d" transform="matrix(1,0,0,1,1247.6104746709273,-87.5) translate(0 18.589501953125)"/><use xlink:href="#e" transform="matrix(1,0,0,1,1390.1295480738577,-87.5) translate(0 18.589501953125)"/><use xlink:href="#f" transform="matrix(1,0,0,1,1247.6104746709273,-57.5) translate(0 18.589501953125)"/><use xlink:href="#e" transform="matrix(1,0,0,1,1390.1295480738577,-57.5) translate(0 18.589501953125)"/><use xlink:href="#g" transform="matrix(1,0,0,1,1247.6104746709273,-27.5) translate(0 18.589501953125)"/><use xlink:href="#h" transform="matrix(1,0,0,1,1390.1295480738577,-27.5) translate(0 18.589501953125)"/><use xlink:href="#i" transform="matrix(1,0,0,1,1247.6104746709273,2.5) translate(0 18.589501953125)"/><use xlink:href="#h" transform="matrix(1,0,0,1,1390.1295480738577,2.5) translate(0 18.589501953125)"/><use xlink:href="#j" transform="matrix(1,0,0,1,1247.6104746709273,32.5) translate(0 18.589501953125)"/><use xlink:href="#h" transform="matrix(1,0,0,1,1390.1295480738577,32.5) translate(0 18.589501953125)"/><use xlink:href="#k" transform="matrix(1,0,0,1,1247.6104746709273,62.5) translate(0 18.589501953125)"/><use xlink:href="#l" transform="matrix(1,0,0,1,1390.1295480738577,62.5) translate(0 18.589501953125)"/><path d="M891.96-235a5 5 0 0 1 5-5h210a5 5 0 0 1 5 5v120a5 5 0 0 1-5 5h-210a5 5 0 0 1-5-5z" fill="#fff"/><path d="M891.96-200v-35a5 5 0 0 1 5-5h210a5 5 0 0 1 5 5v35" fill="#dedeff"/><path d="M891.96-200v31h220v-31" fill="#fff"/><path d="M891.96-170v31h220v-31" fill="#e6e6e6"/><path d="M891.96-140v25a5 5 0 0 0 5 5h210a5 5 0 0 0 5-5v-25" fill="#fff"/><path d="M891.96-200h220M891.96-235a5 5 0 0 1 5-5h210a5 5 0 0 1 5 5v120a5 5 0 0 1-5 5h-210a5 5 0 0 1-5-5zM989.3-200v90" stroke="#282c33" fill="none"/><use xlink:href="#m" transform="matrix(1,0,0,1,901.9578560031955,-240) translate(46.7270751953125 26.089501953125)"/><use xlink:href="#b" transform="matrix(1,0,0,1,896.9578560031955,-197.5) translate(0 18.589501953125)"/><use xlink:href="#n" transform="matrix(1,0,0,1,994.291189336529,-197.5) translate(0 18.589501953125)"/><use xlink:href="#o" transform="matrix(1,0,0,1,896.9578560031955,-167.5) translate(0 18.589501953125)"/><use xlink:href="#h" transform="matrix(1,0,0,1,994.291189336529,-167.5) translate(0 18.589501953125)"/><use xlink:href="#p" transform="matrix(1,0,0,1,896.9578560031955,-137.5) translate(0 18.589501953125)"/><use xlink:href="#q" transform="matrix(1,0,0,1,994.291189336529,-137.5) translate(0 18.589501953125)"/><path d="M1132.46-220h32.82a12 12 0 0 1 12 12v56.03a12 12 0 0 0 12 12h33.42M1112.46-220h20m0 10v-20M1241.9-139.97h-20m20-10l-20 10m20 10l-20-10" stroke="#3a414a" fill="none"/><path d="M1557.4-275a5 5 0 0 1 5-5h187.38a5 5 0 0 1 5 5v90a5 5 0 0 1-5 5h-187.4a5 5 0 0 1-5-5z" fill="#fff"/><path d="M1557.4-240v-35a5 5 0 0 1 5-5h187.38a5 5 0 0 1 5 5v35" fill="#dedeff"/><path d="M1557.4-240v31h197.38v-31" fill="#fff"/><path d="M1557.4-210v25a5 5 0 0 0 5 5h187.38a5 5 0 0 0 5-5v-25" fill="#e6e6e6"/><path d="M1557.4-240h197.38M1557.4-275a5 5 0 0 1 5-5h187.38a5 5 0 0 1 5 5v90a5 5 0 0 1-5 5h-187.4a5 5 0 0 1-5-5zM1615.3-240v60" stroke="#282c33" fill="none"/><use xlink:href="#r" transform="matrix(1,0,0,1,1567.389525329073,-280) translate(50.4971826171875 26.089501953125)"/><use xlink:href="#b" transform="matrix(1,0,0,1,1562.389525329073,-237.5) translate(0 18.589501953125)"/><use xlink:href="#n" transform="matrix(1,0,0,1,1620.3116302079616,-237.5) translate(0 18.589501953125)"/><use xlink:href="#o" transform="matrix(1,0,0,1,1562.389525329073,-207.5) translate(0 18.589501953125)"/><use xlink:href="#s" transform="matrix(1,0,0,1,1620.3116302079616,-207.5) translate(0 18.589501953125)"/><path d="M1536.9-260h-147.3a12 12 0 0 0-12 12v68.1M1556.9-260h-20m0-10v20M1377.6-160.72v-20m10 20l-10-20m-10 20l10-20" stroke="#3a414a" fill="none"/><path d="M677.4 553.1a5 5 0 0 1 5-5h193.9a5 5 0 0 1 5 5v120a5 5 0 0 1-5 5H682.4a5 5 0 0 1-5-5z" fill="#fff"/><path d="M677.4 588.1v-35a5 5 0 0 1 5-5h193.9a5 5 0 0 1 5 5v35" fill="#dedeff"/><path d="M677.4 588.1v31h203.9v-31" fill="#fff"/><path d="M677.4 618.1v31h203.9v-31" fill="#e6e6e6"/><path d="M677.4 648.1v25a5 5 0 0 0 5 5h193.9a5 5 0 0 0 5-5v-25" fill="#fff"/><path d="M677.4 588.1h203.9M677.4 553.1a5 5 0 0 1 5-5h193.9a5 5 0 0 1 5 5v120a5 5 0 0 1-5 5H682.4a5 5 0 0 1-5-5zM772 588.1v90" stroke="#282c33" fill="none"/><use xlink:href="#t" transform="matrix(1,0,0,1,687.3895253290729,548.1007994753862) translate(48.417148437499996 26.089501953125)"/><use xlink:href="#b" transform="matrix(1,0,0,1,682.3895253290729,590.6007994753862) translate(0 18.589501953125)"/><use xlink:href="#n" transform="matrix(1,0,0,1,777,590.6007994753862) translate(0 18.589501953125)"/><use xlink:href="#u" transform="matrix(1,0,0,1,682.3895253290729,620.6007994753862) translate(0 18.589501953125)"/><use xlink:href="#v" transform="matrix(1,0,0,1,777,620.6007994753862) translate(0 18.589501953125)"/><use xlink:href="#w" transform="matrix(1,0,0,1,682.3895253290729,650.6007994753862) translate(0 18.589501953125)"/><use xlink:href="#x" transform="matrix(1,0,0,1,777,650.6007994753862) translate(0 18.589501953125)"/><path d="M940 220.23a5 5 0 0 1 5-5h210a5 5 0 0 1 5 5v120a5 5 0 0 1-5 5H945a5 5 0 0 1-5-5z" fill="#fff"/><path d="M940 255.23v-35a5 5 0 0 1 5-5h210a5 5 0 0 1 5 5v35" fill="#dedeff"/><path d="M940 255.23v31h220v-31" fill="#fff"/><path d="M940 285.23v31h220v-31" fill="#e6e6e6"/><path d="M940 315.23v25a5 5 0 0 0 5 5h210a5 5 0 0 0 5-5v-25" fill="#fff"/><path d="M940 255.23h220M940 220.23a5 5 0 0 1 5-5h210a5 5 0 0 1 5 5v120a5 5 0 0 1-5 5H945a5 5 0 0 1-5-5zM1035.33 255.23v90" stroke="#282c33" fill="none"/><use xlink:href="#y" transform="matrix(1,0,0,1,950.0000000000002,215.2258674498579) translate(70.39439453124999 26.089501953125)"/><use xlink:href="#b" transform="matrix(1,0,0,1,945.0000000000002,257.7258674498579) translate(0 18.589501953125)"/><use xlink:href="#n" transform="matrix(1,0,0,1,1040.3333333333337,257.7258674498579) translate(0 18.589501953125)"/><use xlink:href="#o" transform="matrix(1,0,0,1,945.0000000000002,287.7258674498579) translate(0 18.589501953125)"/><use xlink:href="#h" transform="matrix(1,0,0,1,1040.3333333333337,287.7258674498579) translate(0 18.589501953125)"/><use xlink:href="#z" transform="matrix(1,0,0,1,945.0000000000002,317.7258674498579) translate(0 18.589501953125)"/><use xlink:href="#x" transform="matrix(1,0,0,1,1040.3333333333337,317.7258674498579) translate(0 18.589501953125)"/><path d="M1377.6 110.5v30.1a12 12 0 0 1-12 12H1062a12 12 0 0 0-12 12v30.7M1377.6 90.5v20m-10 0h20M1050 214.5v-20m10 20l-10-20m-10 20l10-20M1050 365.73V528.2M1050 345.73v20m-10 0h20M1050 547.38v-20m10 20l-10-20m-10 20l10-20M1050 365.73v68.93a12 12 0 0 1-12 12H791.35a12 12 0 0 0-12 12v68.94M1050 345.73v20m-10 0h20M779.35 547.6v-20m10 0h-20" stroke="#3a414a" fill="none"/><path d="M1360 545a5 5 0 0 1 5-5h230a5 5 0 0 1 5 5v210a5 5 0 0 1-5 5h-230a5 5 0 0 1-5-5z" fill="#fff"/><path d="M1360 580v-35a5 5 0 0 1 5-5h230a5 5 0 0 1 5 5v35" fill="#dedeff"/><path d="M1360 580v31h240v-31" fill="#fff"/><path d="M1360 610v31h240v-31" fill="#e6e6e6"/><path d="M1360 640v31h240v-31" fill="#fff"/><path d="M1360 670v31h240v-31" fill="#e6e6e6"/><path d="M1360 700v31h240v-31" fill="#fff"/><path d="M1360 730v25a5 5 0 0 0 5 5h230a5 5 0 0 0 5-5v-25" fill="#e6e6e6"/><path d="M1360 580h240M1360 545a5 5 0 0 1 5-5h230a5 5 0 0 1 5 5v210a5 5 0 0 1-5 5h-230a5 5 0 0 1-5-5zM1461 580v180" stroke="#282c33" fill="none"/><use xlink:href="#A" transform="matrix(1,0,0,1,1370,540) translate(81.51829589843749 26.089501953125)"/><use xlink:href="#b" transform="matrix(1,0,0,1,1365,582.5) translate(0 18.589501953125)"/><use xlink:href="#n" transform="matrix(1,0,0,1,1466,582.5) translate(0 18.589501953125)"/><use xlink:href="#o" transform="matrix(1,0,0,1,1365,612.5) translate(0 18.589501953125)"/><use xlink:href="#s" transform="matrix(1,0,0,1,1466,612.5) translate(0 18.589501953125)"/><use xlink:href="#B" transform="matrix(1,0,0,1,1365,642.5) translate(0 18.589501953125)"/><use xlink:href="#s" transform="matrix(1,0,0,1,1466,642.5) translate(0 18.589501953125)"/><use xlink:href="#C" transform="matrix(1,0,0,1,1365,672.5) translate(0 18.589501953125)"/><use xlink:href="#q" transform="matrix(1,0,0,1,1466,672.5) translate(0 18.589501953125)"/><use xlink:href="#D" transform="matrix(1,0,0,1,1365,702.5) translate(0 18.589501953125)"/><use xlink:href="#E" transform="matrix(1,0,0,1,1466,702.5) translate(0 18.589501953125)"/><use xlink:href="#F" transform="matrix(1,0,0,1,1365,732.5) translate(0 18.589501953125)"/><use xlink:href="#E" transform="matrix(1,0,0,1,1466,732.5) translate(0 18.589501953125)"/><path d="M1339.5 560H1282a12 12 0 0 0-12 12v425.25a12 12 0 0 0 12 12h210.7M1359.5 560h-20m0-10v20M1511.9 1009.25h-20m20-10l-20 10m20 10l-20-10" stroke="#3a414a" fill="none"/><path d="M1720 544.82a5 5 0 0 1 5-5h290a5 5 0 0 1 5 5v210a5 5 0 0 1-5 5h-290a5 5 0 0 1-5-5z" fill="#fff"/><path d="M1720 579.82v-35a5 5 0 0 1 5-5h290a5 5 0 0 1 5 5v35" fill="#dedeff"/><path d="M1720 579.82v31h300v-31" fill="#fff"/><path d="M1720 609.82v31h300v-31" fill="#e6e6e6"/><path d="M1720 639.82v31h300v-31" fill="#fff"/><path d="M1720 669.82v31h300v-31" fill="#e6e6e6"/><path d="M1720 699.82v31h300v-31" fill="#fff"/><path d="M1720 729.82v25a5 5 0 0 0 5 5h290a5 5 0 0 0 5-5v-25" fill="#e6e6e6"/><path d="M1720 579.82h300M1720 544.82a5 5 0 0 1 5-5h290a5 5 0 0 1 5 5v210a5 5 0 0 1-5 5h-290a5 5 0 0 1-5-5zM1855.22 579.82v180" stroke="#282c33" fill="none"/><use xlink:href="#G" transform="matrix(1,0,0,1,1729.9999999999998,539.818139203547) translate(104.608720703125 26.089501953125)"/><use xlink:href="#b" transform="matrix(1,0,0,1,1724.9999999999998,582.318139203547) translate(0 18.589501953125)"/><use xlink:href="#n" transform="matrix(1,0,0,1,1860.220949341854,582.318139203547) translate(0 18.589501953125)"/><use xlink:href="#H" transform="matrix(1,0,0,1,1724.9999999999998,612.318139203547) translate(0 18.589501953125)"/><use xlink:href="#v" transform="matrix(1,0,0,1,1860.220949341854,612.318139203547) translate(0 18.589501953125)"/><use xlink:href="#o" transform="matrix(1,0,0,1,1724.9999999999998,642.318139203547) translate(0 18.589501953125)"/><use xlink:href="#s" transform="matrix(1,0,0,1,1860.220949341854,642.318139203547) translate(0 18.589501953125)"/><use xlink:href="#I" transform="matrix(1,0,0,1,1724.9999999999998,672.318139203547) translate(0 18.589501953125)"/><use xlink:href="#q" transform="matrix(1,0,0,1,1860.220949341854,672.318139203547) translate(0 18.589501953125)"/><use xlink:href="#C" transform="matrix(1,0,0,1,1724.9999999999998,702.318139203547) translate(0 18.589501953125)"/><use xlink:href="#q" transform="matrix(1,0,0,1,1860.220949341854,702.318139203547) translate(0 18.589501953125)"/><use xlink:href="#D" transform="matrix(1,0,0,1,1724.9999999999998,732.318139203547) translate(0 18.589501953125)"/><use xlink:href="#E" transform="matrix(1,0,0,1,1860.220949341854,732.318139203547) translate(0 18.589501953125)"/><path d="M1596.08 165a5 5 0 0 1 5-5h172.62a5 5 0 0 1 5 5v90a5 5 0 0 1-5 5h-172.62a5 5 0 0 1-5-5z" fill="#fff"/><path d="M1596.08 200v-35a5 5 0 0 1 5-5h172.62a5 5 0 0 1 5 5v35" fill="#dedeff"/><path d="M1596.08 200v31h182.62v-31" fill="#fff"/><path d="M1596.08 230v25a5 5 0 0 0 5 5h172.62a5 5 0 0 0 5-5v-25" fill="#e6e6e6"/><path d="M1596.08 200h182.62M1596.08 165a5 5 0 0 1 5-5h172.62a5 5 0 0 1 5 5v90a5 5 0 0 1-5 5h-172.62a5 5 0 0 1-5-5zM1668.7 200v60" stroke="#282c33" fill="none"/><use xlink:href="#J" transform="matrix(1,0,0,1,1606.084287993609,160) translate(54.232109375 26.089501953125)"/><use xlink:href="#b" transform="matrix(1,0,0,1,1601.084287993609,202.5) translate(0 18.589501953125)"/><use xlink:href="#n" transform="matrix(1,0,0,1,1673.6947626645363,202.5) translate(0 18.589501953125)"/><use xlink:href="#o" transform="matrix(1,0,0,1,1601.084287993609,232.5) translate(0 18.589501953125)"/><use xlink:href="#s" transform="matrix(1,0,0,1,1673.6947626645363,232.5) translate(0 18.589501953125)"/><path d="M1525.44 1125a5 5 0 0 1 5-5H1720a5 5 0 0 1 5 5v180a5 5 0 0 1-5 5h-189.56a5 5 0 0 1-5-5z" fill="#fff"/><path d="M1525.44 1160v-35a5 5 0 0 1 5-5H1720a5 5 0 0 1 5 5v35" fill="#dedeff"/><path d="M1525.44 1160v31H1725v-31" fill="#fff"/><path d="M1525.44 1190v31H1725v-31" fill="#e6e6e6"/><path d="M1525.44 1220v31H1725v-31" fill="#fff"/><path d="M1525.44 1250v31H1725v-31" fill="#e6e6e6"/><path d="M1525.44 1280v25a5 5 0 0 0 5 5H1720a5 5 0 0 0 5-5v-25" fill="#fff"/><path d="M1525.44 1160H1725M1525.44 1125a5 5 0 0 1 5-5H1720a5 5 0 0 1 5 5v180a5 5 0 0 1-5 5h-189.56a5 5 0 0 1-5-5zM1612.9 1160v150" stroke="#282c33" fill="none"/><use xlink:href="#K" transform="matrix(1,0,0,1,1535.441898683709,1120) translate(58.0444189453125 26.089501953125)"/><use xlink:href="#b" transform="matrix(1,0,0,1,1530.441898683709,1162.5) translate(0 18.589501953125)"/><use xlink:href="#n" transform="matrix(1,0,0,1,1617.8876160085213,1162.5) translate(0 18.589501953125)"/><use xlink:href="#g" transform="matrix(1,0,0,1,1530.441898683709,1192.5) translate(0 18.589501953125)"/><use xlink:href="#L" transform="matrix(1,0,0,1,1617.8876160085213,1192.5) translate(0 18.589501953125)"/><use xlink:href="#i" transform="matrix(1,0,0,1,1530.441898683709,1222.5) translate(0 18.589501953125)"/><use xlink:href="#s" transform="matrix(1,0,0,1,1617.8876160085213,1222.5) translate(0 18.589501953125)"/><use xlink:href="#M" transform="matrix(1,0,0,1,1530.441898683709,1252.5) translate(0 18.589501953125)"/><use xlink:href="#N" transform="matrix(1,0,0,1,1617.8876160085213,1252.5) translate(0 18.589501953125)"/><use xlink:href="#O" transform="matrix(1,0,0,1,1530.441898683709,1282.5) translate(0 18.589501953125)"/><use xlink:href="#s" transform="matrix(1,0,0,1,1617.8876160085213,1282.5) translate(0 18.589501953125)"/><path d="M1820 905a5 5 0 0 1 5-5h190a5 5 0 0 1 5 5v90a5 5 0 0 1-5 5h-190a5 5 0 0 1-5-5z" fill="#fff"/><path d="M1820 940v-35a5 5 0 0 1 5-5h190a5 5 0 0 1 5 5v35" fill="#dedeff"/><path d="M1820 940v31h200v-31" fill="#fff"/><path d="M1820 970v25a5 5 0 0 0 5 5h190a5 5 0 0 0 5-5v-25" fill="#e6e6e6"/><path d="M1820 940h200M1820 905a5 5 0 0 1 5-5h190a5 5 0 0 1 5 5v90a5 5 0 0 1-5 5h-190a5 5 0 0 1-5-5zM1904 940v60" stroke="#282c33" fill="none"/><use xlink:href="#P" transform="matrix(1,0,0,1,1830,900) translate(70.644375 26.089501953125)"/><use xlink:href="#b" transform="matrix(1,0,0,1,1825,942.5) translate(0 18.589501953125)"/><use xlink:href="#n" transform="matrix(1,0,0,1,1909,942.5) translate(0 18.589501953125)"/><use xlink:href="#o" transform="matrix(1,0,0,1,1825,972.5) translate(0 18.589501953125)"/><use xlink:href="#s" transform="matrix(1,0,0,1,1909,972.5) translate(0 18.589501953125)"/><path d="M1512.6 994.25a5 5 0 0 1 5-5h215.23a5 5 0 0 1 5 5v30a5 5 0 0 1-5 5H1517.6a5 5 0 0 1-5-5z" fill="#fff"/><path d="M1512.6 1029.25v-35a5 5 0 0 1 5-5h215.23a5 5 0 0 1 5 5v35" fill="#e3fae3"/><path d="M1512.6 1029.25v1h225.23v-1" fill="#fff"/><path d="M1512.6 1029.25v1h225.23v-1" fill="#fff"/><path d="M1512.6 1029.25v1h225.23v-1" fill="#fff"/><path d="M1512.6 1029.25v1h225.23v-1M1512.6 1029.25h225.23" fill="#fff"/><path d="M1512.6 1029.25h225.23M1512.6 994.25a5 5 0 0 1 5-5h215.23a5 5 0 0 1 5 5v30a5 5 0 0 1-5 5H1517.6a5 5 0 0 1-5-5zM1572.6 1029.25" stroke="#282c33" fill="none"/><use xlink:href="#Q" transform="matrix(1,0,0,1,1522.6104746709273,989.2513018084583) translate(15.008740234374997 26.089501953125)"/><path d="M1625.22 1099.5v-50.34M1625.22 1119.5v-20m10 0h-20M1625.22 1029.97v20m-10-20l10 20m10-20l-10 20M1799.5 920h-8.58a12 12 0 0 0-12 12v65.25a12 12 0 0 1-12 12h-9.18M1819.5 920h-20m0-10v20M1738.56 1009.25h20m-20 10l20-10m-20-10l20 10M1339.5 560H1282a12 12 0 0 0-12 12v425.25a12 12 0 0 1-12 12H911.87M1359.28 560h-20m20-10l-20 10m20 10l-20-10m0-10v20M892.68 1009.25h20m-20 10l20-10m-20-10l20 10" stroke="#3a414a" fill="none"/><path d="M666.74 994.25a5 5 0 0 1 5-5h215.22a5 5 0 0 1 5 5v30a5 5 0 0 1-5 5H671.74a5 5 0 0 1-5-5z" fill="#fff"/><path d="M666.74 1029.25v-35a5 5 0 0 1 5-5h215.22a5 5 0 0 1 5 5v35" fill="#e3fae3"/><path d="M666.74 1029.25v1h225.22v-1" fill="#fff"/><path d="M666.74 1029.25v1h225.22v-1" fill="#fff"/><path d="M666.74 1029.25v1h225.22v-1" fill="#fff"/><path d="M666.74 1029.25v1h225.22v-1M666.74 1029.25h225.22" fill="#fff"/><path d="M666.74 1029.25h225.22M666.74 994.25a5 5 0 0 1 5-5h215.22a5 5 0 0 1 5 5v30a5 5 0 0 1-5 5H671.74a5 5 0 0 1-5-5zM726.74 1029.25" stroke="#282c33" fill="none"/><use xlink:href="#R" transform="matrix(1,0,0,1,676.736906661341,989.2513018084583) translate(26.836269531249997 26.089501953125)"/><path d="M779.35 698.6v270.74M779.35 678.6v20m-10 0h20M779.35 988.53v-20m10 20l-10-20m-10 20l10-20" stroke="#3a414a" fill="none"/><path d="M960 553.1a5 5 0 0 1 5-5h170a5 5 0 0 1 5 5v150a5 5 0 0 1-5 5H965a5 5 0 0 1-5-5z" fill="#fff"/><path d="M960 588.1v-35a5 5 0 0 1 5-5h170a5 5 0 0 1 5 5v35" fill="#dedeff"/><path d="M960 588.1v31h180v-31" fill="#fff"/><path d="M960 618.1v31h180v-31" fill="#e6e6e6"/><path d="M960 648.1v31h180v-31" fill="#fff"/><path d="M960 678.1v25a5 5 0 0 0 5 5h170a5 5 0 0 0 5-5v-25" fill="#e6e6e6"/><path d="M960 588.1h180M960 553.1a5 5 0 0 1 5-5h170a5 5 0 0 1 5 5v150a5 5 0 0 1-5 5H965a5 5 0 0 1-5-5zM1051 588.1v120" stroke="#282c33" fill="none"/><use xlink:href="#S" transform="matrix(1,0,0,1,970.0000000000002,548.1007994753862) translate(49.54431640625 26.089501953125)"/><use xlink:href="#b" transform="matrix(1,0,0,1,965.0000000000002,590.6007994753862) translate(0 18.589501953125)"/><use xlink:href="#n" transform="matrix(1,0,0,1,1056,590.6007994753862) translate(0 18.589501953125)"/><use xlink:href="#u" transform="matrix(1,0,0,1,965.0000000000002,620.6007994753862) translate(0 18.589501953125)"/><use xlink:href="#v" transform="matrix(1,0,0,1,1056,620.6007994753862) translate(0 18.589501953125)"/><use xlink:href="#T" transform="matrix(1,0,0,1,965.0000000000002,650.6007994753862) translate(0 18.589501953125)"/><use xlink:href="#E" transform="matrix(1,0,0,1,1056,650.6007994753862) translate(0 18.589501953125)"/><use xlink:href="#U" transform="matrix(1,0,0,1,965.0000000000002,680.6007994753862) translate(0 18.589501953125)"/><use xlink:href="#q" transform="matrix(1,0,0,1,1056,680.6007994753862) translate(0 18.589501953125)"/><path d="M1480 520.1V392a12 12 0 0 1 12-12h62.87M1480 539.28v-20m10 20l-10-20m-10 20l10-20M1574.06 380h-20m20-10l-20 10m20 10l-20-10M1687.4 279.9v60.2M1687.4 260.72v20m-10-20l10 20m10-20l-10 20M1687.4 359.27v-20m10 20l-10-20m-10 20l10-20M1480 520.1V392a12 12 0 0 0-12-12h-252.9a12 12 0 0 0-12 12v456a12 12 0 0 1-12 12h-8.58M1480 539.28v-20m10 20l-10-20m-10 20l10-20M1163.33 860h20m-20 10l20-10m-20-10l20 10" stroke="#3a414a" fill="none"/><path d="M937.4 845a5 5 0 0 1 5-5h215.2a5 5 0 0 1 5 5v30a5 5 0 0 1-5 5H942.4a5 5 0 0 1-5-5z" fill="#fff"/><path d="M937.4 880v-35a5 5 0 0 1 5-5h215.2a5 5 0 0 1 5 5v35" fill="#e3fae3"/><path d="M937.4 880v1h225.2v-1" fill="#fff"/><path d="M937.4 880v1h225.2v-1" fill="#fff"/><path d="M937.4 880v1h225.2v-1" fill="#fff"/><path d="M937.4 880v1h225.2v-1M937.4 880h225.2" fill="#fff"/><path d="M937.4 880h225.2M937.4 845a5 5 0 0 1 5-5h215.2a5 5 0 0 1 5 5v30a5 5 0 0 1-5 5H942.4a5 5 0 0 1-5-5zM997.4 880" stroke="#282c33" fill="none"/><use xlink:href="#V" transform="matrix(1,0,0,1,947.389525329073,840) translate(39.9634375 26.089501953125)"/><path d="M1574.78 365a5 5 0 0 1 5-5H1795a5 5 0 0 1 5 5v30a5 5 0 0 1-5 5h-215.22a5 5 0 0 1-5-5z" fill="#fff"/><path d="M1574.78 400v-35a5 5 0 0 1 5-5H1795a5 5 0 0 1 5 5v35" fill="#e3fae3"/><path d="M1574.78 400v1H1800v-1" fill="#fff"/><path d="M1574.78 400v1H1800v-1" fill="#fff"/><path d="M1574.78 400v1H1800v-1" fill="#fff"/><path d="M1574.78 400v1H1800v-1M1574.78 400H1800" fill="#fff"/><path d="M1574.78 400H1800M1574.78 365a5 5 0 0 1 5-5H1795a5 5 0 0 1 5 5v30a5 5 0 0 1-5 5h-215.22a5 5 0 0 1-5-5zM1634.78 400" stroke="#282c33" fill="none"/><use xlink:href="#W" transform="matrix(1,0,0,1,1584.7790506581455,360) translate(43.43322753906249 26.089501953125)"/><path d="M1050 728v92.1M1050 708.82v20m-10-20l10 20m10-20l-10 20M1050 839.28v-20m10 20l-10-20m-10 20l10-20M1620.5 560h39.4a.1.1 0 0 0 .1-.1.1.1 0 0 1 .1-.08h19.4M1600.5 560h20m0 10v-20" stroke="#3a414a" fill="none"/><path d="M1719.28 559.82h-20m20-10l-20 10m20 10l-20-10m0 0c0 5.52-4.48 10-10 10-5.53 0-10-4.48-10-10 0-5.53 4.47-10 10-10 5.52 0 10 4.47 10 10z" stroke="#3a414a" fill="#fff"/><defs><path d="M537 14c-226 0-379-139-379-422v-710h180v695c0 172 97 275 253 275 160 0 281-109 281-300v-670h181V0H879v-209C806-46 684 14 537 14" id="X"/><path d="M538 24C308 24 148-78 108-271l171-41c32 123 123 178 257 178 156 0 256-77 256-169 0-77-54-128-164-154l-186-44c-203-48-300-148-300-305 0-192 176-326 414-326 230 0 351 112 402 269l-163 42c-31-80-94-158-238-158-133 0-233 69-233 162 0 83 57 129 188 160l169 40c203 48 298 149 298 302 0 196-179 339-441 339" id="Y"/><path d="M628 24c-324 0-524-230-524-574 0-343 198-582 503-582 237 0 487 146 487 559v75H286c9 234 145 362 343 362 132 0 231-58 273-172l174 48C1024-91 857 24 628 24zM287-650h624c-17-190-120-322-304-322-192 0-309 151-320 322" id="Z"/><path d="M158 0v-1118h174v172h12c41-113 157-188 290-188 26 0 70 2 91 3v181c-11-2-60-10-108-10-161 0-279 109-279 260V0H158" id="aa"/><g id="a"><use transform="matrix(0.008173828125000001,0,0,0.008173828125000001,0,0)" xlink:href="#X"/><use transform="matrix(0.008173828125000001,0,0,0.008173828125000001,9.898505859375001,0)" xlink:href="#Y"/><use transform="matrix(0.008173828125000001,0,0,0.008173828125000001,18.7344140625,0)" xlink:href="#Z"/><use transform="matrix(0.008173828125000001,0,0,0.008173828125000001,28.49396484375,0)" xlink:href="#aa"/><use transform="matrix(0.008173828125000001,0,0,0.008173828125000001,34.795986328125,0)" xlink:href="#Y"/></g><path d="M158 0v-1118h180V0H158zm91-1301c-68 0-125-53-125-119s57-119 125-119c69 0 126 53 126 119s-57 119-126 119" id="ab"/><path d="M577 24c-279 0-473-224-473-580 0-354 195-576 474-576 218 0 287 134 324 193h14v-551h180V0H922v-173h-20C865-111 790 24 577 24zm27-161c203 0 314-172 314-421 0-247-108-413-314-413-212 0-317 181-317 413 0 235 108 421 317 421" id="ac"/><g id="b"><use transform="matrix(0.008173828125000001,0,0,0.008173828125000001,0,0)" xlink:href="#ab"/><use transform="matrix(0.008173828125000001,0,0,0.008173828125000001,4.05421875,0)" xlink:href="#ac"/></g><path d="M180 0v-1490h510c348 0 508 209 508 474 0 266-160 477-507 477H370V0H180zm190-706h312c236 0 327-133 327-310 0-176-91-307-329-307H370v617" id="ad"/><path d="M180 0v-1490h190c0 262 1 526-3 784 217-279 467-523 702-784h249L716-845 1319 0h-225L585-716 370-489V0H180" id="ae"/><g id="c"><use transform="matrix(0.008173828125000001,0,0,0.008173828125000001,0,0)" xlink:href="#ad"/><use transform="matrix(0.008173828125000001,0,0,0.008173828125000001,10.691367187500001,0)" xlink:href="#ae"/></g><path d="M158 418v-1536h174v179h20c37-59 106-193 324-193 279 0 474 222 474 576 0 356-194 580-473 580-213 0-288-135-325-197h-14v591H158zm492-555c209 0 317-186 317-421 0-232-105-413-317-413-206 0-314 166-314 413 0 249 111 421 314 421" id="af"/><path d="M481 0L54-1118h197c107 314 236 620 325 951 87-331 217-637 324-951h197L670 0H481" id="ag"/><path d="M338-1490V0H158v-1490h180" id="ah"/><path d="M611 442c-248 0-391-105-460-228l146-94c47 65 117 165 314 165 178 0 307-82 307-266v-224h-17C863-141 792-18 576-18c-268 0-472-195-472-546 0-346 197-568 476-568 216 0 288 133 326 193h17v-179h175V29c0 289-215 413-487 413zm-5-620c203 0 314-146 314-390 0-237-108-403-314-403-213 0-319 180-319 403 0 230 109 390 319 390" id="ai"/><path d="M934 0v166H0V0h934" id="aj"/><g id="d"><use transform="matrix(0.008173828125000001,0,0,0.008173828125000001,0,0)" xlink:href="#af"/><use transform="matrix(0.008173828125000001,0,0,0.008173828125000001,10.249980468750001,0)" xlink:href="#aa"/><use transform="matrix(0.008173828125000001,0,0,0.008173828125000001,16.813564453125004,0)" xlink:href="#ab"/><use transform="matrix(0.008173828125000001,0,0,0.008173828125000001,20.867783203125004,0)" xlink:href="#ag"/><use transform="matrix(0.008173828125000001,0,0,0.008173828125000001,30.275859375000003,0)" xlink:href="#ab"/><use transform="matrix(0.008173828125000001,0,0,0.008173828125000001,34.330078125,0)" xlink:href="#ah"/><use transform="matrix(0.008173828125000001,0,0,0.008173828125000001,38.384296875000004,0)" xlink:href="#Z"/><use transform="matrix(0.008173828125000001,0,0,0.008173828125000001,48.14384765625,0)" xlink:href="#ai"/><use transform="matrix(0.008173828125000001,0,0,0.008173828125000001,58.410175781250004,0)" xlink:href="#Z"/><use transform="matrix(0.008173828125000001,0,0,0.008173828125000001,68.1697265625,0)" xlink:href="#Y"/><use transform="matrix(0.008173828125000001,0,0,0.008173828125000001,77.005634765625,0)" xlink:href="#aj"/><use transform="matrix(0.008173828125000001,0,0,0.008173828125000001,85.203984375,0)" xlink:href="#ab"/><use transform="matrix(0.008173828125000001,0,0,0.008173828125000001,89.25820312500001,0)" xlink:href="#ac"/></g><path d="M180 0v-1490h901v168H370v510h643v168H370V0H180" id="ak"/><g id="e"><use transform="matrix(0.008173828125000001,0,0,0.008173828125000001,0,0)" xlink:href="#ak"/><use transform="matrix(0.008173828125000001,0,0,0.008173828125000001,9.882158203125002,0)" xlink:href="#ae"/></g><path d="M677 24c-213 0-288-135-325-197h-20V0H158v-1490h180v551h14c37-59 106-193 324-193 279 0 474 222 474 576 0 356-194 580-473 580zm-27-161c209 0 317-186 317-421 0-232-105-413-317-413-206 0-314 166-314 413 0 249 111 421 314 421" id="al"/><path d="M613 24c-304 0-509-231-509-576 0-350 205-580 509-580 216 0 392 114 453 309l-173 49c-33-115-133-197-280-197-223 0-326 196-326 419 0 220 103 415 326 415 150 0 252-85 285-206l172 49C1010-95 832 24 613 24" id="am"/><path d="M598-1118v154H368v674c0 100 37 144 132 144 23 0 62-6 92-12L629-6c-37 13-88 20-134 20-193 0-307-107-307-290v-688H20v-154h168v-266h180v266h230" id="an"/><path d="M613 24c-304 0-509-231-509-576 0-350 205-580 509-580 305 0 511 230 511 580 0 345-206 576-511 576zm0-161c226 0 329-195 329-415 0-222-103-419-329-419-223 0-326 196-326 419 0 220 103 415 326 415" id="ao"/><path d="M338-670V0H158v-1118h173l1 207c72-158 192-221 342-221 226 0 378 139 378 422V0H872v-695c0-172-96-275-252-275-161 0-282 109-282 300" id="ap"/><g id="f"><use transform="matrix(0.008173828125000001,0,0,0.008173828125000001,0,0)" xlink:href="#Y"/><use transform="matrix(0.008173828125000001,0,0,0.008173828125000001,8.835908203125001,0)" xlink:href="#X"/><use transform="matrix(0.008173828125000001,0,0,0.008173828125000001,18.7344140625,0)" xlink:href="#al"/><use transform="matrix(0.008173828125000001,0,0,0.008173828125000001,28.984394531250004,0)" xlink:href="#Y"/><use transform="matrix(0.008173828125000001,0,0,0.008173828125000001,37.820302734375005,0)" xlink:href="#am"/><use transform="matrix(0.008173828125000001,0,0,0.008173828125000001,47.38368164062501,0)" xlink:href="#aa"/><use transform="matrix(0.008173828125000001,0,0,0.008173828125000001,53.947265625,0)" xlink:href="#ab"/><use transform="matrix(0.008173828125000001,0,0,0.008173828125000001,58.001484375000004,0)" xlink:href="#af"/><use transform="matrix(0.008173828125000001,0,0,0.008173828125000001,68.25146484375,0)" xlink:href="#an"/><use transform="matrix(0.008173828125000001,0,0,0.008173828125000001,73.7279296875,0)" xlink:href="#ab"/><use transform="matrix(0.008173828125000001,0,0,0.008173828125000001,77.7821484375,0)" xlink:href="#ao"/><use transform="matrix(0.008173828125000001,0,0,0.008173828125000001,87.819609375,0)" xlink:href="#ap"/><use transform="matrix(0.008173828125000001,0,0,0.008173828125000001,97.70994140625,0)" xlink:href="#aj"/><use transform="matrix(0.008173828125000001,0,0,0.008173828125000001,105.908291015625,0)" xlink:href="#ab"/><use transform="matrix(0.008173828125000001,0,0,0.008173828125000001,109.962509765625,0)" xlink:href="#ac"/></g><path d="M678-1118v154H420V0H240v-964H20v-154h220v-149c0-194 155-293 318-293 85 0 141 18 168 30l-50 154c-19-6-47-17-97-17-111 0-159 58-159 166v109h258" id="aq"/><path d="M471 26C259 26 90-98 90-318c0-256 228-303 435-329 202-27 287-16 287-108 0-139-79-219-234-219-161 0-248 86-283 164l-173-57c86-203 278-265 451-265 150 0 419 46 419 395V0H815v-152h-12C765-73 660 26 471 26zm31-159c199 0 310-134 310-271v-155c-30 35-226 55-295 64-131 17-246 59-246 186 0 116 97 176 231 176" id="ar"/><path d="M158 0v-1118h175l1 205c55-151 181-225 313-225 147 0 245 90 285 228 53-141 190-228 352-228 194 0 352 125 352 384V0h-181v-749c0-161-105-225-225-225-151 0-243 103-243 244V0H807v-767c0-124-93-207-219-207-131 0-250 92-250 270V0H158" id="as"/><g id="g"><use transform="matrix(0.008173828125000001,0,0,0.008173828125000001,0,0)" xlink:href="#aq"/><use transform="matrix(0.008173828125000001,0,0,0.008173828125000001,6.195761718750001,0)" xlink:href="#ab"/><use transform="matrix(0.008173828125000001,0,0,0.008173828125000001,10.249980468750001,0)" xlink:href="#aa"/><use transform="matrix(0.008173828125000001,0,0,0.008173828125000001,16.552001953125,0)" xlink:href="#Y"/><use transform="matrix(0.008173828125000001,0,0,0.008173828125000001,25.387910156249998,0)" xlink:href="#an"/><use transform="matrix(0.008173828125000001,0,0,0.008173828125000001,30.864375000000003,0)" xlink:href="#aj"/><use transform="matrix(0.008173828125000001,0,0,0.008173828125000001,39.062724609375,0)" xlink:href="#ap"/><use transform="matrix(0.008173828125000001,0,0,0.008173828125000001,48.95305664062501,0)" xlink:href="#ar"/><use transform="matrix(0.008173828125000001,0,0,0.008173828125000001,58.35295898437501,0)" xlink:href="#as"/><use transform="matrix(0.008173828125000001,0,0,0.008173828125000001,73.016806640625,0)" xlink:href="#Z"/></g><path d="M338-670V0H158v-1490h180v566c73-149 190-208 336-208 226 0 379 139 379 422V0H872v-695c0-172-96-275-252-275-161 0-282 109-282 300" id="at"/><path d="M218-607c0-325 108-727 258-974h175c-155 315-250 682-250 974 0 265 78 531 250 886H476C306-10 218-315 218-607" id="au"/><path d="M154 0v-137l495-537c165-179 249-281 249-418 0-156-121-253-280-253-170 0-278 110-278 278H158c0-264 200-443 465-443 266 0 455 183 455 416 0 161-73 288-336 568L416-179v12h687V0H154" id="av"/><path d="M626 20c-262 0-458-168-468-396h184c12 133 134 229 284 229 180 0 311-137 311-326 0-192-136-335-323-335-92 0-196 33-255 78l-178-22 88-738h784v167H429l-51 435h8c61-51 160-87 263-87 273 0 474 211 474 499 0 286-210 496-497 496" id="aw"/><path d="M96 279C273-86 346-350 346-607c0-292-95-659-250-974h175c150 246 258 650 258 974 0 297-91 602-258 886H96" id="ax"/><g id="h"><use transform="matrix(0.008173828125000001,0,0,0.008173828125000001,0,0)" xlink:href="#ag"/><use transform="matrix(0.008173828125000001,0,0,0.008173828125000001,9.326337890625,0)" xlink:href="#ar"/><use transform="matrix(0.008173828125000001,0,0,0.008173828125000001,18.726240234375002,0)" xlink:href="#aa"/><use transform="matrix(0.008173828125000001,0,0,0.008173828125000001,24.7503515625,0)" xlink:href="#am"/><use transform="matrix(0.008173828125000001,0,0,0.008173828125000001,34.31373046875,0)" xlink:href="#at"/><use transform="matrix(0.008173828125000001,0,0,0.008173828125000001,44.212236328125,0)" xlink:href="#ar"/><use transform="matrix(0.008173828125000001,0,0,0.008173828125000001,53.612138671875,0)" xlink:href="#aa"/><use transform="matrix(0.008173828125000001,0,0,0.008173828125000001,59.914160156250006,0)" xlink:href="#au"/><use transform="matrix(0.008173828125000001,0,0,0.008173828125000001,66.020009765625,0)" xlink:href="#av"/><use transform="matrix(0.008173828125000001,0,0,0.008173828125000001,76.22912109375001,0)" xlink:href="#aw"/><use transform="matrix(0.008173828125000001,0,0,0.008173828125000001,86.40553710937502,0)" xlink:href="#aw"/><use transform="matrix(0.008173828125000001,0,0,0.008173828125000001,96.58195312500001,0)" xlink:href="#ax"/></g><g id="i"><use transform="matrix(0.008173828125000001,0,0,0.008173828125000001,0,0)" xlink:href="#ah"/><use transform="matrix(0.008173828125000001,0,0,0.008173828125000001,4.05421875,0)" xlink:href="#ar"/><use transform="matrix(0.008173828125000001,0,0,0.008173828125000001,13.454121093750002,0)" xlink:href="#Y"/><use transform="matrix(0.008173828125000001,0,0,0.008173828125000001,22.290029296875005,0)" xlink:href="#an"/><use transform="matrix(0.008173828125000001,0,0,0.008173828125000001,27.766494140625007,0)" xlink:href="#aj"/><use transform="matrix(0.008173828125000001,0,0,0.008173828125000001,35.96484375000001,0)" xlink:href="#ap"/><use transform="matrix(0.008173828125000001,0,0,0.008173828125000001,45.85517578125001,0)" xlink:href="#ar"/><use transform="matrix(0.008173828125000001,0,0,0.008173828125000001,55.25507812500001,0)" xlink:href="#as"/><use transform="matrix(0.008173828125000001,0,0,0.008173828125000001,69.91892578125001,0)" xlink:href="#Z"/></g><g id="j"><use transform="matrix(0.008173828125000001,0,0,0.008173828125000001,0,0)" xlink:href="#Z"/><use transform="matrix(0.008173828125000001,0,0,0.008173828125000001,9.75955078125,0)" xlink:href="#as"/><use transform="matrix(0.008173828125000001,0,0,0.008173828125000001,24.42339843750001,0)" xlink:href="#ar"/><use transform="matrix(0.008173828125000001,0,0,0.008173828125000001,33.823300781250005,0)" xlink:href="#ab"/><use transform="matrix(0.008173828125000001,0,0,0.008173828125000001,37.87751953125,0)" xlink:href="#ah"/></g><path d="M409 0L70-1118h191c89 329 165 560 243 925 75-353 154-601 240-925h192c85 325 161 564 235 922 77-354 157-598 244-922h191L1267 0h-179c-86-307-176-590-250-913C763-588 675-308 588 0H409" id="ay"/><g id="k"><use transform="matrix(0.008173828125000001,0,0,0.008173828125000001,0,0)" xlink:href="#af"/><use transform="matrix(0.008173828125000001,0,0,0.008173828125000001,10.413457031250001,0)" xlink:href="#ar"/><use transform="matrix(0.008173828125000001,0,0,0.008173828125000001,19.813359375000005,0)" xlink:href="#Y"/><use transform="matrix(0.008173828125000001,0,0,0.008173828125000001,28.649267578125006,0)" xlink:href="#Y"/><use transform="matrix(0.008173828125000001,0,0,0.008173828125000001,37.48517578125001,0)" xlink:href="#ay"/><use transform="matrix(0.008173828125000001,0,0,0.008173828125000001,50.88208007812501,0)" xlink:href="#ao"/><use transform="matrix(0.008173828125000001,0,0,0.008173828125000001,60.91954101562501,0)" xlink:href="#aa"/><use transform="matrix(0.008173828125000001,0,0,0.008173828125000001,66.94365234375,0)" xlink:href="#ac"/><use transform="matrix(0.008173828125000001,0,0,0.008173828125000001,77.1936328125,0)" xlink:href="#aj"/><use transform="matrix(0.008173828125000001,0,0,0.008173828125000001,85.391982421875,0)" xlink:href="#at"/><use transform="matrix(0.008173828125000001,0,0,0.008173828125000001,95.29048828125,0)" xlink:href="#ar"/><use transform="matrix(0.008173828125000001,0,0,0.008173828125000001,104.690390625,0)" xlink:href="#Y"/><use transform="matrix(0.008173828125000001,0,0,0.008173828125000001,113.52629882812501,0)" xlink:href="#at"/></g><path d="M65 0l393-574-370-544h210c88 136 192 297 267 435 67-142 176-302 264-435h206L661-564 1053 0H844c-94-144-206-310-287-458C484-308 366-142 273 0H65" id="az"/><g id="l"><use transform="matrix(0.008173828125000001,0,0,0.008173828125000001,0,0)" xlink:href="#an"/><use transform="matrix(0.008173828125000001,0,0,0.008173828125000001,5.312988281250001,0)" xlink:href="#Z"/><use transform="matrix(0.008173828125000001,0,0,0.008173828125000001,14.696542968750002,0)" xlink:href="#az"/><use transform="matrix(0.008173828125000001,0,0,0.008173828125000001,24.1618359375,0)" xlink:href="#an"/></g><g id="m"><use transform="matrix(0.008173828125000001,0,0,0.008173828125000001,0,0)" xlink:href="#Y"/><use transform="matrix(0.008173828125000001,0,0,0.008173828125000001,8.835908203125001,0)" xlink:href="#X"/><use transform="matrix(0.008173828125000001,0,0,0.008173828125000001,18.7344140625,0)" xlink:href="#al"/><use transform="matrix(0.008173828125000001,0,0,0.008173828125000001,28.984394531250004,0)" xlink:href="#Y"/><use transform="matrix(0.008173828125000001,0,0,0.008173828125000001,37.820302734375005,0)" xlink:href="#am"/><use transform="matrix(0.008173828125000001,0,0,0.008173828125000001,47.38368164062501,0)" xlink:href="#aa"/><use transform="matrix(0.008173828125000001,0,0,0.008173828125000001,53.947265625,0)" xlink:href="#ab"/><use transform="matrix(0.008173828125000001,0,0,0.008173828125000001,58.001484375000004,0)" xlink:href="#af"/><use transform="matrix(0.008173828125000001,0,0,0.008173828125000001,68.25146484375,0)" xlink:href="#an"/><use transform="matrix(0.008173828125000001,0,0,0.008173828125000001,73.7279296875,0)" xlink:href="#ab"/><use transform="matrix(0.008173828125000001,0,0,0.008173828125000001,77.7821484375,0)" xlink:href="#ao"/><use transform="matrix(0.008173828125000001,0,0,0.008173828125000001,87.819609375,0)" xlink:href="#ap"/><use transform="matrix(0.008173828125000001,0,0,0.008173828125000001,97.70994140625,0)" xlink:href="#Y"/></g><g id="n"><use transform="matrix(0.008173828125000001,0,0,0.008173828125000001,0,0)" xlink:href="#ad"/><use transform="matrix(0.008173828125000001,0,0,0.008173828125000001,10.691367187500001,0)" xlink:href="#ae"/></g><g id="o"><use transform="matrix(0.008173828125000001,0,0,0.008173828125000001,0,0)" xlink:href="#ap"/><use transform="matrix(0.008173828125000001,0,0,0.008173828125000001,9.89033203125,0)" xlink:href="#ar"/><use transform="matrix(0.008173828125000001,0,0,0.008173828125000001,19.290234375000004,0)" xlink:href="#as"/><use transform="matrix(0.008173828125000001,0,0,0.008173828125000001,33.95408203125001,0)" xlink:href="#Z"/></g><g id="p"><use transform="matrix(0.008173828125000001,0,0,0.008173828125000001,0,0)" xlink:href="#af"/><use transform="matrix(0.008173828125000001,0,0,0.008173828125000001,10.249980468750001,0)" xlink:href="#aa"/><use transform="matrix(0.008173828125000001,0,0,0.008173828125000001,16.813564453125004,0)" xlink:href="#ab"/><use transform="matrix(0.008173828125000001,0,0,0.008173828125000001,20.867783203125004,0)" xlink:href="#am"/><use transform="matrix(0.008173828125000001,0,0,0.008173828125000001,30.43116210937501,0)" xlink:href="#Z"/></g><g id="q"><use transform="matrix(0.008173828125000001,0,0,0.008173828125000001,0,0)" xlink:href="#Y"/><use transform="matrix(0.008173828125000001,0,0,0.008173828125000001,8.835908203125001,0)" xlink:href="#as"/><use transform="matrix(0.008173828125000001,0,0,0.008173828125000001,23.499755859375004,0)" xlink:href="#ar"/><use transform="matrix(0.008173828125000001,0,0,0.008173828125000001,32.89965820312501,0)" xlink:href="#ah"/><use transform="matrix(0.008173828125000001,0,0,0.008173828125000001,36.953876953125004,0)" xlink:href="#ah"/><use transform="matrix(0.008173828125000001,0,0,0.008173828125000001,41.00809570312501,0)" xlink:href="#ab"/><use transform="matrix(0.008173828125000001,0,0,0.008173828125000001,45.06231445312501,0)" xlink:href="#ap"/><use transform="matrix(0.008173828125000001,0,0,0.008173828125000001,54.95264648437501,0)" xlink:href="#an"/></g><g id="r"><use transform="matrix(0.008173828125000001,0,0,0.008173828125000001,0,0)" xlink:href="#af"/><use transform="matrix(0.008173828125000001,0,0,0.008173828125000001,10.249980468750001,0)" xlink:href="#aa"/><use transform="matrix(0.008173828125000001,0,0,0.008173828125000001,16.813564453125004,0)" xlink:href="#ab"/><use transform="matrix(0.008173828125000001,0,0,0.008173828125000001,20.867783203125004,0)" xlink:href="#ag"/><use transform="matrix(0.008173828125000001,0,0,0.008173828125000001,30.275859375000003,0)" xlink:href="#ab"/><use transform="matrix(0.008173828125000001,0,0,0.008173828125000001,34.330078125,0)" xlink:href="#ah"/><use transform="matrix(0.008173828125000001,0,0,0.008173828125000001,38.384296875000004,0)" xlink:href="#Z"/><use transform="matrix(0.008173828125000001,0,0,0.008173828125000001,48.14384765625,0)" xlink:href="#ai"/><use transform="matrix(0.008173828125000001,0,0,0.008173828125000001,58.410175781250004,0)" xlink:href="#Z"/><use transform="matrix(0.008173828125000001,0,0,0.008173828125000001,68.1697265625,0)" xlink:href="#Y"/></g><g id="s"><use transform="matrix(0.008173828125000001,0,0,0.008173828125000001,0,0)" xlink:href="#ag"/><use transform="matrix(0.008173828125000001,0,0,0.008173828125000001,9.326337890625,0)" xlink:href="#ar"/><use transform="matrix(0.008173828125000001,0,0,0.008173828125000001,18.726240234375002,0)" xlink:href="#aa"/><use transform="matrix(0.008173828125000001,0,0,0.008173828125000001,24.7503515625,0)" xlink:href="#am"/><use transform="matrix(0.008173828125000001,0,0,0.008173828125000001,34.31373046875,0)" xlink:href="#at"/><use transform="matrix(0.008173828125000001,0,0,0.008173828125000001,44.212236328125,0)" xlink:href="#ar"/><use transform="matrix(0.008173828125000001,0,0,0.008173828125000001,53.612138671875,0)" xlink:href="#aa"/><use transform="matrix(0.008173828125000001,0,0,0.008173828125000001,59.914160156250006,0)" xlink:href="#au"/><use transform="matrix(0.008173828125000001,0,0,0.008173828125000001,66.020009765625,0)" xlink:href="#av"/><use transform="matrix(0.008173828125000001,0,0,0.008173828125000001,76.22912109375001,0)" xlink:href="#aw"/><use transform="matrix(0.008173828125000001,0,0,0.008173828125000001,86.40553710937502,0)" xlink:href="#aw"/><use transform="matrix(0.008173828125000001,0,0,0.008173828125000001,96.58195312500001,0)" xlink:href="#ax"/></g><g id="t"><use transform="matrix(0.008173828125000001,0,0,0.008173828125000001,0,0)" xlink:href="#ay"/><use transform="matrix(0.008173828125000001,0,0,0.008173828125000001,13.6993359375,0)" xlink:href="#ar"/><use transform="matrix(0.008173828125000001,0,0,0.008173828125000001,23.099238281250003,0)" xlink:href="#an"/><use transform="matrix(0.008173828125000001,0,0,0.008173828125000001,28.412226562500003,0)" xlink:href="#am"/><use transform="matrix(0.008173828125000001,0,0,0.008173828125000001,37.975605468750004,0)" xlink:href="#at"/><use transform="matrix(0.008173828125000001,0,0,0.008173828125000001,47.874111328125004,0)" xlink:href="#aj"/><use transform="matrix(0.008173828125000001,0,0,0.008173828125000001,56.072460937500004,0)" xlink:href="#ah"/><use transform="matrix(0.008173828125000001,0,0,0.008173828125000001,60.1266796875,0)" xlink:href="#ab"/><use transform="matrix(0.008173828125000001,0,0,0.008173828125000001,64.1808984375,0)" xlink:href="#Y"/><use transform="matrix(0.008173828125000001,0,0,0.008173828125000001,73.016806640625,0)" xlink:href="#an"/><use transform="matrix(0.008173828125000001,0,0,0.008173828125000001,78.329794921875,0)" xlink:href="#Y"/></g><g id="u"><use transform="matrix(0.008173828125000001,0,0,0.008173828125000001,0,0)" xlink:href="#af"/><use transform="matrix(0.008173828125000001,0,0,0.008173828125000001,10.249980468750001,0)" xlink:href="#aa"/><use transform="matrix(0.008173828125000001,0,0,0.008173828125000001,16.274091796875002,0)" xlink:href="#ao"/><use transform="matrix(0.008173828125000001,0,0,0.008173828125000001,26.311552734375002,0)" xlink:href="#aq"/><use transform="matrix(0.008173828125000001,0,0,0.008173828125000001,32.507314453125005,0)" xlink:href="#ab"/><use transform="matrix(0.008173828125000001,0,0,0.008173828125000001,36.56153320312501,0)" xlink:href="#ah"/><use transform="matrix(0.008173828125000001,0,0,0.008173828125000001,40.61575195312501,0)" xlink:href="#Z"/><use transform="matrix(0.008173828125000001,0,0,0.008173828125000001,50.37530273437501,0)" xlink:href="#Y"/><use transform="matrix(0.008173828125000001,0,0,0.008173828125000001,59.21121093750001,0)" xlink:href="#aj"/><use transform="matrix(0.008173828125000001,0,0,0.008173828125000001,67.40956054687501,0)" xlink:href="#ab"/><use transform="matrix(0.008173828125000001,0,0,0.008173828125000001,71.46377929687502,0)" xlink:href="#ac"/></g><g id="v"><use transform="matrix(0.008173828125000001,0,0,0.008173828125000001,0,0)" xlink:href="#ak"/><use transform="matrix(0.008173828125000001,0,0,0.008173828125000001,9.882158203125002,0)" xlink:href="#ae"/></g><path d="M158 0v-1490h180v865h22l478-493h223L593-638 1096 0H865L456-523 338-412V0H158" id="aA"/><g id="w"><use transform="matrix(0.008173828125000001,0,0,0.008173828125000001,0,0)" xlink:href="#ab"/><use transform="matrix(0.008173828125000001,0,0,0.008173828125000001,4.05421875,0)" xlink:href="#Y"/><use transform="matrix(0.008173828125000001,0,0,0.008173828125000001,12.890126953125002,0)" xlink:href="#aj"/><use transform="matrix(0.008173828125000001,0,0,0.008173828125000001,21.088476562500002,0)" xlink:href="#ah"/><use transform="matrix(0.008173828125000001,0,0,0.008173828125000001,25.142695312500003,0)" xlink:href="#ao"/><use transform="matrix(0.008173828125000001,0,0,0.008173828125000001,35.18015625,0)" xlink:href="#am"/><use transform="matrix(0.008173828125000001,0,0,0.008173828125000001,44.743535156250005,0)" xlink:href="#aA"/><use transform="matrix(0.008173828125000001,0,0,0.008173828125000001,53.554921875000005,0)" xlink:href="#Z"/><use transform="matrix(0.008173828125000001,0,0,0.008173828125000001,63.314472656250004,0)" xlink:href="#ac"/></g><g id="x"><use transform="matrix(0.008173828125000001,0,0,0.008173828125000001,0,0)" xlink:href="#al"/><use transform="matrix(0.008173828125000001,0,0,0.008173828125000001,10.249980468750001,0)" xlink:href="#ao"/><use transform="matrix(0.008173828125000001,0,0,0.008173828125000001,20.287441406250004,0)" xlink:href="#ao"/><use transform="matrix(0.008173828125000001,0,0,0.008173828125000001,30.324902343750004,0)" xlink:href="#ah"/><use transform="matrix(0.008173828125000001,0,0,0.008173828125000001,34.37912109375,0)" xlink:href="#Z"/><use transform="matrix(0.008173828125000001,0,0,0.008173828125000001,44.302148437499994,0)" xlink:href="#ar"/><use transform="matrix(0.008173828125000001,0,0,0.008173828125000001,53.70205078125,0)" xlink:href="#ap"/></g><g id="y"><use transform="matrix(0.008173828125000001,0,0,0.008173828125000001,0,0)" xlink:href="#af"/><use transform="matrix(0.008173828125000001,0,0,0.008173828125000001,10.249980468750001,0)" xlink:href="#aa"/><use transform="matrix(0.008173828125000001,0,0,0.008173828125000001,16.274091796875002,0)" xlink:href="#ao"/><use transform="matrix(0.008173828125000001,0,0,0.008173828125000001,26.311552734375002,0)" xlink:href="#aq"/><use transform="matrix(0.008173828125000001,0,0,0.008173828125000001,32.507314453125005,0)" xlink:href="#ab"/><use transform="matrix(0.008173828125000001,0,0,0.008173828125000001,36.56153320312501,0)" xlink:href="#ah"/><use transform="matrix(0.008173828125000001,0,0,0.008173828125000001,40.61575195312501,0)" xlink:href="#Z"/><use transform="matrix(0.008173828125000001,0,0,0.008173828125000001,50.37530273437501,0)" xlink:href="#Y"/></g><g id="z"><use transform="matrix(0.008173828125000001,0,0,0.008173828125000001,0,0)" xlink:href="#ab"/><use transform="matrix(0.008173828125000001,0,0,0.008173828125000001,4.05421875,0)" xlink:href="#Y"/><use transform="matrix(0.008173828125000001,0,0,0.008173828125000001,12.890126953125002,0)" xlink:href="#aj"/><use transform="matrix(0.008173828125000001,0,0,0.008173828125000001,20.524482421875003,0)" xlink:href="#am"/><use transform="matrix(0.008173828125000001,0,0,0.008173828125000001,30.087861328125005,0)" xlink:href="#at"/><use transform="matrix(0.008173828125000001,0,0,0.008173828125000001,39.98636718750001,0)" xlink:href="#ab"/><use transform="matrix(0.008173828125000001,0,0,0.008173828125000001,44.04058593750001,0)" xlink:href="#ah"/><use transform="matrix(0.008173828125000001,0,0,0.008173828125000001,48.094804687500016,0)" xlink:href="#ac"/></g><g id="A"><use transform="matrix(0.008173828125000001,0,0,0.008173828125000001,0,0)" xlink:href="#as"/><use transform="matrix(0.008173828125000001,0,0,0.008173828125000001,14.663847656250002,0)" xlink:href="#Z"/><use transform="matrix(0.008173828125000001,0,0,0.008173828125000001,24.42339843750001,0)" xlink:href="#ac"/><use transform="matrix(0.008173828125000001,0,0,0.008173828125000001,34.673378906250015,0)" xlink:href="#ab"/><use transform="matrix(0.008173828125000001,0,0,0.008173828125000001,38.72759765625001,0)" xlink:href="#ar"/><use transform="matrix(0.008173828125000001,0,0,0.008173828125000001,48.12750000000001,0)" xlink:href="#Y"/></g><path d="M140 405l46-156c120 36 205 19 263-150l32-93L54-1118h197c107 313 237 620 324 950 87-331 219-637 326-950h196L606 167c-68 178-176 259-334 259-64 0-113-12-132-21" id="aB"/><g id="B"><use transform="matrix(0.008173828125000001,0,0,0.008173828125000001,0,0)" xlink:href="#an"/><use transform="matrix(0.008173828125000001,0,0,0.008173828125000001,5.803417968750001,0)" xlink:href="#aB"/><use transform="matrix(0.008173828125000001,0,0,0.008173828125000001,15.211494140625001,0)" xlink:href="#af"/><use transform="matrix(0.008173828125000001,0,0,0.008173828125000001,25.461474609375003,0)" xlink:href="#Z"/></g><g id="C"><use transform="matrix(0.008173828125000001,0,0,0.008173828125000001,0,0)" xlink:href="#aa"/><use transform="matrix(0.008173828125000001,0,0,0.008173828125000001,6.302021484375,0)" xlink:href="#X"/><use transform="matrix(0.008173828125000001,0,0,0.008173828125000001,16.200527343750004,0)" xlink:href="#ap"/><use transform="matrix(0.008173828125000001,0,0,0.008173828125000001,26.090859375000004,0)" xlink:href="#an"/><use transform="matrix(0.008173828125000001,0,0,0.008173828125000001,31.567324218750006,0)" xlink:href="#ab"/><use transform="matrix(0.008173828125000001,0,0,0.008173828125000001,35.621542968750006,0)" xlink:href="#as"/><use transform="matrix(0.008173828125000001,0,0,0.008173828125000001,50.285390625000005,0)" xlink:href="#Z"/></g><g id="D"><use transform="matrix(0.008173828125000001,0,0,0.008173828125000001,0,0)" xlink:href="#ac"/><use transform="matrix(0.008173828125000001,0,0,0.008173828125000001,10.249980468750001,0)" xlink:href="#Z"/><use transform="matrix(0.008173828125000001,0,0,0.008173828125000001,20.009531250000002,0)" xlink:href="#Y"/><use transform="matrix(0.008173828125000001,0,0,0.008173828125000001,28.845439453125003,0)" xlink:href="#am"/><use transform="matrix(0.008173828125000001,0,0,0.008173828125000001,38.408818359375005,0)" xlink:href="#aa"/><use transform="matrix(0.008173828125000001,0,0,0.008173828125000001,44.972402343750005,0)" xlink:href="#ab"/><use transform="matrix(0.008173828125000001,0,0,0.008173828125000001,49.02662109375001,0)" xlink:href="#af"/><use transform="matrix(0.008173828125000001,0,0,0.008173828125000001,59.27660156250001,0)" xlink:href="#an"/><use transform="matrix(0.008173828125000001,0,0,0.008173828125000001,64.75306640625001,0)" xlink:href="#ab"/><use transform="matrix(0.008173828125000001,0,0,0.008173828125000001,68.80728515625002,0)" xlink:href="#ao"/><use transform="matrix(0.008173828125000001,0,0,0.008173828125000001,78.84474609375002,0)" xlink:href="#ap"/></g><g id="E"><use transform="matrix(0.008173828125000001,0,0,0.008173828125000001,0,0)" xlink:href="#an"/><use transform="matrix(0.008173828125000001,0,0,0.008173828125000001,5.312988281250001,0)" xlink:href="#Z"/><use transform="matrix(0.008173828125000001,0,0,0.008173828125000001,14.696542968750002,0)" xlink:href="#az"/><use transform="matrix(0.008173828125000001,0,0,0.008173828125000001,24.1618359375,0)" xlink:href="#an"/></g><g id="F"><use transform="matrix(0.008173828125000001,0,0,0.008173828125000001,0,0)" xlink:href="#am"/><use transform="matrix(0.008173828125000001,0,0,0.008173828125000001,9.563378906250001,0)" xlink:href="#ao"/><use transform="matrix(0.008173828125000001,0,0,0.008173828125000001,19.273886718750003,0)" xlink:href="#ag"/><use transform="matrix(0.008173828125000001,0,0,0.008173828125000001,28.355009765625006,0)" xlink:href="#Z"/><use transform="matrix(0.008173828125000001,0,0,0.008173828125000001,38.114560546875005,0)" xlink:href="#aa"/></g><g id="G"><use transform="matrix(0.008173828125000001,0,0,0.008173828125000001,0,0)" xlink:href="#Z"/><use transform="matrix(0.008173828125000001,0,0,0.008173828125000001,9.75955078125,0)" xlink:href="#af"/><use transform="matrix(0.008173828125000001,0,0,0.008173828125000001,20.009531250000002,0)" xlink:href="#ab"/><use transform="matrix(0.008173828125000001,0,0,0.008173828125000001,24.063750000000002,0)" xlink:href="#Y"/><use transform="matrix(0.008173828125000001,0,0,0.008173828125000001,32.899658203125,0)" xlink:href="#ao"/><use transform="matrix(0.008173828125000001,0,0,0.008173828125000001,42.937119140625,0)" xlink:href="#ac"/><use transform="matrix(0.008173828125000001,0,0,0.008173828125000001,53.187099609375004,0)" xlink:href="#Z"/><use transform="matrix(0.008173828125000001,0,0,0.008173828125000001,62.946650390625,0)" xlink:href="#Y"/></g><g id="H"><use transform="matrix(0.008173828125000001,0,0,0.008173828125000001,0,0)" xlink:href="#as"/><use transform="matrix(0.008173828125000001,0,0,0.008173828125000001,14.663847656250002,0)" xlink:href="#Z"/><use transform="matrix(0.008173828125000001,0,0,0.008173828125000001,24.42339843750001,0)" xlink:href="#ac"/><use transform="matrix(0.008173828125000001,0,0,0.008173828125000001,34.673378906250015,0)" xlink:href="#ab"/><use transform="matrix(0.008173828125000001,0,0,0.008173828125000001,38.72759765625001,0)" xlink:href="#ar"/><use transform="matrix(0.008173828125000001,0,0,0.008173828125000001,48.12750000000001,0)" xlink:href="#Y"/><use transform="matrix(0.008173828125000001,0,0,0.008173828125000001,56.96340820312501,0)" xlink:href="#aj"/><use transform="matrix(0.008173828125000001,0,0,0.008173828125000001,65.16175781250001,0)" xlink:href="#ab"/><use transform="matrix(0.008173828125000001,0,0,0.008173828125000001,69.21597656250002,0)" xlink:href="#ac"/></g><g id="I"><use transform="matrix(0.008173828125000001,0,0,0.008173828125000001,0,0)" xlink:href="#Y"/><use transform="matrix(0.008173828125000001,0,0,0.008173828125000001,8.835908203125001,0)" xlink:href="#Z"/><use transform="matrix(0.008173828125000001,0,0,0.008173828125000001,18.758935546875,0)" xlink:href="#ar"/><use transform="matrix(0.008173828125000001,0,0,0.008173828125000001,28.158837890624998,0)" xlink:href="#Y"/><use transform="matrix(0.008173828125000001,0,0,0.008173828125000001,36.99474609375,0)" xlink:href="#ao"/><use transform="matrix(0.008173828125000001,0,0,0.008173828125000001,47.03220703125,0)" xlink:href="#ap"/><use transform="matrix(0.008173828125000001,0,0,0.008173828125000001,56.92253906250001,0)" xlink:href="#aj"/><use transform="matrix(0.008173828125000001,0,0,0.008173828125000001,65.12088867187501,0)" xlink:href="#ap"/><use transform="matrix(0.008173828125000001,0,0,0.008173828125000001,75.011220703125,0)" xlink:href="#X"/><use transform="matrix(0.008173828125000001,0,0,0.008173828125000001,84.90972656250001,0)" xlink:href="#as"/><use transform="matrix(0.008173828125000001,0,0,0.008173828125000001,99.57357421875001,0)" xlink:href="#al"/><use transform="matrix(0.008173828125000001,0,0,0.008173828125000001,109.8235546875,0)" xlink:href="#Z"/><use transform="matrix(0.008173828125000001,0,0,0.008173828125000001,119.58310546875,0)" xlink:href="#aa"/></g><g id="J"><use transform="matrix(0.008173828125000001,0,0,0.008173828125000001,0,0)" xlink:href="#ai"/><use transform="matrix(0.008173828125000001,0,0,0.008173828125000001,10.266328125000001,0)" xlink:href="#Z"/><use transform="matrix(0.008173828125000001,0,0,0.008173828125000001,20.02587890625,0)" xlink:href="#ap"/><use transform="matrix(0.008173828125000001,0,0,0.008173828125000001,29.9162109375,0)" xlink:href="#aa"/><use transform="matrix(0.008173828125000001,0,0,0.008173828125000001,35.940322265625,0)" xlink:href="#Z"/><use transform="matrix(0.008173828125000001,0,0,0.008173828125000001,45.699873046875,0)" xlink:href="#Y"/></g><g id="K"><use transform="matrix(0.008173828125000001,0,0,0.008173828125000001,0,0)" xlink:href="#af"/><use transform="matrix(0.008173828125000001,0,0,0.008173828125000001,10.249980468750001,0)" xlink:href="#Z"/><use transform="matrix(0.008173828125000001,0,0,0.008173828125000001,20.009531250000002,0)" xlink:href="#aa"/><use transform="matrix(0.008173828125000001,0,0,0.008173828125000001,26.311552734375002,0)" xlink:href="#Y"/><use transform="matrix(0.008173828125000001,0,0,0.008173828125000001,35.1474609375,0)" xlink:href="#ao"/><use transform="matrix(0.008173828125000001,0,0,0.008173828125000001,45.184921875,0)" xlink:href="#ap"/><use transform="matrix(0.008173828125000001,0,0,0.008173828125000001,55.07525390625,0)" xlink:href="#Y"/></g><path d="M226-283v-166h904v166H226zm0-434v-166h904v166H226" id="aC"/><g id="L"><use transform="matrix(0.008173828125000001,0,0,0.008173828125000001,0,0)" xlink:href="#ag"/><use transform="matrix(0.008173828125000001,0,0,0.008173828125000001,9.326337890625,0)" xlink:href="#ar"/><use transform="matrix(0.008173828125000001,0,0,0.008173828125000001,18.726240234375002,0)" xlink:href="#aa"/><use transform="matrix(0.008173828125000001,0,0,0.008173828125000001,24.7503515625,0)" xlink:href="#am"/><use transform="matrix(0.008173828125000001,0,0,0.008173828125000001,34.31373046875,0)" xlink:href="#at"/><use transform="matrix(0.008173828125000001,0,0,0.008173828125000001,44.212236328125,0)" xlink:href="#ar"/><use transform="matrix(0.008173828125000001,0,0,0.008173828125000001,53.612138671875,0)" xlink:href="#aa"/><use transform="matrix(0.008173828125000001,0,0,0.008173828125000001,59.914160156250006,0)" xlink:href="#au"/><use transform="matrix(0.008173828125000001,0,0,0.008173828125000001,66.020009765625,0)" xlink:href="#av"/><use transform="matrix(0.008173828125000001,0,0,0.008173828125000001,76.22912109375001,0)" xlink:href="#aw"/><use transform="matrix(0.008173828125000001,0,0,0.008173828125000001,86.40553710937502,0)" xlink:href="#aw"/><use transform="matrix(0.008173828125000001,0,0,0.008173828125000001,96.58195312500001,0)" xlink:href="#ax"/><use transform="matrix(0.008173828125000001,0,0,0.008173828125000001,102.68780273437501,0)" xlink:href="#aC"/></g><g id="M"><use transform="matrix(0.008173828125000001,0,0,0.008173828125000001,0,0)" xlink:href="#al"/><use transform="matrix(0.008173828125000001,0,0,0.008173828125000001,10.249980468750001,0)" xlink:href="#ab"/><use transform="matrix(0.008173828125000001,0,0,0.008173828125000001,14.304199218750002,0)" xlink:href="#aa"/><use transform="matrix(0.008173828125000001,0,0,0.008173828125000001,20.867783203124997,0)" xlink:href="#an"/><use transform="matrix(0.008173828125000001,0,0,0.008173828125000001,26.344248046875002,0)" xlink:href="#at"/><use transform="matrix(0.008173828125000001,0,0,0.008173828125000001,36.24275390625,0)" xlink:href="#aj"/><use transform="matrix(0.008173828125000001,0,0,0.008173828125000001,43.877109375,0)" xlink:href="#ac"/><use transform="matrix(0.008173828125000001,0,0,0.008173828125000001,54.12708984375001,0)" xlink:href="#ar"/><use transform="matrix(0.008173828125000001,0,0,0.008173828125000001,63.52699218750001,0)" xlink:href="#an"/><use transform="matrix(0.008173828125000001,0,0,0.008173828125000001,68.83998046875,0)" xlink:href="#Z"/></g><g id="N"><use transform="matrix(0.008173828125000001,0,0,0.008173828125000001,0,0)" xlink:href="#ac"/><use transform="matrix(0.008173828125000001,0,0,0.008173828125000001,10.249980468750001,0)" xlink:href="#ar"/><use transform="matrix(0.008173828125000001,0,0,0.008173828125000001,19.649882812500003,0)" xlink:href="#an"/><use transform="matrix(0.008173828125000001,0,0,0.008173828125000001,24.962871093750003,0)" xlink:href="#Z"/></g><g id="O"><use transform="matrix(0.008173828125000001,0,0,0.008173828125000001,0,0)" xlink:href="#ai"/><use transform="matrix(0.008173828125000001,0,0,0.008173828125000001,10.266328125000001,0)" xlink:href="#Z"/><use transform="matrix(0.008173828125000001,0,0,0.008173828125000001,20.02587890625,0)" xlink:href="#ap"/><use transform="matrix(0.008173828125000001,0,0,0.008173828125000001,29.9162109375,0)" xlink:href="#ac"/><use transform="matrix(0.008173828125000001,0,0,0.008173828125000001,40.16619140625,0)" xlink:href="#Z"/><use transform="matrix(0.008173828125000001,0,0,0.008173828125000001,49.9257421875,0)" xlink:href="#aa"/></g><g id="P"><use transform="matrix(0.008173828125000001,0,0,0.008173828125000001,0,0)" xlink:href="#aa"/><use transform="matrix(0.008173828125000001,0,0,0.008173828125000001,6.0241113281250005,0)" xlink:href="#ao"/><use transform="matrix(0.008173828125000001,0,0,0.008173828125000001,16.061572265625003,0)" xlink:href="#ah"/><use transform="matrix(0.008173828125000001,0,0,0.008173828125000001,20.115791015625003,0)" xlink:href="#Z"/><use transform="matrix(0.008173828125000001,0,0,0.008173828125000001,29.875341796875006,0)" xlink:href="#Y"/></g><g id="Q"><use transform="matrix(0.008173828125000001,0,0,0.008173828125000001,0,0)" xlink:href="#as"/><use transform="matrix(0.008173828125000001,0,0,0.008173828125000001,14.663847656250002,0)" xlink:href="#Z"/><use transform="matrix(0.008173828125000001,0,0,0.008173828125000001,24.42339843750001,0)" xlink:href="#ac"/><use transform="matrix(0.008173828125000001,0,0,0.008173828125000001,34.673378906250015,0)" xlink:href="#ab"/><use transform="matrix(0.008173828125000001,0,0,0.008173828125000001,38.72759765625001,0)" xlink:href="#ar"/><use transform="matrix(0.008173828125000001,0,0,0.008173828125000001,48.12750000000001,0)" xlink:href="#Y"/><use transform="matrix(0.008173828125000001,0,0,0.008173828125000001,56.96340820312501,0)" xlink:href="#aj"/><use transform="matrix(0.008173828125000001,0,0,0.008173828125000001,65.16175781250001,0)" xlink:href="#af"/><use transform="matrix(0.008173828125000001,0,0,0.008173828125000001,75.41173828125001,0)" xlink:href="#Z"/><use transform="matrix(0.008173828125000001,0,0,0.008173828125000001,85.17128906250001,0)" xlink:href="#aa"/><use transform="matrix(0.008173828125000001,0,0,0.008173828125000001,91.47331054687501,0)" xlink:href="#Y"/><use transform="matrix(0.008173828125000001,0,0,0.008173828125000001,100.30921875000001,0)" xlink:href="#ao"/><use transform="matrix(0.008173828125000001,0,0,0.008173828125000001,110.34667968750001,0)" xlink:href="#ap"/><use transform="matrix(0.008173828125000001,0,0,0.008173828125000001,120.23701171875001,0)" xlink:href="#Y"/><use transform="matrix(0.008173828125000001,0,0,0.008173828125000001,129.072919921875,0)" xlink:href="#aj"/><use transform="matrix(0.008173828125000001,0,0,0.008173828125000001,137.27126953125,0)" xlink:href="#aa"/><use transform="matrix(0.008173828125000001,0,0,0.008173828125000001,143.295380859375,0)" xlink:href="#ao"/><use transform="matrix(0.008173828125000001,0,0,0.008173828125000001,153.33284179687502,0)" xlink:href="#ah"/><use transform="matrix(0.008173828125000001,0,0,0.008173828125000001,157.387060546875,0)" xlink:href="#Z"/><use transform="matrix(0.008173828125000001,0,0,0.008173828125000001,167.14661132812498,0)" xlink:href="#Y"/></g><g id="R"><use transform="matrix(0.008173828125000001,0,0,0.008173828125000001,0,0)" xlink:href="#ay"/><use transform="matrix(0.008173828125000001,0,0,0.008173828125000001,13.6993359375,0)" xlink:href="#ar"/><use transform="matrix(0.008173828125000001,0,0,0.008173828125000001,23.099238281250003,0)" xlink:href="#an"/><use transform="matrix(0.008173828125000001,0,0,0.008173828125000001,28.412226562500003,0)" xlink:href="#am"/><use transform="matrix(0.008173828125000001,0,0,0.008173828125000001,37.975605468750004,0)" xlink:href="#at"/><use transform="matrix(0.008173828125000001,0,0,0.008173828125000001,47.874111328125004,0)" xlink:href="#aj"/><use transform="matrix(0.008173828125000001,0,0,0.008173828125000001,56.072460937500004,0)" xlink:href="#ah"/><use transform="matrix(0.008173828125000001,0,0,0.008173828125000001,60.1266796875,0)" xlink:href="#ab"/><use transform="matrix(0.008173828125000001,0,0,0.008173828125000001,64.1808984375,0)" xlink:href="#Y"/><use transform="matrix(0.008173828125000001,0,0,0.008173828125000001,73.016806640625,0)" xlink:href="#an"/><use transform="matrix(0.008173828125000001,0,0,0.008173828125000001,78.329794921875,0)" xlink:href="#Y"/><use transform="matrix(0.008173828125000001,0,0,0.008173828125000001,87.16570312500001,0)" xlink:href="#aj"/><use transform="matrix(0.008173828125000001,0,0,0.008173828125000001,95.36405273437501,0)" xlink:href="#as"/><use transform="matrix(0.008173828125000001,0,0,0.008173828125000001,110.027900390625,0)" xlink:href="#Z"/><use transform="matrix(0.008173828125000001,0,0,0.008173828125000001,119.787451171875,0)" xlink:href="#ac"/><use transform="matrix(0.008173828125000001,0,0,0.008173828125000001,130.03743164062502,0)" xlink:href="#ab"/><use transform="matrix(0.008173828125000001,0,0,0.008173828125000001,134.091650390625,0)" xlink:href="#ar"/><use transform="matrix(0.008173828125000001,0,0,0.008173828125000001,143.491552734375,0)" xlink:href="#Y"/></g><g id="S"><use transform="matrix(0.008173828125000001,0,0,0.008173828125000001,0,0)" xlink:href="#aa"/><use transform="matrix(0.008173828125000001,0,0,0.008173828125000001,6.0241113281250005,0)" xlink:href="#Z"/><use transform="matrix(0.008173828125000001,0,0,0.008173828125000001,15.456708984375002,0)" xlink:href="#ag"/><use transform="matrix(0.008173828125000001,0,0,0.008173828125000001,24.86478515625,0)" xlink:href="#ab"/><use transform="matrix(0.008173828125000001,0,0,0.008173828125000001,28.91900390625,0)" xlink:href="#Z"/><use transform="matrix(0.008173828125000001,0,0,0.008173828125000001,38.376123046875,0)" xlink:href="#ay"/><use transform="matrix(0.008173828125000001,0,0,0.008173828125000001,52.075458984375004,0)" xlink:href="#Y"/></g><g id="T"><use transform="matrix(0.008173828125000001,0,0,0.008173828125000001,0,0)" xlink:href="#as"/><use transform="matrix(0.008173828125000001,0,0,0.008173828125000001,14.663847656250002,0)" xlink:href="#Z"/><use transform="matrix(0.008173828125000001,0,0,0.008173828125000001,24.42339843750001,0)" xlink:href="#Y"/><use transform="matrix(0.008173828125000001,0,0,0.008173828125000001,33.259306640625006,0)" xlink:href="#Y"/><use transform="matrix(0.008173828125000001,0,0,0.008173828125000001,42.09521484375001,0)" xlink:href="#ar"/><use transform="matrix(0.008173828125000001,0,0,0.008173828125000001,51.49511718750001,0)" xlink:href="#ai"/><use transform="matrix(0.008173828125000001,0,0,0.008173828125000001,61.76144531250001,0)" xlink:href="#Z"/></g><g id="U"><use transform="matrix(0.008173828125000001,0,0,0.008173828125000001,0,0)" xlink:href="#aa"/><use transform="matrix(0.008173828125000001,0,0,0.008173828125000001,6.302021484375,0)" xlink:href="#ar"/><use transform="matrix(0.008173828125000001,0,0,0.008173828125000001,15.701923828125002,0)" xlink:href="#an"/><use transform="matrix(0.008173828125000001,0,0,0.008173828125000001,21.178388671875002,0)" xlink:href="#ab"/><use transform="matrix(0.008173828125000001,0,0,0.008173828125000001,25.232607421875002,0)" xlink:href="#ap"/><use transform="matrix(0.008173828125000001,0,0,0.008173828125000001,35.122939453125,0)" xlink:href="#ai"/></g><g id="V"><use transform="matrix(0.008173828125000001,0,0,0.008173828125000001,0,0)" xlink:href="#as"/><use transform="matrix(0.008173828125000001,0,0,0.008173828125000001,14.663847656250002,0)" xlink:href="#Z"/><use transform="matrix(0.008173828125000001,0,0,0.008173828125000001,24.42339843750001,0)" xlink:href="#ac"/><use transform="matrix(0.008173828125000001,0,0,0.008173828125000001,34.673378906250015,0)" xlink:href="#ab"/><use transform="matrix(0.008173828125000001,0,0,0.008173828125000001,38.72759765625001,0)" xlink:href="#ar"/><use transform="matrix(0.008173828125000001,0,0,0.008173828125000001,48.12750000000001,0)" xlink:href="#Y"/><use transform="matrix(0.008173828125000001,0,0,0.008173828125000001,56.96340820312501,0)" xlink:href="#aj"/><use transform="matrix(0.008173828125000001,0,0,0.008173828125000001,65.16175781250001,0)" xlink:href="#aa"/><use transform="matrix(0.008173828125000001,0,0,0.008173828125000001,71.18586914062503,0)" xlink:href="#Z"/><use transform="matrix(0.008173828125000001,0,0,0.008173828125000001,80.61846679687501,0)" xlink:href="#ag"/><use transform="matrix(0.008173828125000001,0,0,0.008173828125000001,90.02654296875001,0)" xlink:href="#ab"/><use transform="matrix(0.008173828125000001,0,0,0.008173828125000001,94.08076171875001,0)" xlink:href="#Z"/><use transform="matrix(0.008173828125000001,0,0,0.008173828125000001,103.53788085937501,0)" xlink:href="#ay"/><use transform="matrix(0.008173828125000001,0,0,0.008173828125000001,117.237216796875,0)" xlink:href="#Y"/></g><g id="W"><use transform="matrix(0.008173828125000001,0,0,0.008173828125000001,0,0)" xlink:href="#as"/><use transform="matrix(0.008173828125000001,0,0,0.008173828125000001,14.663847656250002,0)" xlink:href="#Z"/><use transform="matrix(0.008173828125000001,0,0,0.008173828125000001,24.42339843750001,0)" xlink:href="#ac"/><use transform="matrix(0.008173828125000001,0,0,0.008173828125000001,34.673378906250015,0)" xlink:href="#ab"/><use transform="matrix(0.008173828125000001,0,0,0.008173828125000001,38.72759765625001,0)" xlink:href="#ar"/><use transform="matrix(0.008173828125000001,0,0,0.008173828125000001,48.12750000000001,0)" xlink:href="#Y"/><use transform="matrix(0.008173828125000001,0,0,0.008173828125000001,56.96340820312501,0)" xlink:href="#aj"/><use transform="matrix(0.008173828125000001,0,0,0.008173828125000001,64.59776367187501,0)" xlink:href="#ai"/><use transform="matrix(0.008173828125000001,0,0,0.008173828125000001,74.86409179687502,0)" xlink:href="#Z"/><use transform="matrix(0.008173828125000001,0,0,0.008173828125000001,84.62364257812501,0)" xlink:href="#ap"/><use transform="matrix(0.008173828125000001,0,0,0.008173828125000001,94.51397460937501,0)" xlink:href="#aa"/><use transform="matrix(0.008173828125000001,0,0,0.008173828125000001,100.53808593750001,0)" xlink:href="#Z"/><use transform="matrix(0.008173828125000001,0,0,0.008173828125000001,110.29763671875001,0)" xlink:href="#Y"/></g></defs></g></svg>